<?xml version="1.0" standalone="no"?>
<!DOCTYPE svg PUBLIC "-//W3C//DTD SVG 1.1//EN" "http://www.w3.org/Graphics/SVG/1.1/DTD/svg11.dtd" >
<svg xmlns="http://www.w3.org/2000/svg">
<metadata></metadata>
<defs>
<font id="coldsmithregular" horiz-adv-x="761" >
<font-face units-per-em="2048" ascent="1638" descent="-410" />
<missing-glyph horiz-adv-x="294" />
<glyph horiz-adv-x="2048" />
<glyph horiz-adv-x="2048" />
<glyph unicode="&#xd;" horiz-adv-x="294" />
<glyph unicode=" "  horiz-adv-x="294" />
<glyph unicode="&#x09;" horiz-adv-x="294" />
<glyph unicode="&#xa0;" horiz-adv-x="294" />
<glyph unicode="!" horiz-adv-x="362" d="M61 1296q0 18 4.5 40t26.5 22h4q10 0 20.5 1t20.5 1q14 0 21 -2q8 -2 22 -2q16 0 32.5 3t33.5 3q8 -4 17.5 -4t17.5 -4q20 -20 20 -60q0 -10 -1 -18t-3 -19q-2 -6 -2 -18v-22v-13.5t-4 -15.5q-8 -35 -7 -66.5t-3 -66.5q-4 -31 -2 -60.5t-3 -60.5q-2 -8 -2 -23 q0 -10 1 -21t1 -26q0 -55 -7 -107t-7 -106q-4 -53 -8 -101t-8 -101q0 -16 3 -35t3 -37q0 -39 -25 -53q-23 -12 -57 -13q-25 0 -49 6q-6 78 -7 157t-12 159q0 4 -1 8t-1 8q0 16 3 29.5t3 30.5q0 10 -4 26q0 10 -4 22.5t-4 22.5q0 131 -14 258t-19 258zM72 94v56q4 10 12 19 t18 13q29 10 64 11q27 0 51 -3.5t49 -7.5q10 0 13.5 -11t7.5 -21q10 -35 10 -60q0 -27 -6 -51q0 -10 -4 -25.5t-21 -15.5q-16 -4 -31.5 -5t-31.5 -1q-29 0 -57.5 4t-61.5 12q-8 0 -8 6q0 4 1 6.5t1 4.5q-4 16 -5 33.5t-1 35.5zM166 664q0 -6 6 -13h9t9 4q6 6 7 19 q0 18 -13 18h-2q-4 -4 -10 -11t-6 -17z" />
<glyph unicode="&#x22;" horiz-adv-x="585" d="M61 1288q0 31 5 35q2 4 2 12v13.5t8 7.5q16 6 31.5 8t31.5 2q25 0 50.5 -3t50.5 -7q12 0 15 -10.5t3 -26.5q0 -6 -1 -13.5t1 -13.5v-8q0 -18 -5 -54t-11 -74t-11.5 -68.5t-7.5 -38.5q0 -10 -5 -25.5t-19 -15.5q-6 -2 -21.5 -3t-33 -2.5t-33 -1.5h-21.5q-4 0 -9 33t-9 79 t-7.5 94t-3.5 81zM328 1288q0 31 4 35q2 4 2 12v13.5t8 7.5q16 6 31.5 8t32.5 2q25 0 50 -3t50 -7q12 0 15 -10.5t3 -26.5q0 -6 -1 -13.5t1 -13.5v-8q0 -18 -5 -54t-11 -74t-11 -68.5t-8 -38.5q0 -10 -5 -25.5t-19 -15.5q-6 -2 -21.5 -3t-33 -2.5t-33 -1.5h-21.5q-4 0 -9 33 t-9 79t-7 94t-3 81z" />
<glyph unicode="#" horiz-adv-x="1134" d="M61 446q0 4 1 6.5t1 4.5v10q0 23 10.5 42t12.5 44q6 10 16.5 19.5t20.5 9.5h313h179.5h169t133 -1t67.5 -3q16 0 16 -19q0 -8 -1 -15t-1 -16v-14q0 -14 -6 -19.5t-10 -21.5q-4 -8 -10 -21.5t-23 -13.5q-20 0 -64 -1t-103.5 -2t-129 -1h-143.5h-144.5t-130 1t-104.5 3 t-65 4q-4 0 -5 4zM135 770v6q0 2 2 2v13q0 23 10.5 42t14.5 41q6 10 15 20.5t22 10.5h313h178h169t132.5 -1t67.5 -3q14 0 14 -16q0 -8 -1 -15.5t-1 -15.5q0 -4 1 -9t1 -9q0 -12 -7 -17.5t-11 -21.5q-2 -10 -9.5 -22.5t-21.5 -12.5q-18 0 -62 -1t-103.5 -2t-130.5 -1h-144 h-142.5t-130 1t-104.5 3t-66 4q-6 0 -6 4zM197 41q4 18 10 30.5t10 28.5q20 76 42 163t42.5 175t39.5 174t40 164q4 6 5 14.5t3 12.5q18 84 44 185.5t44 185.5q12 80 39 157q0 10 14 10h15q16 0 35.5 2.5t35.5 2.5q32 -1 46 -13t14 -30q0 -27 -16.5 -59t-24.5 -60 q-6 -23 -9 -36t-6.5 -23.5t-6.5 -24t-9 -35.5q-6 -27 -17.5 -71t-23.5 -91t-23.5 -90t-17.5 -70q-2 -14 -7 -27.5t-9 -23.5q-2 -18 -3 -36.5t-9 -37.5q-6 -14 -7.5 -22t-3.5 -23q-8 -25 -16 -60.5t-17.5 -74.5t-18.5 -73.5t-15 -59.5q-18 -72 -31.5 -138.5t-30.5 -137.5 q-20 -18 -55 -19q-20 0 -39.5 4t-40.5 4h-10q-4 0 -6 9.5t-6 13.5zM502 41q4 18 10 30.5t10 28.5q20 76 42 163t42.5 175t40 174t39.5 164q4 6 4 14.5t2 12.5q20 84 47 185.5t45 185.5q6 41 15.5 78.5t19.5 78.5q-2 2 5 6t12 4h14q18 0 36.5 2.5t37.5 2.5q12 0 23.5 -2.5 t21.5 -10.5q14 -12 14 -30q2 -27 -17.5 -59t-27.5 -60q-4 -23 -7 -36t-6 -23.5t-6.5 -24t-9.5 -35.5q-6 -27 -17 -71t-22.5 -91t-22.5 -90t-18 -70q-4 -14 -9 -27.5t-9 -23.5q-2 -18 -3 -36.5t-9 -37.5q-6 -14 -6 -22t-5 -23q-6 -25 -15 -60.5t-18.5 -74.5t-18.5 -73.5 t-15 -59.5q-20 -72 -31.5 -138.5t-30.5 -137.5q-20 -18 -53 -19q-20 0 -40.5 4t-39.5 4h-10h-2q-4 0 -6 9.5t-6 13.5z" />
<glyph unicode="$" horiz-adv-x="667" d="M61 446q0 14 9 31q23 16 45 29.5t47 23.5q14 -27 22.5 -55.5t26.5 -52.5q16 -20 34.5 -38.5t41.5 -29.5q0 29 1 57.5t1 59.5q0 61 -1 124.5t-1 129.5q-6 6 -11.5 12t-11.5 13q-4 4 -9 8t-13 4q-4 0 -6 -2q-4 18 -14.5 32.5t-24 26.5t-25.5 25.5t-16 32.5q-4 23 -12.5 42 t-18.5 37q-10 25 -14.5 51.5t-4.5 53.5q-2 29 5.5 55.5t17.5 52.5q16 35 41 70t66 45q12 4 24 7t25 7v41.5t2 38.5q0 6 10 6q14 0 27.5 2.5t27.5 2.5q19 -1 33 -9t14 -28q0 -10 -2 -21.5t-6 -21.5q4 -2 8 -2t9 -2q31 -4 56 -21.5t50 -40.5q29 -23 49.5 -55.5t36.5 -67.5 q4 -12 4 -18q0 -12 -6 -19q-16 -18 -37.5 -38.5t-44.5 -20.5q-8 0 -12 2q-23 2 -28 26.5t-21 47.5q-10 16 -25.5 30.5t-36.5 22.5q-4 0 -4 2v-66.5t-2 -64.5q0 -10 -1 -18.5t-1 -16.5q4 -20 4 -31q0 -6 -1 -13t-1 -13v-19q-2 -18 -2 -36.5v-34.5q18 -18 36.5 -29.5 t33.5 -26.5q33 -41 64.5 -76.5t53.5 -82.5q20 -57 31 -127q2 -2 2 -11q0 -10 -3 -17t-3 -17v-27q-10 -45 -25.5 -84t-48.5 -72q-23 -23 -48 -40t-54 -23q-10 -4 -19.5 -6t-19.5 -6v-64q-12 -12 -35 -12q-14 0 -28.5 3t-28.5 3h-2q-4 0 -7 9t-3 11q0 8 2 15.5t2 17.5v15 q-23 4 -42.5 12t-37.5 24q-2 0 -4 4.5t-6 6.5q-27 14 -41 24q-31 37 -51.5 75t-36.5 85zM209 991q0 -8 2 -16t4 -19q4 -4 7 -8t5 -10q8 8 9 6v2l-5 10q0 4 2.5 10.5t2.5 10.5q-4 4 -6.5 14t-12.5 10q-8 0 -8 -10zM231 807q4 -6 11.5 -7t13.5 -1q2 0 2 4q0 10 -4 20.5 t-14 14.5q-8 0 -9 -4v-27zM248 1061q0 -30 12 -57q4 -12 12.5 -22.5t16.5 -23.5v49.5t2 36.5v19v43t-2 43q-41 -31 -41 -88zM252 1210q10 0 10 4l-2 3h-8v-7zM313 385q0 -20 15 -29q4 -2 8 10.5t16 12.5q6 0 6 6q0 10 -10 11t-18 1q-2 0 -2 9q6 12 18 13t16 15q6 14 7 31v20 v15q0 6 -7 6h-8q-2 0 -7 2t-5 10q0 4 4 8q4 0 8 -4t8 -4q4 4 5 10q0 6 -2.5 13.5t-4.5 11.5q-2 6 -2 18.5t-10 12.5q-4 0 -7 -1t-9 -1q-2 0 -2 -2q-2 -2 -2 -7q0 -4 1 -5t1 -3v-2q-8 -10 -8 -24q0 -12 4 -25.5t4 -26.5v-4q0 -2 -4 -8t-4 -10t3 -12.5t3 -14.5v-2 q-4 -10 -9.5 -24.5t-5.5 -26.5zM344 1087q0 -6 8 -6q2 0 3 1t3 1v9q-2 0 -3 -1t-3 -1t-3 1t-3 1zM385 346q41 12 64 53q14 27 14 58q-1 39 -21 80q-20 47 -57 90v-281z" />
<glyph unicode="%" horiz-adv-x="1161" d="M61 973q0 41 2.5 86t6.5 88q2 18 5 40.5t13 45.5q4 6 7 15t7 20q2 4 11.5 12t23.5 20h-2l8 9q2 2 4.5 3t4.5 3t4 2l-4 -4q14 10 27.5 20t31.5 15q10 2 21.5 2h21.5q29 0 54.5 -4.5t53.5 -14.5q20 -12 29.5 -23.5t20.5 -21.5h-2q29 -29 39 -58.5t14 -58.5q2 -16 3 -32.5 t3 -32.5q4 -23 6 -49.5t2 -50.5q0 -20 -2 -31q-6 -6 -33 -6l7 -6q0 -8 -3 -9h9q4 0 10 -2l10 -6q2 -18 3 -39.5t1 -40.5q0 -41 -7 -84t-23 -86q-8 -20 -28 -39.5t-48 -27.5h2q-25 -10 -51.5 -15.5t-57.5 -5.5q-29 0 -57.5 6t-52.5 23q-53 35 -68.5 85t-19.5 97 q-4 39 -5.5 79t-1.5 77zM160 29q10 20 20 33.5t21 33.5q92 176 172 344t172 344q4 8 7 16.5t7 14.5q47 98 87 182t85 181q20 47 41 91t45 89q0 2 8.5 6t12.5 4q25 0 52.5 3t49.5 3q39 0 51 -14q10 -8 10 -23q0 -14 -10 -32.5t-23.5 -38t-27.5 -39t-22 -37.5 q-12 -27 -20.5 -41t-14.5 -27.5t-14.5 -28t-20.5 -40.5q-14 -31 -33.5 -71t-40 -82t-40 -82t-34.5 -70q-8 -16 -17 -31t-15 -29q-6 -20 -13.5 -40.5t-21.5 -43.5q-10 -14 -14.5 -24.5l-10.5 -24.5q-16 -29 -36.5 -71t-42 -85l-42 -84t-34.5 -67q-20 -41 -32.5 -66.5 t-24 -50.5t-24 -51.5t-32.5 -65.5q-18 -14 -36.5 -18t-35.5 -4q-23 0 -46 5t-46 5h-10q-4 0 -3 10.5t-3 16.5zM211 973q4 -25 5 -52.5t1 -52.5q0 -35 2 -67.5t12 -65.5q6 -31 17 -35q12 -4 18 -4q4 0 10.5 1t10.5 1q14 0 25.5 14.5t13.5 37.5q4 35 4 67.5v67.5q0 16 1 33.5 t1 33.5v57.5t-2 57.5q0 8 -1 16.5t-1 16.5q0 25 -1 49.5t-8 46.5q-8 33 -22 45t-27 12q-14 0 -27.5 -9t-17.5 -27q-6 -23 -8 -47.5t-2 -49.5v-82v-32.5t-4 -32.5zM272 131q0 -6 7.5 -12t15.5 -6q6 0 10 2q12 10 16.5 20t4.5 23q0 6 -1 11t-1 11h-13q-14 -10 -26.5 -24.5 t-12.5 -24.5zM305 219q0 -8 14 -8h7q2 4 3 8t5 8q-4 -2 -10 -2h-11q-8 0 -8 -6zM344 193q2 -4 5 -10.5t3 -16.5v-4q8 4 14.5 6t6.5 6q0 2 -1 3t-1 3q0 12 9 23.5t13 21.5q0 6 3 13.5t3 15.5q0 16 -14 16t-18 -8q-10 -14 -13.5 -32.5t-9.5 -36.5zM676 365q0 41 5 91t9 93 q2 18 5 40.5t14 45.5q4 6 7 15t7 20q2 4 11 12t24 20h-2l8 9q2 2 4 3t4 3t4 2l-4 -4q14 10 27.5 20t31.5 15q10 2 21.5 2h21.5q29 0 54.5 -4.5t54.5 -14.5q20 -12 29.5 -23.5t19.5 -21.5h-2q29 -29 39 -58.5t14 -58.5q2 -16 3 -32.5t4 -32.5q4 -23 6 -49.5t2 -50.5 q0 -20 -2 -31q-6 -6 -33 -6l6 -7q0 -8 -2 -8h8q4 0 10 -2q10 -6 11 -6q2 -18 3 -39.5t1 -40.5q0 -41 -7.5 -84t-23.5 -86q-8 -20 -27.5 -39.5t-48.5 -27.5h2q-25 -10 -51 -15.5t-57 -5.5q-29 0 -57.5 6t-53.5 23q-53 35 -68.5 85t-19.5 97q-4 39 -8 74t-4 72zM831 375 q4 -25 5.5 -52.5t1.5 -52.5q0 -35 2 -67.5t12 -65.5q6 -31 16 -35q12 -4 19 -4q4 0 10 1t10 1q14 0 25.5 14.5t13.5 37.5q4 35 4 67.5v67.5q0 16 1 33.5t1 33.5v57.5t-2 57.5q0 8 -1 16.5t-1 16.5q0 25 -1 49t-7 47q-8 33 -22.5 45t-26.5 12q-14 0 -27.5 -9t-17.5 -28 q-6 -23 -8 -47t-2 -49v-82v-32.5t-5 -32.5z" />
<glyph unicode="&#x26;" horiz-adv-x="755" d="M66 291q0 53 4 89t8 89q4 37 21.5 62.5t37.5 50.5q10 16 25.5 27.5t31 20.5t27.5 20.5t17 29.5q0 10 -17.5 22.5t-36.5 22.5q-35 18 -56.5 55t-29.5 78q-4 41 -7 83t-7 83v16q0 31 11 64t16 61q8 16 13 34t15 34q20 20 42 41.5t46 36.5q14 6 26.5 14t27.5 14q12 2 24 3 t23 1v107q0 2 6 6t10 4h6q16 0 31.5 4t30.5 4q20 0 43 -16l15 -15t5 -12q0 -8 -8 -19t-8 -42v-25q12 -2 23.5 -3t25.5 -5q23 -2 43 -14t45 -33q23 -18 41 -48t29 -58q27 -76 26 -146q0 -31 -6 -55q-39 -16 -79 -16t-81 -5q-2 0 -5 4.5t-3 8.5q0 12 1 23.5t1 27.5 q0 27 -2 51.5t-10 50.5q-14 37 -52 55.5t-73 18.5q-29 0 -59 -18q-35 -29 -42.5 -70t-19.5 -76q0 -4 4 -11t4 -11q0 -2 -2 -4q-2 -10 -2 -20.5v-20.5q0 -35 8.5 -69t24.5 -60q14 -23 35.5 -34t46.5 -17.5t50.5 -7.5t49.5 -1v-170q-10 -2 -28 -2q-12 0 -24.5 1t-29.5 1 q-10 0 -22 -2t-23 -10q-12 -4 -22 -8t-21 -8q-41 -39 -50 -77t-9 -83v-39q0 -4 10 -4q-4 -10 -4 -24.5v-24.5q0 -45 14.5 -83t53.5 -61h22q25 -14 47 -14q20 0 37 7t33 18q18 10 33.5 24t21.5 37q4 23 5 44t1 42v57v27q12 2 23.5 4t21.5 2q25 0 48.5 -3t46.5 -7h16 q14 0 16 4q2 0 4 -2q6 -6 7 -8q2 -23 3 -45.5t1 -44.5q0 -31 -3 -59.5t-14 -59.5q-8 -23 -16 -46.5t-23 -45.5q-25 -35 -54.5 -55.5t-63.5 -34.5q-20 -8 -41 -9.5t-43 -3.5v-86q-23 -25 -43 -24q-16 0 -34 6t-38 6h-2q-8 0 -12 18.5t-4 22.5q0 12 2 26.5t4 28.5 q-4 2 -10.5 2t-10.5 2q-41 14 -74.5 25.5t-68.5 36.5q-18 8 -29.5 21.5t-17.5 29.5q-8 23 -16.5 42t-16.5 42q-10 23 -14 42t-4 40z" />
<glyph unicode="'" horiz-adv-x="319" d="M61 1288q0 31 5 35q4 10 2 19.5t8 13.5q16 6 31.5 8t31.5 2q25 0 50.5 -3t50.5 -7q18 0 16 -22.5t2 -41.5v-8q0 -18 -5 -54t-11 -74t-11.5 -68.5t-7.5 -38.5q0 -10 -5 -25.5t-19 -15.5q-6 -2 -21.5 -3t-33 -2.5t-33 -1.5h-21.5q-4 0 -9 33t-9 79t-7.5 94t-3.5 81z" />
<glyph unicode="(" horiz-adv-x="468" d="M61 471v43q0 41 1 89t1 91v33.5t-2 28.5q0 92 5.5 200.5t19.5 198.5q4 16 10 30.5t10 35.5q25 89 111 157q16 16 37.5 23.5t46.5 19.5q25 16 53.5 15.5t53.5 3.5v-172h-5q-23 0 -50 -12.5t-50.5 -32t-40 -44t-16.5 -49.5q0 -14 2 -20q-4 0 -4 -6v-6q-2 -14 -2 -26.5 v-22.5q0 -23 1 -43.5t1 -42.5v-22.5t-2 -27.5q-2 -31 -2 -76.5v-95.5v-95t2 -77q0 -43 -1 -87t-1 -91q0 -59 6 -118.5t24 -112.5q14 -37 56.5 -54.5t81.5 -17.5v-154q-59 0 -112.5 19.5t-105.5 56.5q-37 29 -57 73t-39 91q-25 74 -24.5 146.5t-8.5 150.5z" />
<glyph unicode=")" horiz-adv-x="487" d="M61 2q0 51 9 90h12q23 0 48.5 8.5t46 22.5t34.5 35.5t14 48.5q10 74 14.5 158t4.5 172q0 104 -3 204.5t-8 186.5q0 55 -1 100t-11 102q-6 20 -22.5 42t-38 40.5t-45 31.5t-45.5 18q-8 2 -9 20q0 10 2.5 23.5t2.5 25.5v113q8 2 14 3t14 1q29 0 56.5 -9t56.5 -18 q10 -4 16 -11t19 -17q6 -4 16 -7.5t10 -7.5q35 -29 54.5 -65.5t39.5 -73.5q12 -35 21.5 -66.5t13.5 -66.5q12 -104 20.5 -230t8.5 -231q0 -129 -9 -249t-32 -244q-10 -47 -35.5 -89.5t-62.5 -73t-81 -49t-93 -18.5q-10 0 -21.5 1t-21.5 3q-4 18 -6.5 38t-2.5 38z" />
<glyph unicode="*" horiz-adv-x="688" d="M61 1282v10q0 16 12.5 42t41.5 73q39 -14 69.5 -28.5t55.5 -24.5q10 -6 23 -13.5t24 -11.5v35v66.5t-2 46.5v30q16 8 23 10.5t11 2.5q2 0 2.5 -1t2.5 -1h2q12 2 25.5 4t27.5 2q18 0 32.5 -5.5t18.5 -21.5q0 -10 -1 -24.5t-1 -30.5q-2 -35 -3 -61.5t-3 -53.5 q49 20 95 33.5t58 17.5q2 0 8.5 -1t8.5 -1l8 -33l2 5q0 4 -2 8l2 -2q2 -6 3 -12.5t5 -16.5q6 -14 11.5 -29.5t5.5 -27.5t-6 -21l2 10q0 2 -13.5 -11t-44.5 -23q-10 -4 -19 -5t-20.5 -4.5t-27 -7.5t-39.5 -12q10 -14 22.5 -28.5t22.5 -24.5v2q16 -20 32.5 -42t36.5 -59 q-4 -14 -24.5 -29.5t-42.5 -29.5q4 2 6 2q0 -10 -51 -37q-41 53 -66.5 93t-46.5 69q-16 -25 -34.5 -53.5t-35 -51t-32 -38t-25.5 -15.5q-6 0 -8 2l-92 76q31 55 82 113q10 14 20 26.5t21 26.5q-45 14 -94.5 34.5t-88.5 51.5z" />
<glyph unicode="+" horiz-adv-x="733" d="M61 676v47q4 10 12.5 19.5t18.5 13.5q16 6 68.5 8t120.5 2q2 63 4 110.5t4 63.5q0 18 22.5 16t40.5 2q16 4 24.5 6.5t18.5 2.5t17 -2q10 0 25.5 -5.5t15.5 -19.5q4 -16 5 -65.5t1 -110.5q68 -2 119 -4t67 -4q18 0 16 -22.5t3 -41.5q4 -16 6 -23t2 -18q0 -12 -2 -18 q0 -10 -5.5 -25.5t-19.5 -15.5q-18 -4 -70.5 -6t-117.5 -2q-4 -76 -7.5 -136.5t-7.5 -80.5q0 -6 -6 -7q-2 0 -5 1t-5 1q-16 -4 -29.5 -5t-27.5 -1h-47q-10 4 -19.5 12.5t-13.5 18.5q-6 16 -8 72.5t-2 128.5q-72 2 -130.5 6t-76.5 8q-6 0 -6 6q0 4 1 6t1 4q-4 16 -5.5 30 t-1.5 28z" />
<glyph unicode="," horiz-adv-x="337" d="M61 94v56q4 10 12.5 19t18.5 13q16 6 31.5 8.5t32.5 2.5q25 0 50 -3.5t50 -7.5q18 0 16 -22.5t2 -40.5q2 -4 2 -23q0 -20 -2 -51t-5 -61.5t-5 -55t-4 -32.5q0 -10 -5 -25.5t-19 -15.5q-25 -6 -48 -7q-6 0 -9 23t-4 49.5t-4 49t-9 22.5q-23 2 -45.5 7t-44.5 9q-6 0 -6 6 q0 4 1 6.5t1 4.5q-4 16 -5.5 33.5t-1.5 35.5z" />
<glyph unicode="-" horiz-adv-x="610" d="M61 676v47q4 10 12.5 19.5t18.5 13.5q16 6 57 8t95 2q41 0 85 -1t83 -3t68.5 -3t41.5 -3q18 0 16.5 -22.5t2.5 -41.5q4 -16 6 -23t2 -18q0 -12 -2 -18q0 -10 -5 -25.5t-20 -15.5q-16 -4 -52 -5t-81 -1t-94 1t-93 4t-79 5t-51 6q-6 0 -6 6q0 4 1 6t1 4q-4 16 -5.5 30 t-1.5 28z" />
<glyph unicode="." horiz-adv-x="344" d="M61 94v56q4 10 12.5 19t18.5 13q16 6 31.5 8.5t32.5 2.5q25 0 50 -3.5t50 -7.5q18 0 16 -22.5t2 -40.5q4 -16 6.5 -30.5t2.5 -29.5q0 -14 -2 -20q0 -10 -5.5 -25.5t-19.5 -15.5q-16 -4 -30.5 -5t-30.5 -1q-31 0 -61 4t-62 12q-6 0 -6 6q0 4 1 6.5t1 4.5q-4 16 -5.5 33.5 t-1.5 35.5z" />
<glyph unicode="/" horiz-adv-x="1036" d="M61 -55q10 20 20.5 33.5t20.5 33.5q45 88 93.5 186.5t96.5 199t96 198.5t93 186q4 8 7.5 16.5t7.5 14.5q23 49 50 103.5t55 109.5t54.5 109.5t49.5 101.5q20 47 40.5 91t45.5 89q0 2 8 6t12 4q25 0 52.5 3.5t49.5 3.5q40 -1 52 -15q10 -8 10 -22t-10.5 -32.5t-23.5 -38 t-27.5 -39t-22.5 -38.5q-12 -27 -20.5 -41t-14.5 -27.5t-14 -27.5t-21 -41q-14 -31 -39.5 -80t-52.5 -103.5t-52.5 -103.5t-39.5 -80q-8 -16 -17.5 -30.5t-15.5 -28.5q-6 -20 -13 -40.5t-22 -43.5q-10 -14 -14 -24.5t-10 -24.5q-16 -29 -37 -71l-42.5 -85l-42 -84t-34.5 -67 q-41 -80 -73.5 -158t-73.5 -158q-18 -14 -37 -18t-35 -4q-23 0 -46.5 5t-45.5 5q-4 0 -6 -1t-4 -1q-4 0 -3 10.5t-4 18.5zM209 129q0 -6 7 -12t15 -6q6 0 11 2q12 10 16 20t4 23q0 6 -1 11t-1 11h-12q-14 -10 -26.5 -24.5t-12.5 -24.5zM242 217q0 -8 14 -8h6q2 4 3 8t5 8 q-4 -2 -10 -2h-10q-8 0 -8 -6zM281 190l5 -10t3 -16v-4q8 4 14 6t6 6q0 2 -1 3t-1 3q0 12 9.5 23.5t13.5 21.5q0 6 3 13.5t3 15.5q0 16 -14 16t-19 -8q-10 -14 -13 -32.5t-9 -37.5z" />
<glyph unicode="0" horiz-adv-x="811" d="M61 668q0 82 4.5 162.5t12.5 164.5q2 41 7 79t19 79q8 14 17.5 28.5t13.5 32.5q10 27 29.5 43.5t42.5 38.5q25 18 48.5 38t57.5 26q20 4 40 5t38 1q80 0 154 -27q37 -20 61.5 -53t50.5 -65q27 -43 40.5 -90.5t21.5 -96.5q6 -76 16 -151.5t10 -151.5v-26.5t-2 -26.5 q0 -8 -8 -10t-14 -2h-12q-16 0 -17 -13q4 -10 14.5 -12t20.5 -2q2 0 9 -5t7 -9q6 -68 7 -136q0 -84 -11.5 -164.5t-40.5 -158.5q-14 -39 -45.5 -75t-70.5 -48q-47 -16 -92.5 -26.5t-92.5 -10.5t-93 12.5t-89 40.5q-43 29 -69.5 68t-42 82t-22.5 90t-9 94q-4 70 -7.5 138.5 t-3.5 136.5zM106 590q0 -10 1.5 -20.5t3.5 -20.5q4 -14 14 -22.5t22 -8.5q18 0 31 21q2 2 2 6q0 6 -8 26q-4 4 -10 4q-4 0 -7 -1t-8 -1q-4 0 -9 3.5t-5 13.5q0 14 14 14q6 0 9 -2q12 -4 15 -12t7 -8q16 6 17 20q0 12 -6.5 27.5t-10.5 29.5q0 4 6 10.5t6 12.5q0 2 -2 4 q-6 10 -18 18.5t-12 22.5q0 2 1 4t1 4q10 10 25.5 12.5t15.5 18.5q0 10 -3 20.5t-10 10.5h-4q-10 0 -14 -6.5t-8 -14.5t-9.5 -14t-17.5 -8q-6 0 -6 -4t6 -11.5t10 -13.5q-8 -6 -6 -15.5t-10 -11.5q14 -12 14 -28q0 -6 -2 -11q-4 -4 -11 -5t-11 -3q-12 -31 -13 -61zM119 494 q0 -8 5 -14.5t5 -10.5q6 2 14 2q10 0 19 -4q0 -6 2 -8t2 -6q-8 -23 -31 -31v-6q0 -4 6 -4q10 0 18.5 11t8.5 21q0 8 -2 11q0 2 1 2t1 2q0 4 -6 8q0 8 4 14q-2 0 -4 -2q-6 0 -9 5t-8 5q-6 4 -7 9.5t-9 5.5q-10 0 -10 -10zM121 918q0 -31 8 -58q6 -2 9 -9t20 -7q10 0 19 6 t9 16q0 6 -4 10.5t-10 10.5l2 2q4 4 4 6q0 25 -11 41t-22 37h-2q-4 0 -11 -3t-7 -7q-2 -10 -3 -21.5t-1 -23.5zM129 332q4 0 7 -1t7 -1q6 0 13 8q-4 4 -7.5 8t-7.5 4h-12v-18zM260 678q10 -55 11 -109.5t1 -110t4.5 -109.5t20.5 -105q10 -45 40 -59.5t56 -14.5q12 0 24.5 2 t22.5 4q39 0 70 26.5t35 65.5q8 94 8 186.5t2 184.5q2 53 1 104.5t-5 106.5q-2 59 -3 117.5t-13 117.5q-12 43 -40 67t-57 34q-18 8 -47 8q-35 0 -65.5 -18.5t-38.5 -53.5q-12 -47 -17.5 -93t-5.5 -95q0 -35 1 -71t1 -70q0 -29 -1 -57.5t-5 -57.5z" />
<glyph unicode="1" horiz-adv-x="335" d="M61 23v8q0 16 4.5 28.5t4.5 30.5q4 88 5 174t1 172v172t4 174q0 106 -3 205.5t-3 204.5q-2 25 -2 47.5v44.5v44.5t2 43.5q0 2 6 6t10 4q25 0 50.5 3.5t49.5 3.5q16 0 31 -2.5t27 -12.5q27 -16 26 -51q0 -29 -10 -59.5t-10 -59.5q0 -117 1 -229.5t-3 -229.5 q0 -16 -2 -30.5t-2 -28.5q6 -29 6 -57v-13.5t-2 -13.5t-2 -16q0 -8 1 -15.5t1 -17.5q-4 -57 -2 -116.5t-2 -112.5v-68q0 -45 1 -89t1 -91v-33.5t-2 -34.5q-12 -14 -28.5 -18t-33.5 -4q-23 0 -48 5t-48 5q-4 0 -5 -1t-5 -1t-8 11t-11 18zM123 451q0 -33 22 -48h2 q4 0 12.5 18.5t28.5 18.5q2 0 3.5 -1t3.5 -1q6 0 6 8q0 4 -1 8.5t-1 6.5q-10 10 -22.5 12t-29.5 2q-2 0 -2 14q6 10 15.5 14.5t18.5 8.5t17.5 9.5t12.5 17.5q8 18 8 47q0 10 -1 22.5t-1 24.5q0 4 1 10t1 10q0 10 -8 11q-4 0 -10 -1t-13 -1q-4 0 -9 7t-5 15t6 14q6 0 13.5 -6 t15.5 -6q4 0 6 7t2 12q0 10 -4 21t-6 19q-4 12 -3 32t-16 24q-2 2 -4 2q-6 0 -12 -3t-16 -3q-4 0 -9 -11v-2q0 -4 2.5 -7t2.5 -7q0 -2 -3 -4q-12 -23 -12 -41q0 -23 6 -44.5t6 -43.5v-12q0 -4 -5 -14.5t-9 -20.5q0 -10 6 -23.5t6 -21.5v-2q-8 -18 -15 -44t-7 -48zM152 326 q0 -12 5 -26.5t7 -31.5q4 -6 11 -13t11 -17q4 4 9.5 5t5.5 5q0 2 -2 4q-6 8 -6 16t3 16.5t3 16.5q-4 8 -5 17.5t-8 19.5q-6 8 -16 8q-14 0 -16 -6t-2 -14zM154 969q0 -14 10 -23q6 -2 11 -5t11 -3q10 0 12.5 7t2.5 13q0 10 -6.5 22.5t-12.5 25.5h-12q-8 -6 -12 -16.5 t-4 -20.5zM174 860q0 -10 19 -10q8 0 7 5t-1 11q-2 -2 -11 -2h-10q-4 0 -4 -4z" />
<glyph unicode="2" horiz-adv-x="757" d="M61 39q0 16 3.5 32.5t3.5 32.5q0 4 -1 7.5t-1 7.5v104q0 92 23.5 179t53.5 173q29 78 90.5 137.5t124.5 118.5q25 27 49.5 53.5t47.5 55.5q12 20 20 40.5t17 43.5q6 18 6 37q0 10 -1 21.5t-1 21.5q-4 41 -37 66.5t-72 25.5q-20 0 -45 -10q-29 -12 -47.5 -31.5 t-32.5 -44.5t-26.5 -51.5t-28.5 -48.5q-2 -2 -12 -2q-12 0 -17 2q-14 10 -32.5 19t-34 19.5t-25.5 22.5t-10 31q0 4 1 6t1 6q8 68 57 118t107 97q18 12 42.5 20.5t51.5 16.5q12 4 24.5 4h22.5q39 0 72.5 -10t66.5 -25q66 -37 104 -96t46 -131v-41q0 -41 -5 -83t-26 -83 q-6 -18 -14.5 -37.5t-24.5 -38.5q-29 -45 -60.5 -78.5t-66.5 -68.5q-41 -41 -85 -76t-79 -82q-31 -49 -43 -102t-12 -107q0 -16 1 -33.5t3 -33.5q6 -23 25.5 -31t44.5 -8q20 0 41.5 3t38.5 5q23 0 48 -2t52 -2q12 0 25.5 1t25.5 3q16 4 32 4h32q10 0 25.5 8t25.5 8q8 0 8 -6 q12 -29 12 -59q0 -33 -6 -65.5t-6 -65.5q0 -6 -3 -17.5t-13 -11.5q-66 -6 -134.5 -8t-134.5 -2h-77q-39 0 -77 -3t-79 -3q-39 0 -78 6q-27 6 -27 41z" />
<glyph unicode="3" horiz-adv-x="792" d="M61 293q0 23 1 45t4 45q0 4 4 8q2 2 6 2q6 -6 14 -6q6 0 11 1t10 1q23 4 46 6t46 2h24.5t24.5 -4q2 -10 2 -21.5v-21.5v-43q0 -23 1 -45t5 -45q6 -23 22.5 -39t34.5 -26q16 -10 35 -16.5t37 -6.5q29 0 51 16h21q41 20 56 60.5t15 83.5q0 14 -1 27.5t-3 25.5q10 0 11 4 q2 12 2 24.5v24.5q0 49 -11.5 97.5t-52.5 87.5q-10 4 -21.5 8t-25.5 8q-20 10 -47 10q-12 0 -25.5 -1t-27.5 -1q-18 0 -29 2v176q51 2 105.5 9.5t82.5 54.5q35 59 35 131q0 10 -1 21.5t-3 21.5q0 2 -2 4q0 6 5 13t5 12q-6 18 -10 38.5t-10 40t-16.5 38t-28.5 32.5 q-29 20 -60 21q-16 0 -32.5 -4.5t-32.5 -10.5q-49 -18 -64 -61q-8 -25 -10 -50.5t-2 -52.5v-27.5t2 -29.5q0 -4 -4 -7t-8 -3q-41 2 -82 3t-82 15q-4 14 -4 28.5v29.5q-2 41 7 77.5t20 71.5q10 33 28.5 63.5t42.5 51.5q25 20 46.5 31.5t45.5 15.5q35 6 70 10t70 4q23 0 46 -2 t48 -6q16 -4 28.5 -13.5t26.5 -13.5q25 -16 47.5 -37.5t44.5 -44.5q10 -16 15.5 -35.5t13.5 -35.5q4 -31 16.5 -63.5t12.5 -65.5q0 -4 -1 -7t-1 -8q-2 -45 -4 -87t-11 -85q-6 -43 -28.5 -80.5t-59.5 -58.5q-16 -10 -35.5 -21.5t-19.5 -23.5v-2q4 -18 16.5 -29.5t28.5 -21.5 t32.5 -20.5t26.5 -28.5q20 -27 38 -53.5t22 -61.5q4 -55 9 -108.5t5 -106.5q0 -20 -4 -40.5t-16 -43.5q-6 -23 -15.5 -43.5t-17.5 -42.5q-8 -16 -18.5 -30.5t-30.5 -24.5q-35 -23 -70 -36t-78 -24q-47 -6 -86 -6h-30.5t-30.5 2q-25 4 -48.5 5t-43.5 7q-35 14 -67 36t-56 57 q-14 25 -22.5 49t-16.5 47q-10 33 -14.5 63.5t-4.5 63.5z" />
<glyph unicode="4" horiz-adv-x="727" d="M61 287q0 63 20.5 123.5t37.5 119.5q37 143 72.5 276.5t76.5 272.5q23 66 36 136.5t48 136.5q0 4 5 8t10 4q12 2 24 2h27q35 0 69.5 -1t69.5 -1h49q4 0 7 -4t3 -8v-269v-98v-12v-62v-125q0 -41 -2 -78.5t-2 -78.5q0 -27 2 -54.5t2 -54.5q0 -47 -6 -90q0 -10 -5 -19.5 t-5 -19.5v-4q4 -8 11 -10t14.5 -2h14.5t9 -4q16 -49 17 -99q0 -33 -9 -63q-2 -8 -14 -8h-16q-8 0 -11 -4q-2 -18 -2 -37v-39v-6q0 -8 -4 -11q8 -14 8 -36q0 -18 -7 -36t-21 -22q-23 -6 -43.5 -8t-42.5 -2h-49q-8 0 -15.5 6t-7.5 14q0 29 5 57.5t5 57.5q0 31 -12 62 q-74 14 -148.5 12t-146.5 6q-12 0 -20.5 12.5t-24.5 16.5l-4 -4q-2 -2 -6 -2q-12 10 -15.5 23t-3.5 26zM272 412q0 -16 17 -21q16 0 33.5 -1t33.5 -1q12 0 24.5 1t25.5 3q10 10 16 15q6 35 8 67.5t2 65.5t-1 64.5t-1 64.5q0 25 1 53.5t1 54.5v23q0 29 1 58.5t1 58.5v27 t-2 28q-23 -35 -31 -74t-24 -74q-4 -6 -13.5 -12t-17.5 -10q0 -8 8 -10t8 -11q-18 -96 -41.5 -181t-46.5 -177q-2 -4 -2 -12zM465 774q0 -16 8 -16q23 0 33 22.5t26 38.5q2 2 3 6q0 6 -3.5 13.5t-3.5 17.5v8q0 14 -10 23.5t-18 9.5q-10 0 -15.5 -11.5t-5.5 -21.5 q0 -12 4 -18t18.5 -5t14.5 -16v-4q0 -8 -5 -11t-12 -5t-14.5 -4t-11.5 -8q-8 -4 -8 -19zM483 1206q8 -8 9.5 -16t1.5 -21q0 -10 1 -20t7 -14h18q35 -1 45 22q2 2 2 6q0 8 -8 13.5t-14 9.5q-4 -6 -13 -6q-12 8 -23 17t-26 9zM496 973q0 -4 1 -13.5t5 -9.5q8 0 10 11.5t2 19.5 q0 23 -16 31q0 -10 -1 -19.5t-1 -19.5zM522 1079q2 0 2 -1t2 -1q4 0 5 5t1 8h-10v-11z" />
<glyph unicode="5" horiz-adv-x="790" d="M61 393q0 8 5.5 16.5t9.5 8.5q31 4 60.5 7t64.5 3h18t19 -2q8 0 8 -8q0 -2 -1 -2t-1 -2v-2q2 -29 2 -58.5t4 -59.5t16.5 -57.5t36.5 -50.5q37 -25 82 -24q18 2 37.5 5t36.5 13q25 12 40 37t19 45q8 41 10 83t2 83q0 129 -26 250q-4 20 -15.5 42.5t-33.5 33.5 q-16 6 -32.5 10t-35.5 4q-18 0 -37 -6q-43 -6 -65.5 -45t-24.5 -78q-23 -6 -41 -6q-16 0 -30.5 2t-30.5 2q-23 0 -43 -6q-2 0 -4 1t-7 1q-12 0 -14 -8q2 12 3 23t1 24q0 23 -2 45t-2 45q0 125 -2 244.5t-2 242.5v97q0 20 29 20q16 2 33.5 2h33.5q59 0 117.5 -3t118.5 -3 q25 0 50.5 1t49.5 3q25 0 49.5 3t50.5 3q16 0 38 -2t26 -24q2 -10 2 -21.5v-24.5q0 -25 -1 -50t-1 -52q0 -6 -7 -11t-13 -5q-12 0 -24.5 -1t-27.5 -1q-51 0 -101 4t-99 4h-24.5t-25.5 -2q-23 -4 -46 -6t-29 -27q-14 -49 -15 -100q0 -25 2 -49.5t7 -49.5q0 -4 1 -5t1 -5 q0 -10 -4.5 -20.5t-4.5 -22.5q63 12 127 12q49 0 94.5 -11t86.5 -44q94 -78 127 -205q10 -68 12 -133t6 -131q0 -20 2 -36.5t2 -35.5v-18t-4 -18q-6 -23 -8 -44.5t-10 -41.5q-10 -25 -20.5 -51.5t-31.5 -45.5q-16 -18 -34.5 -37.5t-47.5 -27.5q-31 -8 -58.5 -20.5 t-59.5 -22.5q-6 -2 -19 -2q-12 0 -24.5 2t-24.5 2q-8 0 -15 -2t-16 -2q-25 0 -47 9t-47 19q-2 2 -4 2q-6 0 -14 -3t-19 -3h-8q-31 12 -53.5 34t-38.5 48q-25 33 -35 69t-15 73.5t-6 77.5t-8 79zM160 1061q0 -6 6 -9t10 -10q-6 0 -6 -6q0 -2 1 -4t1 -6t-2 -8t-2 -8 q0 -6 2 -12.5t2 -14.5q0 -4 -1 -6t-1 -6t6 -4h8q6 0 6 -4l-2 -5q0 -10 -13 -14t-13 -12q0 -2 1 -3t1 -3q8 -6 19.5 -11.5t21.5 -5.5q12 0 18 6q0 4 2 9.5t2 9.5q-4 10 -9 20.5t-9 20.5q0 6 7 13t7 16v2q-10 12 -24 18q-10 4 -11 12q0 10 19.5 21.5t23.5 23.5q2 2 2 11 q0 8 -3 16t-13 8t-12 -12t-8 -19q-10 -6 -21.5 -7t-13.5 -13q0 -2 -2 -4zM162 1266q0 -4 2 -9.5t2 -13.5q0 -4 -2 -8q6 6 12 6t11.5 -4t9.5 -6q6 -10 6 -25q0 -12 -5 -21t-22 -9q4 -2 14 -2q14 0 15 8v24q0 12 -3 24.5t-14 24.5q-8 4 -11 8.5t-7 14.5q-8 -6 -8 -12z" />
<glyph unicode="6" horiz-adv-x="782" d="M61 373q0 20 2 30v9q0 8 7 10q-4 6 -4 20q0 16 8 34t8 34q0 6 -2 10q-4 4 -10.5 9.5t-6.5 9.5q-2 23 -2 45v45q0 72 4.5 140.5t4.5 139.5q0 55 -7 115q12 39 21.5 81t22 82t34 73.5t58.5 56.5q0 -4 -1 -7t-1 -5t2 -5q4 0 6 3q8 0 20 14v8t-4 4h-12q16 8 31.5 15.5 t29.5 11.5q57 14 117 14q63 0 115 -14q39 -10 79 -36t52 -65q6 -18 17.5 -27t11.5 -24q4 -37 13 -74.5t9 -78.5q0 -10 -1 -20.5t-3 -20.5q-4 -4 -5 -11.5t-9 -7.5q-66 -12 -142 -12q-4 0 -6 6t-6 6q2 10 2 20.5v20.5q0 53 -16 115q-4 18 -17.5 35.5t-34.5 25.5 q-16 6 -31.5 10.5t-31.5 4.5q-29 0 -55 -15q-23 -12 -36 -30.5t-19.5 -40t-8.5 -45t-4 -43.5q-2 -10 -2 -19.5v-19.5q0 -20 1 -41t1 -41v-82q0 -14 10 -15q14 0 15 11q0 4 -1 7t-1 7q0 8 8 10q31 6 61.5 10.5t61.5 4.5q63 0 119.5 -22.5t93.5 -82.5q10 -16 23.5 -30.5 t19.5 -28.5q23 -35 30 -71t11 -71v-26q4 -43 7 -88t3 -92q0 -29 -2 -55.5t-4 -53.5q-4 -41 -15.5 -82t-44.5 -69q-20 -18 -38.5 -37t-43.5 -29q-16 -4 -26 -8t-29 -12q-27 -16 -56.5 -21.5t-60.5 -5.5q-10 0 -17 1t-17 1q-51 0 -101 31h-4q-6 0 -15 -4.5t-20 -4.5 q-4 0 -5 1.5t-5 1.5q-45 16 -70.5 47.5t-46.5 66.5q-4 18 -5 37t-5 39q-8 43 -18.5 81t-10.5 79zM250 389.5q0 -20.5 2 -43.5q2 -49 23.5 -100t76.5 -66q23 0 44.5 2t39.5 13q23 8 43.5 24t26.5 43q12 45 12 84q0 29 -6 57q-6 31 -6 64q0 27 2 54.5t2 53.5q0 41 -11.5 77 t-52.5 59q-10 10 -23 12t-28 2q-12 0 -23.5 -1t-21.5 -3q-39 -8 -56.5 -41t-27.5 -74q-4 -4 -6 -7t-8 -3q0 -43 -1 -84t-1 -82v-40.5z" />
<glyph unicode="7" horiz-adv-x="753" d="M61 1198q0 31 4.5 63.5t4.5 67.5q0 8 4 17.5t14 9.5q125 12 254 12h47.5t46.5 -2q57 0 115 3t117 3q6 0 10 -9t8 -13q6 -16 6 -35q0 -16 -3 -33.5t-3 -32.5q0 -31 -2 -58.5t-12 -55.5q-51 -139 -93 -278.5t-80 -279t-76 -279.5t-79 -282q-2 -4 -12 -14q-41 -10 -78 -12 t-74 -6q-8 0 -21.5 4t-13.5 14q-2 8 -2 25q0 29 17 57q8 14 5 32.5t5 35.5q4 14 11 30.5t12 30.5q10 29 19 53.5t15 52.5q8 33 17.5 71t17.5 73q25 61 45.5 121.5t34.5 120.5q12 57 30.5 109t37 104.5t35 104.5t24.5 112q0 16 -23 24q-27 0 -52 -2l-50 -4q-23 0 -47.5 1 t-50.5 1h-25.5t-27.5 -2q-12 -4 -29 -5t-31 -1q-10 0 -26.5 -6t-26.5 -6q-8 0 -10 6q-8 23 -9 57z" />
<glyph unicode="8" horiz-adv-x="794" d="M61 268q4 61 5.5 124t19.5 124q4 12 10 21.5t8 19.5q14 18 27.5 39.5t30.5 34.5q20 16 42.5 26.5t33.5 32.5q4 8 4 10q0 8 -8.5 15.5t-12.5 9.5q-49 16 -76.5 55t-40.5 80q-14 49 -16 95t-2 98q0 4 -10 4q8 39 19 78t20 79q8 35 27.5 65t45.5 50q25 16 47.5 27.5 t47.5 17.5q35 8 77 8h52q43 0 87 -8t81.5 -28.5t64.5 -52t37 -79.5q12 -37 24.5 -70.5t12.5 -68.5q0 -4 -1 -9t-1 -9q-4 -49 -4 -98.5t-13 -98.5q-16 -35 -32.5 -66.5t-46.5 -48.5q-18 -10 -39 -20t-21 -23v-4q2 -18 14.5 -29.5t29 -20.5t33 -19.5t26.5 -26.5 q18 -29 36.5 -54.5t22.5 -58.5q0 -29 5 -54t5 -52q0 -20 -6 -41q-4 -16 -9 -34.5t-5 -39.5q0 -27 10 -41q-12 -6 -12 -18q0 -2 1 -2t1 -2q0 -47 -19.5 -87t-52.5 -70t-74 -48t-84 -23q-23 0 -43 -1t-43 -1q-37 0 -74.5 4.5t-78.5 18.5q-57 23 -95 62.5t-53 101.5 q-8 10 -20 18q-4 25 -9.5 47.5t-5.5 40.5zM262 430.5q0 -8.5 2 -18.5q8 -25 8 -56q0 -16 -1 -33.5t-1 -33.5q0 -14 1 -27.5t5 -28.5q16 -43 56 -57q10 -12 27.5 -19t35.5 -7q16 0 33 6q14 8 25.5 10t21.5 10q33 25 45 63t12 85q0 20 1.5 40.5t1.5 41.5q0 41 -7.5 80.5 t-31.5 76.5q-35 49 -95 49q-41 0 -82 -30q-31 -23 -44 -60t-13 -73v-18.5zM274 1028q0 -23 2.5 -43t6.5 -43q0 -35 13 -68.5t50 -54.5q16 -8 39 -8q14 0 27.5 2t25.5 6q31 10 46.5 31.5t23.5 48.5t9 55.5t1 55.5q0 10 1 19t1 20q0 10 -2 16q-4 33 -8 62.5t-21 58.5 q-14 23 -33.5 31t-41.5 8q-33 0 -72 -17q-12 -4 -24.5 -14t-16.5 -29q-10 -18 -12 -37.5t-6 -42.5q-8 -25 -9 -57z" />
<glyph unicode="9" horiz-adv-x="776" d="M61 870q0 57 6.5 115.5t10.5 114.5q0 6 3 15t3 20q6 35 15.5 66.5t31.5 62.5q23 29 52.5 46t62.5 36q37 29 79 31.5t85 4.5q29 0 53 -14t53 -14q4 0 7 1t7 1h25q47 -12 72.5 -45t42.5 -70q8 -16 9 -36.5t5 -39.5q10 -41 18.5 -76.5t8.5 -76.5v-18.5t-2 -18.5v-2 q0 -2 2 -4q0 -8 -9 -11q1 -4 13 -4q0 -10 -3 -21t-3 -22q0 -16 -6.5 -27.5t-6.5 -25.5q4 -6 11.5 -10t7.5 -8q-4 -74 -3 -152t-10 -149q0 -35 3.5 -67t3.5 -60q0 -27 -7 -58q-8 -41 -15 -82t-19.5 -79.5t-34 -72.5t-58.5 -61q0 4 1.5 8.5t1.5 8.5t-3 4q-10 0 -15 -5t-13 -16 q0 -6 3 -7t19 -1q-20 -6 -35.5 -15t-31.5 -13q-33 -4 -66 -9.5t-65 -5.5q-31 0 -61.5 5t-61.5 20q-14 4 -27.5 12t-27.5 14q-33 18 -49.5 50t-26.5 61q-10 41 -18.5 79t-8.5 79v20t2 21q4 4 6 12t8 8q35 4 73 4t73 2q10 -37 8 -80t14 -82q4 -18 17.5 -33.5t27.5 -23.5 q18 -8 39 -13t41 -5q25 0 44.5 9t29.5 32q25 39 34 81t9 87v33.5t-4 33.5v19q0 14 1 28.5t1 28.5q0 8 -1 21.5t-11 13.5t-10 -10q0 -4 1 -7.5t1 -7.5q0 -8 -7 -10q-25 -4 -52 -5t-54 -1q-6 0 -12.5 -1t-14.5 -1q-25 0 -50 4t-52 10q-90 35 -125 123q-4 10 -13.5 13t-13.5 10 q-23 51 -31 100t-8 108zM221 1001q0 -18 4 -36.5t11 -36.5q4 -16 4 -29q0 -16 -3.5 -34.5t-3.5 -35.5q0 -37 19 -57q10 -14 17 -29.5t15.5 -31t18.5 -28.5t27 -21q20 -6 49 -7q10 0 22.5 1t24.5 3q35 4 54.5 39t25.5 74q4 10 16 10q0 18 2 37t2 35q0 10 -1 18.5t-3 18.5 q0 20 -4 29q-2 10 -2 30q0 16 1 30.5t1 31.5q0 39 -20 65q-2 2 -2 10t3 18.5t3 18.5v4q-8 14 -17.5 24.5t-23.5 23.5q-8 8 -19.5 11t-19.5 3q-10 4 -31 4q-37 0 -62.5 -13.5t-44 -34t-31.5 -47t-24 -50.5q-8 -18 -8 -48z" />
<glyph unicode=":" horiz-adv-x="344" d="M61 94v56q4 10 12.5 19t18.5 13q16 6 31.5 8.5t32.5 2.5q25 0 50 -3.5t50 -7.5q18 0 16 -22.5t2 -40.5q4 -16 6.5 -30.5t2.5 -29.5q0 -14 -2 -20q0 -10 -5.5 -25.5t-19.5 -15.5q-16 -4 -30.5 -5t-30.5 -1q-31 0 -61 4t-62 12q-6 0 -6 6q0 4 1 6.5t1 4.5q-4 16 -5.5 33.5 t-1.5 35.5zM61 811v55q4 10 12.5 19.5t18.5 13.5q16 6 31.5 8t32.5 2q25 0 50 -3t50 -7q18 0 16 -22.5t2 -40.5q4 -16 6.5 -30.5t2.5 -29.5q0 -14 -2 -20q0 -10 -5.5 -25.5t-19.5 -15.5q-31 -6 -61 -6q-31 0 -61 5t-62 11q-6 0 -6 6q0 4 1 6t1 4q-4 16 -5.5 34t-1.5 36z" />
<glyph unicode=";" horiz-adv-x="344" d="M61 94v56q4 10 12.5 19t18.5 13q16 6 31.5 8.5t32.5 2.5q25 0 50 -3.5t50 -7.5q18 0 16 -22.5t2 -40.5q2 -4 2 -23q0 -20 -2 -51t-5 -61.5t-5 -55t-4 -32.5q0 -10 -5 -25.5t-19 -15.5q-25 -6 -48 -7q-6 0 -9 23t-4 49.5t-4 49t-9 22.5q-23 2 -45.5 7t-44.5 9q-6 0 -6 6 q0 4 1 6.5t1 4.5q-4 16 -5.5 33.5t-1.5 35.5zM61 811v55q4 10 12.5 19.5t18.5 13.5q16 6 31.5 8t32.5 2q25 0 50 -3t50 -7q18 0 16 -22.5t2 -40.5q4 -16 6.5 -30.5t2.5 -29.5q0 -14 -2 -20q0 -10 -5.5 -25.5t-19.5 -15.5q-31 -6 -61 -6q-31 0 -61 5t-62 11q-6 0 -6 6 q0 4 1 6t1 4q-4 16 -5.5 34t-1.5 36z" />
<glyph unicode="&#x3c;" horiz-adv-x="616" d="M61 707q0 2 3.5 4t5.5 4q0 6 4 14q6 12 32.5 42t62.5 66.5t79 77.5t81 77t67.5 63t39.5 35q4 4 10 4q10 0 22.5 -13.5t25.5 -23.5q18 -10 26 -15.5t19 -21.5q6 -6 11 -14.5t5 -18.5t-4 -14q-8 -12 -36 -42t-64.5 -67t-79.5 -78t-82 -77q37 -37 79 -80t78.5 -83t64.5 -71 t36 -41q4 -2 4 -8q0 -10 -13.5 -23.5t-23.5 -25.5q-10 -18 -15 -26.5t-22 -18.5q-6 -6 -14 -11.5t-19 -5.5q-10 0 -14 4q-18 12 -65.5 57.5t-102.5 103t-106.5 112.5t-77.5 88q0 2 -1 2t-1 2q-6 6 -10 14z" />
<glyph unicode="=" horiz-adv-x="733" d="M61 532v48q4 10 12.5 19t18.5 13q16 6 69.5 8.5t123.5 2.5q55 0 113.5 -1t109.5 -3.5t88 -3.5t49 -3q18 0 16 -22.5t3 -40.5q4 -16 6 -23.5t2 -17.5q0 -12 -2 -19q0 -10 -5.5 -25t-19.5 -15q-16 -4 -61 -5.5t-105 -1.5q-59 0 -123.5 1t-122 4.5t-101.5 5.5t-60 6 q-6 0 -6 6q0 4 1 6t1 4q-4 16 -5.5 29.5t-1.5 27.5zM61 799v47q4 10 12.5 19t18.5 14q16 6 69.5 8t123.5 2q55 0 113.5 -1t109.5 -3t88 -3t49 -3q18 0 16 -22.5t3 -41.5q4 -16 6 -23.5t2 -17.5q0 -12 -2 -18q0 -10 -5.5 -25.5t-19.5 -15.5q-16 -4 -61 -5t-105 -1 q-59 0 -123.5 1t-122 4t-101.5 5t-60 6q-6 0 -6 6q0 4 1 6t1 4q-4 16 -5.5 29.5t-1.5 28.5z" />
<glyph unicode="&#x3e;" horiz-adv-x="618" d="M61 420q0 8 5 12q8 12 35.5 42t64.5 67t80 77.5t82 77.5q-37 37 -79 80t-79 83t-64.5 71t-35.5 41q-4 8 -4 10q0 10 13 22.5t23 24.5q10 18 15.5 26.5t21.5 18.5q16 16 35 17q8 0 12 -5q18 -12 65.5 -57t103 -102.5t106.5 -112.5t78 -88q0 -2 1 -2t1 -2q6 -6 11 -13.5 t5 -9.5q0 2 -10 -8q0 -6 -4 -14q-10 -18 -61.5 -72.5t-113 -115t-117 -111t-71.5 -62.5q-4 -4 -8 -4q-10 0 -23.5 13.5t-25.5 23.5q-18 10 -26.5 15.5t-18.5 21.5q-16 16 -17 35z" />
<glyph unicode="?" horiz-adv-x="718" d="M61 1087q0 47 30 95.5t75 86.5t99 62.5t104 24.5q70 0 123 -25.5t89.5 -68.5t56 -97.5t19.5 -111.5q0 -104 -37.5 -183t-86 -155t-93.5 -158t-59 -190q-2 -12 -8 -27.5t-23 -15.5q-29 0 -51.5 1t-22.5 13v41q0 92 33 182t73 173t73.5 156t33.5 130q0 47 -31.5 84.5 t-109.5 66.5q-29 -12 -50.5 -31.5t-39.5 -44t-33.5 -51t-31.5 -49.5q-2 -2 -13 -2q-12 0 -16 2q-14 10 -32.5 19.5t-34 19.5t-26 22.5t-10.5 30.5zM213 94v56q12 31 41 37t53 6q27 0 51.5 -3.5t49.5 -7.5q6 0 12 -10t10 -24.5t6 -31t2 -26.5q0 -39 -7 -58.5t-19.5 -28.5 t-29.5 -10t-38 -1q-10 0 -30.5 2t-42 5t-38 7t-16.5 8t1 6.5t1 4.5q-4 16 -5 33.5t-1 35.5zM373 1208q0 -6 6 -12h9t9 4q6 6 6 19q0 18 -12 18q-4 0 -11 -9t-7 -20z" />
<glyph unicode="@" horiz-adv-x="1511" d="M43 686q0 170 56.5 303t151.5 227.5t222 146.5t270 62q39 0 67 -1t52.5 -4t49 -7t61.5 -10q86 -33 158.5 -73t132.5 -116l-9 5q-6 -4 -6 -11q0 -16 15 -26q8 0 13 1t5 11q10 -18 25.5 -34.5t30 -34t24.5 -35t10 -35.5q6 -31 13.5 -47.5t23.5 -38.5q-4 0 -4 -6.5v-12.5 q31 -51 43 -115.5t12 -123.5q0 -154 -47 -291t-138 -239.5t-222 -162t-297 -59.5q-139 0 -278.5 53.5t-248.5 151.5q-96 100 -141 241.5t-45 280.5zM151.5 720q-4.5 -56 12.5 -104q-4 -14 -8 -14q10 -23 12 -37t0 -41q-4 -16 0 -32.5t12 -34t17.5 -33.5t13.5 -33q2 10 18 6 q4 -4 6.5 -12t0.5 -12q0 -6 -9 -6l-4 6q33 -76 84.5 -124t114.5 -93q27 -12 47 -20.5t38.5 -16.5t41 -14.5t55.5 -14.5q119 -23 233.5 -6.5t212 74t171 154t108.5 235.5q29 115 23 238.5t-66 228.5q-68 102 -170 175t-217 101q-135 35 -255 13.5t-215 -86t-161.5 -167 t-99.5 -227.5q-12 -47 -16.5 -103zM338 317q0 4 5 11.5t3 19.5q0 33 18.5 57.5t18.5 59.5q23 0 27 6q0 10 -3.5 12t-11.5 2q23 53 43.5 111.5t34.5 120.5q16 72 42 137.5t42 142.5q14 8 18.5 18.5t2 21t-6.5 19.5t-4 15q0 2 14.5 7t10.5 9q12 6 9 20.5t7 18.5 q16 10 20.5 23.5t24.5 13.5q8 0 19.5 -4t11.5 -8t-1 -9t-1 -18q0 -4 -6 -4q-2 0 4 2t12 5t11.5 5.5t3.5 2.5v6q0 -4 10 -4q8 0 15 9t7 19q0 2 -6 9q16 4 24.5 9t8.5 21q8 -6 8 -8q0 -6 -4 -13t-4 -14q2 -14 17.5 -12t15.5 -6q2 -10 -2 -19.5t-7.5 -16.5t-3.5 -12t7 -5 q18 0 26 2q0 4 7.5 13t7.5 13q0 6 -3.5 9.5t-3.5 5.5t6.5 -6.5t14.5 -19.5t15 -19l7 -9q0 4 9.5 14.5t5.5 10.5q4 0 4 -7t0 -3q-4 10 1 13t-1 7q0 -6 -12 -6q-6 4 -7.5 12.5t-1.5 14.5l-14 12q-8 0 -10 2q6 2 11 4t9 2t8 -2q6 0 11.5 -7t10.5 -17.5t9 -20.5t6 -14 q39 -86 70 -169t59 -175q12 -29 25.5 -57.5t21.5 -57.5v-27q0 -4 5 -4l2 -2q2 0 8 6v-4q0 -8 -2 -15t-2 -11v-4q-8 -8 -5 -14.5t5 -14.5q0 -6 4 -6t8 3t8 3t7 -8t3 -10q0 -10 -8 -21q2 0 4 -2v-2l-4 4q-4 4 -21.5 13.5t-27.5 9.5q-6 0 -6 -11q0 -14 12 -20q-4 0 -6 2t-6 2 q-6 0 -10 -8q0 -4 5 -8.5t5 -8.5q0 -2 -2 -6q6 -10 19.5 -13t21.5 -3q0 -2 -1 -4t-1 -10q0 -14 10 -20.5t18 -14.5q-6 0 -6 -2v-19q-14 -10 -33.5 -11t-29.5 -17q-8 0 -10 4q2 0 6 1t4 5q-4 12 -21 12q-6 0 -8 -6l4 -6q-6 0 -12 -3t-6 -7q4 -8 20 -9q-4 -12 -9 -19t-5 -11 q0 -2 2 -4q25 -14 51 -15q20 0 40 6t40 15l2 -25h-16q-23 0 -48.5 -4t-50.5 -4q-23 0 -42 7t-35 26q-12 16 -19.5 41.5t-30.5 36.5q-25 10 -52 15t-54 5q-35 0 -73 -5t-72 -7q-10 0 -22.5 -2t-20.5 -13q0 12 -11 13q-2 0 -7 -7.5t-5 -11.5t7 -4h9q-6 -10 -10 -24.5t-9 -27.5 t-13.5 -22.5t-22.5 -9.5q-29 -2 -58.5 -5t-58.5 -3q-27 0 -52 4t-50 14zM666 643q2 -16 6 -30.5t18 -20.5q-2 -6 -2 -14q0 -6 8 -7q4 0 4 11q47 -10 88 -11q16 0 32 4.5t32 6.5q29 6 25 34q0 20 -6.5 35t-10.5 33q-16 29 -28.5 58.5t-18.5 60.5q-2 25 -11 46t-14 46 q0 8 -9 16.5t-17 10.5q-10 0 -25.5 -30t-29 -72t-24.5 -87t-15 -71q0 -4 -1 -9.5t-1 -9.5z" />
<glyph unicode="A" d="M70 29q2 53 13 109.5t21 109.5q0 35 5.5 63.5t9.5 63.5q2 92 15 185t28 188q16 129 35.5 249.5t31.5 247.5q4 25 11.5 50.5t17.5 47.5q4 6 12.5 15.5t18.5 13.5q4 2 10 2q18 0 34.5 -4t33.5 -8q10 -2 30 -2q18 0 38 3t38 3q6 0 11 -1t12 1q18 -4 24 -16.5t6 -28.5 q0 -14 -2 -27.5t0 -25.5q10 -43 19.5 -83t11.5 -81v-24.5t-2 -24.5q-2 -4 -11.5 -9.5t-13.5 -13.5q2 -12 11.5 -28.5t25.5 -20.5q-2 0 6 8q16 -102 24.5 -201.5t29.5 -203.5q10 -51 15 -99.5t22 -97.5q6 -35 6 -67.5t4 -67.5q10 -53 22.5 -105.5t14.5 -105.5v-18 q-4 -12 -12.5 -20.5t-16.5 -12.5q-6 -2 -21 -2q-20 0 -42.5 3t-43.5 3q-16 -2 -35.5 2t-19.5 27q-4 35 -5 69.5t-11 67.5q-4 12 -15.5 25.5t-25.5 13.5q-23 2 -44.5 4t-43.5 2q-25 -2 -47.5 -6t-42.5 -19q-23 -12 -25 -36.5t-6 -47.5q-8 -14 -4 -34.5t-8 -30.5 q-35 -29 -82 -29h-11q-41 0 -77 25zM156 129q0 -4 15 -4h22q10 10 14 26.5t12 30.5q6 8 2 19q0 25 -24 37q-4 -2 -10.5 -3.5t-6.5 -5.5q-2 -8 1 -14t3 -10v-6q2 -16 -7 -32.5t-19 -35.5q-2 0 -2 -2zM188 86q8 0 9 4l-4 2v4q-2 -2 0 -4q0 -2 -3 -4zM199 373q0 -6 12 -6 q12 18 35 22q4 2 3 10.5t1 12.5q-2 -10 -9.5 -14.5t-15.5 -7.5l-16 -6t-10 -11zM242 793q0 -4 3 -5.5t3 -5.5q0 4 1 4t1 2q0 4 -8 5zM260 682l4 2q2 2 5 3t3 5l-2 2q-2 0 -4 2v-10l-2 -2q-2 0 -4 -2zM299 1149q0 -10 4 -19.5t14 -13.5q6 0 13.5 -2t13.5 0q10 0 16.5 10.5 t14.5 14.5q16 4 34.5 9t16.5 26v4q-4 -4 -12 -4q-10 0 -19.5 6t-19.5 6q-4 2 -17 2q-10 0 -24.5 -4t-24.5 -8q-10 -6 -10 -27zM305 416q0 -8 10 -19q18 -4 38 -6t38 -4q16 2 32.5 7t27.5 18v16q-4 66 -15.5 132.5t-13.5 135.5q-2 41 -5 80t-14 80q-6 35 -7 68.5t-21 66.5 q-10 -88 -21.5 -174t-23.5 -176q-4 -45 -9.5 -88t-9.5 -88q2 -10 -1 -20.5t-3 -20.5q-2 -2 -2 -8zM361 1254q0 -5 4 -5q8 0 8 11l-2 2q-2 0 -4.5 1t-4.5 1zM514 412q2 -6 6 -16.5t10 -12.5q14 0 11 18v27q0 4 -11 4q-16 -2 -16 -20zM578 207q0 -2 3 -9.5t7 -7.5t7 8.5 t9 10.5h17q4 4 5 7t3 7q0 20 -17 21q-10 -2 -21 -13.5t-13 -23.5z" />
<glyph unicode="B" horiz-adv-x="786" d="M61 33q0 66 3.5 129t3.5 127q0 209 4 412.5t4 410.5v117.5t-2 118.5q0 14 14 14q16 2 34.5 3t35.5 1q37 0 73.5 -2t71.5 -2h33q27 0 53.5 2t52.5 2h26.5t25.5 -4q39 -10 73.5 -30.5t61.5 -57.5q43 -61 60.5 -131t17.5 -142q0 -23 -1 -43t-1 -38q-8 -16 -14.5 -36 t-10.5 -42q-4 -14 -12.5 -28.5t-18.5 -27.5q-8 -16 -21.5 -25t-27.5 -16.5t-28.5 -16.5t-22.5 -21v-5q0 -10 7 -15t11 -13q88 -53 123 -133t35 -172q0 -49 -8.5 -98.5t-22.5 -96.5q-14 -55 -49 -96t-90 -64q-6 -2 -16 -2q-8 0 -16.5 1t-16.5 1q-4 0 -6 1t-4 1 q-25 0 -47.5 -10t-49.5 -10q-10 0 -16 2q-29 4 -56.5 6t-56.5 2q-25 0 -49 -1t-49 -1q-20 0 -40.5 1t-43.5 3q-6 4 -14 10.5t-13 14.5zM117 915q0 -16 1 -30.5t3 -30.5q2 -8 8 -8q4 0 11 4t12 4q16 -8 16 -29q0 -4 -3 -8t-7 -4t-10.5 6t-12.5 6q-2 0 -2 -1t-2 -1 q-12 -4 -12 -20q0 -2 1 -3t1 -3q16 -20 14 -36t2 -34q4 -6 5 -15.5t10 -9.5q8 4 17 5.5t9 5.5q27 33 27 73q0 18 -6 37q-2 10 -7.5 23.5t-5.5 23.5q0 8 4 17q12 25 13 47q0 10 -2 20.5t-6 20.5v4q0 6 5 12t5 17q0 16 2 32.5t2 32.5q0 33 -14 47q-8 -12 -10.5 -21t-8.5 -18 q-8 -4 -17 -3t-18 -7v-14q8 -16 21.5 -18.5t27.5 -2.5q4 0 5 -8q-12 -23 -35 -26t-33 -23q-6 -16 -8 -31.5t-2 -32.5zM135 336q0 -12 10 -27h15q10 0 20 9.5t10 19.5t-11 16t-19 6t-16.5 -6t-8.5 -18zM141 639h17q12 0 14 4q0 4 -6 9t-10 5h-15v-18zM141 1217q8 -6 7 -16.5 t4 -16.5q6 -8 18 -8t14 6t2 14q0 12 -4 25.5t-6 29.5q-4 8 -12 15.5t-12 17.5q-10 -6 -11 -16q0 -6 2 -13.5t2 -13.5t-2 -10t-2 -8v-6zM176 168q0 -4 2 -4q4 0 8 3t9 3q8 0 10 7t6 11q2 2 2 5q0 6 -8 6q-14 0 -21.5 -10.5t-7.5 -20.5zM254 334q0 -35 4 -63.5t8 -61.5 q4 -8 9.5 -15.5t13.5 -11.5q33 -6 69 -6q43 0 82 13.5t66 52.5q20 25 27.5 52.5t7.5 55.5q0 31 -5.5 63.5t-7.5 65.5q0 35 -14 70t-49 61q-20 14 -39.5 19.5t-40.5 5.5q-23 0 -45.5 -3t-44.5 -3q-2 -4 -10.5 -5t-12.5 -8q-10 -31 -12 -61.5t-2 -58.5v-56q0 -27 -2 -53.5 t-2 -52.5zM264 1010q0 -19 2 -35q2 -10 2 -31q0 -16 -1 -32.5t-1 -32.5q0 -29 6 -56q4 -8 11.5 -14t11.5 -6q23 1 46 1h23h7q31 0 61 9q23 8 40 24.5t28 34.5q16 33 19 69t3 73q0 41 -10 85t-51 64q-10 6 -28.5 11.5t-33.5 5.5q-14 0 -25.5 -2t-23.5 -2q-14 0 -22 2 q-6 2 -17 2q-22 -1 -28 -17q-10 -29 -14.5 -58.5t-4.5 -57.5v-37zM575 1071q0 -12 7 -31h12q0 6 -1 12.5t-1 10.5q0 6 2 8q4 6 7 12.5t3 14.5q0 14 -12 14q-4 0 -6 -1t-4 -1v-4q0 -2 2 -2q0 -2 -2 -4q-6 -12 -7 -29zM614 938q0 -8 9 -14q4 0 11 4t7 12q0 4 1 5t1 5t-6 8 q-2 0 -4 1.5t-6 1.5q-9 -1 -11 -7q0 -4 -1 -8t-1 -8z" />
<glyph unicode="C" horiz-adv-x="792" d="M63 641v92t1.5 59.5t2.5 43t2 42t3 58.5t4 92q4 57 20.5 117.5t48.5 116.5q33 53 80 81q16 8 30.5 14.5t31.5 10.5q55 14 116 14q63 0 115 -14q35 -8 66.5 -26.5t54.5 -53.5q12 -20 24.5 -37.5t16.5 -40.5q8 -41 16.5 -78.5t8.5 -78.5v-19.5t-3 -19.5q-4 -4 -5 -12.5 t-9 -8.5q-37 -4 -73.5 -6t-71.5 -2q-4 0 -5 4t-12 4q6 25 6 47q0 29 -5 56.5t-11 56.5q-4 18 -19.5 35.5t-37.5 28.5q-31 12 -66 12q-29 0 -56.5 -12.5t-43.5 -42.5q-8 -23 -10 -46.5t-11 -46.5q-4 -12 -4 -23v-24q0 -25 2 -49t2 -49v-21q-6 -152 -6 -305q-12 0 -24 -12 q-7 -6 -9 -10q0 -4 2.5 -6t-2.5 -7q-8 -4 -16 -4t-12 -4l-4 -8q-4 -23 -12.5 -43t-16.5 -41q6 -6 6 -8q16 0 23 10q10 8 7 20.5t-1 16.5q0 12 2 16q8 4 14 2q-4 10 6 27l7 4q6 4 13 8t12 6.5t5 0.5q-1 -47 -1 -94v-46q1 -70 1 -139v-18q0 -33 13.5 -64t46.5 -43 q20 -10 38.5 -20.5t41.5 -10.5h10q16 4 29.5 9.5t29.5 11.5q14 14 28.5 29.5t18.5 27.5q16 23 14.5 48.5t6.5 52.5q2 4 2 14q0 12 -3 25.5t-3 23.5q0 14 10 21q20 14 45 14q27 0 52.5 -8.5t53.5 -8.5q12 0 19 3q4 0 4 -3q0 -4 -1 -6t-1 -4q8 -33 8 -74v-15q0 -28 -5 -54 q-7 -34 -17 -68q-6 -29 -15.5 -57.5t-32.5 -52.5q-23 -23 -47 -38.5t-49 -29.5q-29 -10 -57.5 -12t-59.5 -2h-53q-12 -2 -23.5 -3t-21.5 -1q-31 0 -57 6q-29 12 -55.5 22.5t-57.5 24.5q-29 14 -43 42t-29 56q-16 37 -20 58.5t-4 62.5q0 12 1 23.5t3 21.5q0 6 -10 14.5 t-10 18.5t10 17t12 24q2 2 6 2t9.5 -1t9.5 -1q8 0 10 8q0 4 1 10t1 13q0 14 -8 14q-6 0 -12.5 -2t-12.5 -2t-6 6q-12 55 -17.5 109.5t-5.5 107.5zM156 289h12q8 0 10 4v4q0 14 -16 14q-7 0 -7 -6zM160 395q0 -6 1 -16t7 -10q4 0 6 2q10 12 20.5 22t10.5 27v6q-4 -4 -11.5 -8 t-11.5 -8t-13 -7.5t-9 -7.5zM166 997q0 -8 4 -8t6 2q2 0 2 2q0 10 4 11q0 4 -8 4q-4 -4 -8 -11zM174 717q0 -8 6 -14.5t10 -10.5h11h18t14 -8q6 8 7 16q0 14 -11 21q-10 12 -24 12q-6 0 -12.5 -2t-12.5 -4q-6 -4 -6 -10z" />
<glyph unicode="D" horiz-adv-x="837" d="M61 1313q0 29 19.5 50t48.5 21q8 0 21 -4q41 -14 87 -18t93 -4h102h43q51 -4 99.5 -23.5t84.5 -60.5q53 -51 77 -120t24 -142q4 -47 10 -93.5t6 -93.5v-26q-4 -20 -7 -40t-3 -40q0 -10 1 -18.5t3 -18.5v-23q0 -23 1 -45t1 -45v-21t-2 -22q-8 -57 -12 -112.5t-8 -112.5 q0 -59 -15.5 -116.5t-50.5 -106.5q-12 -20 -31.5 -34.5t-38.5 -31.5q-29 -14 -58.5 -19t-61.5 -5q-78 -4 -151 -4h-148h-21h-31q-12 0 -25.5 2t-27.5 8q-6 6 -12 14t-6 19q0 74 4 145.5t4 142.5q0 31 -2 63t-2 62q0 41 2 80t2 80q0 29 -2 57.5t-2 57.5q0 41 2 81t2 81 q0 12 -1 24t-1 25q0 14 2 28.5t2 28.5q-2 12 -2 24.5v24.5q0 33 2 63.5t2 63.5v20.5t-2 20.5q-4 31 -12.5 57.5t-8.5 55.5zM154 350q4 2 8 2t7 -2t9 -2q14 0 22.5 9.5t8.5 21.5q0 10 -6 16h-8q-6 -29 -31 -28q-4 0 -5 1t-5 1v-19zM266 965q0 -10 2 -23.5t2 -26.5v-24 q0 -29 2 -55.5t2 -53.5q0 -14 -1 -26.5t-3 -24.5q0 -260 19 -526q0 -6 9 -13.5t19 -7.5h62t59 4h17q23 4 41 12.5t39 20.5q20 23 24 49.5t8 51.5q4 23 4 45v45q6 55 6 112q0 20 -1 42q-1 20 -1 40q0 58 7 115q0 16 -15.5 27.5t-15.5 29.5q0 12 10 11t14 4q8 23 21 34 q0 2 2 2q4 0 7 -4t7 -4h2q0 10 2 14.5t2 12.5q-8 -4 -14 -4q-14 0 -25.5 9t-11.5 24q-4 35 -4 73.5t-5 75.5t-21.5 67.5t-53.5 49.5q-20 14 -39 14q-33 4 -63.5 9t-61.5 5q-10 0 -21.5 -1t-21.5 -3q-8 -35 -8 -77q0 -16 1 -34t1 -34v-28.5t-4 -28.5z" />
<glyph unicode="E" horiz-adv-x="774" d="M61 1294q0 16 11.5 35t33.5 19q92 4 184.5 7t186.5 7q31 2 61.5 6t59.5 4q16 0 30.5 -2t26.5 -8q23 -12 29 -37t6 -53q0 -16 -1 -31.5t-1 -30.5q0 -8 -7 -14t-15 -8q-33 -4 -65 -4h-66q-41 0 -83 1t-85 1q-16 0 -34 -1t-34 -1q-18 -4 -26.5 -19.5t-8.5 -31.5 q0 -47 -1 -95.5t-1 -95.5q0 -74 6 -143q8 -18 23 -23q29 -14 61 -14q18 0 38 2t38 2q10 0 20.5 -1t20.5 -1q23 0 43 3t43 3q8 0 16.5 -1t18.5 -3q2 -29 6 -55.5t4 -55.5q0 -25 -6 -51q-4 -6 -9 -8t-7 -6q-37 -6 -72 -6t-70 3t-69 3q-16 0 -34 -1t-34 -5q-16 0 -20.5 -13.5 t-4.5 -23.5q-2 -41 -3 -84t-1 -84q0 -43 1 -85t3 -83q4 -8 6.5 -18.5t12.5 -14.5q47 -2 92 -4t90 -2q98 0 201 12q4 0 11 -4t9 -8q6 -23 11.5 -45.5t5.5 -44.5q0 -35 -19 -74q-2 -4 -4 -6q-4 -4 -8 -4q-14 -2 -27.5 -2h-27.5q-47 0 -96.5 4t-96.5 4q-53 0 -108.5 -4 t-110.5 -4h-28.5t-28.5 2q-16 0 -40 3t-28 26q-8 47 -10 90t-2 86q0 57 2 112.5t2 114.5q0 45 -3 91t-3 93q0 29 1 56.5t1 54.5v30.5t-2 30.5q0 41 -2 84t-2 84q4 43 4 85v85q-4 45 -9.5 85t-5.5 85zM190 557q0 -2 3.5 -2t3.5 -4q0 2 2 2q0 4 -3 2t-3 6q-2 -2 -3 -4z M449 1245q2 -6 10 -6q4 0 8 1t8 1q0 12 -2 12t-2 -6q0 -4 -2 -6q-6 4 -20 4zM467 94q0 -14 10 -28h15q12 0 21 11t9 19v4q-10 18 -28 19q-17 -1 -25 -15q-2 -4 -2 -10z" />
<glyph unicode="F" horiz-adv-x="739" d="M61 33q0 190 3.5 380.5t3.5 379.5q0 139 -3.5 271t-3.5 269q0 10 10.5 14.5t22.5 4.5q16 2 33.5 2h34.5q59 0 120.5 -3t120.5 -3q25 0 50.5 1t50.5 3q29 0 53.5 3t50.5 3q18 0 41 -1t27 -24q2 -12 2 -24.5v-24.5q0 -27 -1 -52.5t-1 -47.5q0 -10 -9.5 -15.5t-15.5 -5.5 h-41q-51 0 -101 4t-101 4q-16 0 -32 -1t-32 -3q-20 -4 -47 -6t-31 -28q-6 -29 -8 -56.5t-2 -56.5q0 -47 3 -93t3 -93v-21q0 -10 2 -19.5t8 -11.5q25 -14 49.5 -19t53.5 -5q33 0 65.5 4t63.5 4q4 0 9 -1t11 -1q8 0 19 6h18t12 -4q14 -16 15 -39q0 -16 -4 -31.5t-6 -31.5 q0 -14 5 -28.5t5 -29.5q0 -10 -10 -24q-8 -12 -19 -13q-41 0 -84 3t-84 3q-45 0 -84 -6q-16 0 -28.5 -9t-12.5 -23q3 -67 3 -135v-34v-19q0 -76 7 -152q2 -10 3 -31q0 -35 -7 -72q0 -16 3.5 -35.5t11.5 -35.5q0 -4 1 -7.5t1 -7.5q0 -6 -6 -8q-33 -16 -72 -16q-16 0 -32.5 1 t-33.5 1h-16t-18 -2q-2 0 -4.5 -1t-4.5 -1q-16 0 -28.5 15t-12.5 36zM78 145q0 -6 6 -6q14 0 16 4q6 6 6 13q0 4 -3 8t-9 4q-8 0 -10 -6t-6 -8v-9zM111 184l6 4l-6 5v-9zM130 283q0 -8 7 -11q0 4 -2 6.5t-2 6.5v16q0 -4 -1.5 -9t-1.5 -9zM130 375q0 -16 13 -23.5t17 -13.5 q12 -12 12 -21q0 -10 -12 -16q23 -8 30 -29v-2q0 -10 -15 -13t-15 -17v-9q0 -12 3 -22t3 -21q0 -8 7 -14t17 -6q14 0 19.5 12.5t5.5 28.5q0 12 -2 18q-4 4 -8 6.5t-4 6.5q4 12 12 20t8 19q0 2 -4 10q-20 29 -31.5 58.5t-25.5 58.5h-15q-15 -14 -15 -31z" />
<glyph unicode="G" horiz-adv-x="808" d="M61 645q0 35 1 72t4 71q3 54 3 110v28v8q0 65 15 133q4 29 9 56.5t13 56.5q20 66 69.5 105.5t109.5 68.5q29 14 56.5 17t55.5 3q29 0 56.5 -2t56.5 -2h10q18 0 40 -7t40 -17q27 -20 46.5 -43t41.5 -46q37 -37 47 -84t10 -94q0 -23 -1 -45t-1 -45q0 -8 -12 -8 q-23 0 -46 -1t-46 -1q-20 0 -40.5 2t-41.5 8v25v55q0 20 -2 38.5t-12 37.5q-16 37 -49 60.5t-74 23.5h-8q-45 -8 -84 -39t-43 -78q-2 -29 -4 -54.5t-2 -53.5q0 -12 1 -23.5t1 -24.5v-102v-145v-68t-5 -68v-10q0 -12 2.5 -24.5t2.5 -24.5q-2 -35 -3.5 -67.5t-1.5 -67.5 t2.5 -67.5t6.5 -67.5q4 -20 11 -37t19 -39q37 -39 91 -39q8 0 16 -1t18 -1t17 2q10 0 18 7t19 11q33 12 49 43q12 39 23.5 83t11.5 85q0 35 -12.5 67t-43.5 54q-2 2 -6 2q-8 0 -18.5 -5t-20.5 -5q-6 0 -12 6q-10 12 -14.5 28.5t-4.5 33.5q0 16 2.5 34.5t2.5 34.5 q0 10 8 12.5t16 6.5q2 0 3 1t3 1q10 0 16.5 -4t16.5 -4q2 2 8 2q4 0 9.5 -1t11.5 -1h6q12 4 24.5 4h26.5q16 0 34.5 -1t37.5 -1q12 0 24.5 1t24.5 3q8 0 15 -6.5t7 -12.5q2 -72 3.5 -146.5t1.5 -148.5t-1.5 -147.5t-3.5 -147.5q0 -4 -2 -17t-14 -19q-16 -4 -25 -5 q-16 0 -33.5 3.5t-33.5 3.5q-18 4 -21.5 24.5t-17.5 30.5q-10 6 -16 6q-8 0 -14.5 -5t-12.5 -9q-27 -23 -50.5 -38.5t-51.5 -15.5q-41 -6 -82 -6q-35 0 -70 5.5t-66 19.5q-41 14 -72.5 42t-43.5 68q-16 37 -26.5 76t-10.5 80q0 12 1 23.5t3 21.5q0 6 -10.5 14.5t-10.5 18.5 t10.5 17.5t12.5 23.5q2 2 6 2t9 -1t10 -1q8 0 10 8q0 4 1 10.5t1 12.5q0 14 -8 14q-6 0 -12.5 -2t-12.5 -2t-6 6q-12 55 -17.5 109.5t-5.5 107.5zM309 49q12 -12 39 -12q14 0 24.5 6t10.5 18q0 8 -6 9q-6 0 -17.5 -8.5t-19.5 -12.5q-4 -2 -8 -2t-9.5 1t-13.5 1zM578 514 q0 -12 16 -20.5t33 -22.5q6 -6 28 -6h19q16 12 20 27v4q0 8 -7 11t-13 7q-4 -4 -15 -4q-14 10 -31.5 20.5t-29.5 10.5q-18 0 -20 -23v-4zM582 117q10 -8 12 -17.5t6 -9.5q23 0 36 23t23 39q4 12 5 20q0 18 -9.5 35.5t-29.5 17.5q-6 0 -11 -2q-8 -4 -15 -13t-7 -20 q0 -12 8 -15t17.5 -5t17.5 -4t8 -10v-4q0 -12 -11 -17.5t-28 -5.5q-6 0 -10 -6t-12 -6zM639 420q0 -8 8 -6t12 -6q2 -2 5 -2q6 0 6 8v10q-12 8 -21 8q-10 0 -10 -12z" />
<glyph unicode="H" horiz-adv-x="804" d="M61 729q0 6 5.5 13.5t5.5 15.5q-2 59 -4 120.5t-2 120.5q0 37 1 74t1 72q0 51 -3.5 99t-3.5 102q0 10 12.5 17t18.5 7q23 4 45.5 7t44.5 3q20 0 39 -4t35 -16q25 -16 25 -53q0 -14 -2.5 -29.5t-2.5 -32.5v-12q6 -23 7 -43q0 -20 -3.5 -41t-3.5 -43q0 -27 -1 -53.5 t-1 -55.5v-27.5t2 -25.5v-43q0 -23 2.5 -46.5t12.5 -43.5q6 -14 23.5 -24.5t37.5 -10.5q4 0 6 1t7 1q10 2 30 2q18 0 37 -1t37 -1q16 0 32.5 2t33.5 13q-2 59 -3.5 116.5t-1.5 116.5v117.5t5 118.5q2 27 5 53t19 49h19q20 0 38.5 1t36.5 1q20 0 39 -3t35 -13q6 -53 8 -104.5 t2 -104.5v-125v-84q0 -70 3 -138.5t3 -138.5q0 -72 -6 -141v-252t6 -248q0 -6 -9 -16t-15 -14q-8 -2 -25 -2q-23 0 -47 3t-47 3q-10 0 -20.5 -1t-20.5 -3q0 10 -8 9t-8 7q-4 47 -6 91t-2 89q0 53 1 103.5t1 101.5q0 27 1 53.5t1 53.5v26t-2 27q-2 16 -13.5 27.5t-25.5 11.5 q-2 0 -4 -1t-5 -1q-8 -2 -28 -2q-16 0 -33.5 2t-36.5 2q-33 0 -55 -11q-10 0 -20.5 -4t-14.5 -10q-14 -35 -16 -67.5t-2 -67.5q4 -61 6 -121.5t2 -120.5q0 -23 -1 -42t-1 -40q0 -12 2 -26.5t2 -28.5q0 -29 -17 -39q-23 -20 -59 -20q-25 0 -52.5 5t-55.5 5h-13q-4 0 -16 9 t-12 20q2 98 5 194t3 195q0 59 -2 117.5t-6 117.5q0 20 -1 41t-6 39zM596 100q0 -2 2 -4h8q4 4 8 7t4 10q0 10 -12 10q0 -6 -4 -10q-2 -4 -4 -6.5t-2 -6.5zM641 188q0 -12 4 -20q4 10 7 18.5t7 18.5q4 6 13.5 5t9.5 3t-7 9t-18 5q-6 0 -8 -4q-2 -8 -5 -16t-3 -19zM651 86 q0 -8 5.5 -18.5t9.5 -22.5q0 -2 2 -2q4 0 7 4t5 6q4 8 4 25q0 22 -11 22h-1q-4 0 -12.5 -4t-8.5 -10z" />
<glyph unicode="I" horiz-adv-x="339" d="M61 879q6 74 7 149q0 76 -3.5 150.5t-3.5 150.5q0 16 5.5 30.5t19.5 14.5q23 2 45.5 5t44.5 3q18 0 35.5 -4t34.5 -14q18 -10 22 -26.5t4 -37.5v-28q-10 -16 -10 -25q7 -71 7 -140v-17v-32q0 -62 3 -126q0 -70 1 -138.5t1 -138.5v-70.5t-2 -70.5q0 -14 -1 -28.5t-1 -28.5 q0 -59 4.5 -106.5t4.5 -106.5q0 -35 -1.5 -70t-1.5 -70v-34.5t3 -34.5q0 -6 -9.5 -16.5t-17.5 -14.5q-8 -2 -25 -2q-23 0 -46 3t-46 3q-10 0 -21.5 -1t-21.5 -3q0 10 -6 9t-6 7q-6 41 -8 83t-2 83q0 55 2 100.5t2 98.5v47q2 10 2 19.5v19.5q0 41 -3 80t-3 78q0 18 1 35.5 t3 33.5q0 16 2 31.5t2 32.5q0 11 -4 31q-4 23 -8.5 43t-4.5 43zM162 672q8 0 16 8v9t-4 5q-8 0 -9 -5t-1 -9t-1 -4t-1 -4z" />
<glyph unicode="J" horiz-adv-x="792" d="M61 428q31 0 63 3t62 3q20 0 40 -2t38 -8q10 -6 10 -23q0 -12 -3 -26.5t-3 -28.5q4 -23 7.5 -42t3.5 -40q-2 -6 -3 -16q0 -10 2.5 -17.5t4.5 -17.5q16 -23 34.5 -42t44.5 -24q6 0 12.5 -1t12.5 -1q31 0 57.5 11.5t47.5 40.5q10 16 18 34.5t18 36.5q8 25 8.5 54.5 t0.5 58.5q2 29 6 60.5t4 64.5q0 6 -1 12t-1 12q-6 49 -6 99v33q0 29 -1 57.5t-1 58.5q0 29 2 59.5t6 61.5q0 29 1 59.5t1 59.5q0 90 -4 177t-4 179q0 4 6 8t10 4q31 6 63 7q41 0 82 -7q14 -4 22.5 -15t8.5 -25q-4 -12 -8 -23.5t-4 -22.5q8 -23 8 -51q0 -12 -1 -24.5 t-1 -24.5v-84q0 -150 -3 -299t-3 -301v-119q2 -12 2 -24.5v-26.5q0 -31 -2 -61.5t-6 -61.5q-4 -10 -6 -19t-11 -20q-12 -12 -14 -30.5t-10 -36.5q-37 -61 -92 -95.5t-121 -44.5q-31 -6 -62 -6q-43 0 -84 9.5t-82 25.5q-39 14 -66.5 42t-47 63.5t-30.5 75.5t-17 81 q-5 35 -5 69v11v13q0 33 -4 67z" />
<glyph unicode="K" horiz-adv-x="757" d="M61 850q4 14 7.5 28.5t3.5 28.5q2 16 2 30.5v31.5q0 31 -1 60.5t-1 62.5q0 63 -3 122.5t-3 120.5q0 10 5 24.5t19 18.5q14 2 27.5 2h25.5q23 0 44.5 -2t39.5 -8q29 -10 32 -47t3 -66q-12 0 -12 -4q4 -20 4 -40.5v-41.5v-84q0 -27 2 -52t6 -54q0 -14 2 -31.5t2 -34.5 q-8 -16 -8 -38q0 -10 4 -31v-6q0 -14 -4 -26.5t-4 -22.5q0 -14 12 -29q20 25 33.5 51.5t23 55t16.5 56t17 56.5q4 10 10.5 23.5t6.5 23.5q12 72 33.5 130.5t37.5 121.5q4 20 5 31q0 8 -5 28q0 12 15 21q23 4 44 7t44 3q27 0 52.5 -3t53.5 -7q4 0 9.5 -5t5.5 -9 q-4 -20 -13.5 -36t-17.5 -34q-8 -35 -15.5 -70t-17.5 -69q-10 -37 -26.5 -71t-26.5 -71q0 -4 5 -5t5 -5q0 -6 -8 -6t-8 -8q0 -4 4 -11.5t4 -11.5q0 -2 -2 -4q-23 -49 -35 -99t-29 -97q-10 6 -18 6q-16 0 -31.5 -16.5t-31.5 -32.5q-4 -4 -5 -7q0 -4 7.5 -9t13.5 -5h2 q10 0 16 -3t13 -3q16 0 16 18v9q0 14 8 18q47 -139 92 -273.5t78 -281.5q10 -41 28.5 -80t18.5 -82v-4q0 -2 1 -3t1 -3q0 -6 -4 -6q-31 -6 -61 -6q-35 0 -65.5 4t-65.5 8q-16 0 -22.5 16.5t-10.5 32.5q-6 14 -6 33q0 10 1 20.5t1 20.5t-2 16q-2 10 -7 11t-10 6v14 q-4 2 -10 6t-10 8q-2 8 -2 25q0 16 2 24q-8 4 -5 10.5t-5 12.5q-16 10 -13.5 29.5t-7.5 33.5q-20 66 -37.5 131.5t-38.5 131.5q-8 12 -14 22t-14 21q-4 10 -4 26.5t-13 24.5q-2 0 -4 2q-10 0 -18 -9.5t-8 -19.5q0 -16 10 -29.5t10 -27.5q4 -98 4 -195.5v-195.5 q0 -29 1 -53.5t1 -49.5q0 -39 -6 -82q-4 -18 -19.5 -23t-31.5 -5h-43h-57q-23 2 -29 16t-6 35q0 16 2 32.5t2 30.5v8q-4 37 -4 73v71v139v111q0 41 -3 77.5t-3 73.5q0 33 5 62.5t5 64.5q0 16 -9.5 36t-9.5 36zM147 686q0 -4 1.5 -7t1.5 -7q6 0 6 4q0 2 1 5t1 7q0 6 -4 6 q-6 0 -7 -8z" />
<glyph unicode="L" horiz-adv-x="716" d="M61 14q4 47 4.5 91.5t0.5 89.5v167v65t2 65q6 8 6 20q0 6 -2 6q-2 6 -2 19q0 8 1 16t1 14v138q4 59 4 116.5v116.5v416q0 8 7 14t13 10q10 2 21.5 2h21.5q49 0 105 -6q4 -4 8 -10t8 -14q-4 -12 -4 -24.5t-2 -12.5q-8 0 -10 -8q-4 -4 -20.5 -6.5t-18.5 -6.5q0 -2 -1 -4 t-1 -4q0 -8 13 -23.5t17 -15.5h7q12 0 22 15v-56q0 -72 -1 -143.5t-1 -145.5v-360q0 -57 -3 -111.5t-3 -109.5t6 -111q4 -8 11.5 -15t17.5 -11q23 -6 43 -11.5t43 -5.5q10 0 18 1t19 3q4 2 12 2t15 -1t12 -1q33 0 62.5 -1t59.5 -1h30.5t31.5 2q10 0 13 -6t3 -12v-4 q0 -25 2 -47.5t2 -46.5v-15.5t-2 -17.5q0 -23 -14 -29q-45 -10 -88 -13t-86 -3q-76 0 -150 6q-39 0 -77.5 -3t-79.5 -3q-39 0 -82 6q-6 4 -10.5 10t-4.5 8z" />
<glyph unicode="M" horiz-adv-x="1024" d="M61 78q0 33 7.5 67.5t7.5 69.5q0 18 -2 41t-2 45q2 23 6 45.5t4 44.5q0 18 -6 41q-2 10 -2 19.5v19.5q0 35 4 68.5t4 68.5q-2 4 -2 17q0 10 2 22t2 23q0 10 -2 14q0 66 -1 130.5t-1 129.5v57.5t2 57.5v132t-10 128q0 4 -1 6t-1 6q0 10 5 20.5t17 12.5q23 4 43.5 6t40.5 2 q47 0 100 -12q8 -2 14.5 -3t14.5 -1q16 0 33.5 2t36.5 2h14q4 -4 9 -5t8 -5q17 -37 17 -76v-12q-1 -15 -1 -30q0 -31 4 -63q16 -104 37.5 -200.5t56.5 -196.5q6 -14 15 -14q8 0 15 7t7 17q20 141 45 275.5t35 277.5q4 27 20 35q35 2 67 3t67 1q37 0 73.5 -2t77.5 -8 q6 -4 8 -12.5t2 -16.5q2 -10 2 -28q0 -14 -1 -27.5t-1 -28.5v-12q0 -37 -1 -73t-1 -70q0 -29 1 -58.5t1 -60.5q-2 -109 -2 -213.5v-208.5q0 -18 2 -36.5t2 -39.5q0 -10 -1 -18t-3 -19v-61q2 -12 6.5 -26.5t4.5 -26.5q-1 -9 -3 -13q-2 -8 -2 -24q0 -18 3.5 -36.5t3.5 -39.5 v-16.5t-5 -18.5q-10 -35 -10 -63q0 -6 1 -12.5t1 -12.5q2 -14 2 -26.5v-26.5q-2 -16 -6 -27.5t-20 -15.5q-6 -2 -23 -2q-31 0 -55 6q-6 0 -13.5 -1t-15.5 -1q-18 0 -28 14q-4 4 -7.5 12.5t-3.5 14.5q0 135 5.5 267t5.5 267v66v121q0 61 -3.5 122.5t-17.5 123.5q0 8 -8 8 q-2 0 -2 -1t-2 -1h-2q-27 -82 -42.5 -163t-26.5 -163t-21.5 -165t-26.5 -167q-14 -84 -24.5 -161.5t-26.5 -161.5q-4 -23 -20.5 -30t-39.5 -7q-16 0 -33.5 2t-33.5 4q-23 147 -39 290.5t-45 291.5q-8 35 -8 69.5t-9 67.5q-8 18 -10 35.5t-6 38.5q-14 66 -26.5 128t-22.5 128 q-8 16 -23 16q-2 0 -3 -1t-3 -1q-10 -10 -13 -22.5t-3 -24.5v-37v-51q2 -31 2 -62.5v-62.5q0 -70 -1 -138.5t-3 -140.5q0 -8 -2 -17t-2 -15q2 -10 2 -22.5v-23.5q0 -18 -1 -37.5t-1 -37.5q0 -14 1 -27.5t3 -28.5q0 -6 1 -12t1 -10q0 -10 -1 -21.5t-1 -25.5v-10q0 -16 -2 -33 t-2 -37q2 -10 2 -21.5v-23.5q0 -23 -1 -45.5t-1 -44.5v-15q0 -6 -1 -12t-10 -8q-41 -10 -81 -10q-23 0 -43.5 6t-32.5 22q-14 29 -15 64zM133 799q0 -8 6 -17q4 8 5 16.5t12 16.5q4 4 13 4t9 10q-4 0 -7 2.5t-11 2.5q-2 0 -6 3t-9 3q-4 0 -6 -6q0 -10 -3 -17.5t-3 -17.5z M135 707q0 -12 7.5 -23.5t7.5 -21.5q0 -23 9 -38.5t19 -29.5q2 -2 6 -2q15 0 15 10q2 10 3 21.5t1 21.5q0 16 -2 30.5t-8 29.5q-4 6 -8.5 13t-20.5 7q-10 0 -19.5 -4t-9.5 -14zM147 90q0 -10 7.5 -17t13.5 -7q12 0 20 18q0 2 1 3t1 5q0 8 -4 17.5t-8 19.5h-12 q-18 -18 -19 -39zM156 244l4 -4q0 -27 20 -27h4q8 2 9 6q0 6 -9.5 14.5t-13.5 12.5q-2 0 -4 1t-6 1t-4 -4zM156 889q8 8 16 7t16 3q17 11 17 29q0 12 3 25.5t3 27.5q0 20 -12 31q-10 6 -21 6q-8 0 -10 -6t-2 -13q0 -12 3 -24t3 -25q0 -8 -2 -12q-14 -23 -14 -49zM160 1155 q10 6 11 10t13 4q-4 2 -8 2l-4 -4q-4 0 -6 -6zM164 1049q0 -4 1 -9.5t1 -11.5h12q8 0 10 4q0 4 1 10.5t1 10.5q0 6 -6 6q-4 0 -5 2t-5 2q-10 -2 -10 -14zM170 1243q0 -16 14 -16q6 0 9 2v4v10q-1 4 -5 4t-8 1t-6 1q-4 0 -4 -2v-4zM872 489q0 -20 4.5 -39.5t14.5 -35.5 q4 0 8 2q10 4 10 10q0 4 -2 6h-6q-4 0 -4 6q0 4 -1 5t-1 3q0 12 6 22.5t6 23.5v12q-29 14 -28 41q4 8 8 13t16 5q-8 6 -8 12q0 8 8 21q4 4 4 12q0 -8 -3 -10t-6 -2t-6 -1t-5 -7q-8 -20 -8 -29q-2 -16 -4.5 -34.5t-2.5 -35.5zM887 272h10v19h-10v-19zM889 360q0 -6 10 -6t8 0 v15q-4 -6 -16 -7zM901 692q0 -2 2 -4q8 0 12 6q0 4 -4 4q-2 0 -6 -1t-4 -5zM903 647q4 0 4 -12q0 4 3 8t3 8q0 2 -2 4q-4 -6 -8 -8z" />
<glyph unicode="N" horiz-adv-x="759" d="M61 12q6 33 7 70q0 18 -1 35.5t-1 34.5q0 6 1 13t1 15q0 16 -7 29q6 2 7 10q0 4 -1 6t-1 4q4 76 4 150v151q0 49 9 97.5t9 97.5v18q0 6 -6 15.5t-6 19.5t-1 19.5t-1 19.5q0 41 5 82t9 82q0 18 -3 35.5t-3 38.5q-2 23 -3 43t-1 43t1 44t3 44q0 4 1 11t1 13q0 16 -14 27 q6 0 8 2l4 4q-10 16 -10 35q0 29 20 39q25 8 60 8q29 0 59.5 -4t58.5 -4q49 -123 89 -248t81 -252q10 -25 20.5 -52.5t28.5 -49.5q2 0 5.5 -1t7.5 -1q6 0 6 6q4 23 8 45t4 45q0 20 -6 43q8 0 8 8q0 2 -2 4q2 37 3 74t1 72q0 72 -2 143.5t-2 142.5q0 8 17 21q27 4 52 4h52 q6 -4 17.5 -7t11.5 -7q8 -43 10 -87t2 -89q0 -39 -1 -78t-1 -80q3 -64 3 -129v-32v-32q0 -65 3 -129v-59q0 -68 -1 -134.5t-1 -133.5q0 -43 1 -87t3 -90q0 -4 1 -9t1 -11q0 -16 -2 -33.5t-2 -34.5q0 -25 6 -49v-8q0 -8 6 -10q-8 -12 -11 -26.5t-17 -18.5q-20 -4 -42 -6 t-42 -2q-23 0 -44.5 6t-39.5 24q0 39 -15.5 74t-25.5 76q0 6 1 12t1 12q0 8 -2 15q-27 80 -49.5 159.5t-49.5 157.5q-20 68 -39.5 128.5t-35.5 125.5q-4 16 -9.5 22.5t-17.5 16.5h-2q-4 0 -8 -6t-8 -10q-10 -78 -13.5 -154t-3.5 -152q0 -72 2 -142.5t2 -139.5v-51.5 t-2 -49.5q0 -10 1 -24t1 -31v-13t-2 -13q-4 -23 -20.5 -32t-38.5 -9q-23 0 -47.5 4t-44.5 8v6q0 4 -2 5t-4 5h-9zM295 879h14q8 0 8 8q0 3 -6 3h-3q-9 -1 -13 -1v-10zM453 641q2 0 3 1t3 1q12 0 22.5 -13.5t20.5 -17.5q12 -8 12 -16v-2q-4 -12 -15.5 -19.5t-11.5 -17.5 t15.5 -23.5t25.5 -23.5q4 16 18.5 16t24.5 9v20q-23 16 -33 41t-10 51q0 6 -7 4t-7 4q-4 0 -6 -1t-6 -1t-10.5 1t-12.5 1q-20 0 -26 -14zM532 350q6 -27 31 -35q0 8 -5 11.5t-5 7.5q0 2 1 3t1 3q0 4 -4 7t-4 7h-4h-8h-3v-4zM590 655q0 -4 1 -12t5 -8q6 4 16 4t15.5 -10.5 t9.5 -20.5q0 12 1 24.5t5 22.5q2 0 2 7q0 -8 -6 -9l-2 2q-6 4 -16 4q-8 0 -15.5 -2t-15.5 -2z" />
<glyph unicode="O" horiz-adv-x="813" d="M61 592v78h2q20 0 27 6q0 2 1 3t1 3q0 10 -8 16.5t-18 6.5h-5v43q4 29 3 56t-1 56q6 -20 25 -20h4q10 0 10 8q0 6 -5 15t-9 16q-6 10 -10 22t-15 17q2 6 2.5 13t2.5 15q4 33 6 62.5t6 64.5q16 70 44 128.5t81 105.5q31 25 60.5 42t62.5 21q23 4 43 4h43q43 0 88 -8 t86 -37q37 -25 60.5 -56.5t38.5 -68.5t24.5 -77t19.5 -78q10 -59 14.5 -113.5t4.5 -114.5q0 -53 1 -104t1 -105q0 -104 -7 -211v-50t-4 -50q-12 -43 -21 -81t-28 -79q-18 -31 -38.5 -56.5t-49.5 -39.5q-29 -20 -58.5 -34.5t-62.5 -14.5q-55 0 -111.5 8t-111.5 27 q-47 16 -80 47t-54.5 71.5t-33.5 87t-16 93.5q-10 66 -12.5 131t-2.5 131zM100 930q0 -4 5.5 -11.5t9.5 -7.5q6 0 14 8.5t16 8.5q10 0 16.5 -13.5t12.5 -21.5q16 16 16 49q0 20 -4 29q-16 27 -16 57q0 4 -7 5t-11 1q2 -6 2 -18q0 -14 -2 -27.5t-7 -27.5q-2 -8 -9 -10.5 t-15 -4.5t-14.5 -5t-6.5 -11zM104 995q6 0 5.5 -5t3.5 -5h2q4 4 9 8t5 13q0 10 -2 16t-12 6q-10 -2 -11 -16v-17zM254 770q0 -27 1 -52.5t1 -51.5q3 -82 4 -164q0 -21 -1 -41v-9q0 -99 22 -200q6 -55 53 -86q10 -8 20.5 -13.5t20.5 -5.5q4 0 6 1.5t6 1.5q16 0 29.5 -4.5 t27.5 -4.5q16 4 29.5 8.5t30.5 12.5q23 14 37 36.5t14 47.5q10 92 14 181t4 179v80t-2 80q0 33 1 65.5t1 65.5q0 121 -34 244q-10 23 -30 40t-44 21q-14 4 -27.5 6t-29.5 2q-47 0 -87 -22.5t-47 -71.5q-10 -86 -15 -173t-5 -173z" />
<glyph unicode="P" horiz-adv-x="743" d="M61 1185.5v20.5q0 25 2.5 49.5t2.5 49.5q0 8 -1.5 15t-1.5 15q0 10 5.5 24.5t21.5 14.5q47 -4 91 -5t91 -5q18 0 35 -1t33 -1q18 0 37.5 1t40.5 1q8 2 22 2q35 0 64 -20q16 -8 32.5 -15.5t26.5 -17.5q66 -53 92.5 -127t26.5 -154q0 -66 -13.5 -135.5t-31.5 -130.5 q-8 -23 -24.5 -40t-37 -31.5t-44 -25t-44.5 -20.5q-10 -2 -14 -10t-14 -12q-20 0 -35.5 -10.5t-36.5 -14.5h-37q-18 0 -37.5 -3t-38.5 -17q-16 -10 -21 -35t-5 -47q0 -6 -1 -12.5t-1 -12.5q0 -31 4 -61.5t4 -63.5q0 -35 -6 -69.5t-6 -71.5q0 -29 1 -55.5t1 -55.5 q0 -47 -6 -92q-16 -10 -39 -10t-44.5 6t-43.5 6q-4 0 -7.5 -1t-7.5 -1h-2q-6 0 -12 8.5t-10 16.5q0 16 -4.5 32.5t-4.5 32.5q0 12 1.5 24.5t1.5 24.5q0 29 -1.5 58.5t-1.5 58.5v46.5t5 45.5v74q2 4 2 10q0 10 -3.5 20.5t-3.5 18.5q4 12 4.5 23.5t0.5 23.5v54v30q2 18 3 37 t1 37q0 41 -2 81t-2 81v84q0 16 -2.5 38.5t-2.5 45.5q4 16 4.5 32.5t0.5 32.5q0 23 -1 44.5t-4 43.5q-2 10 -2 20.5zM248 932q0 -29 3 -60.5t3 -60.5q29 -23 70 -23q33 0 66.5 12.5t62.5 28.5q27 18 34 50t7 65q0 10 -1 17.5t-1 15.5q-2 25 -2.5 52.5t-4.5 54t-15 50 t-32 42.5q-12 6 -25.5 8t-25.5 6h-119q-8 0 -9 -10.5t-11 -10.5q2 -8 2 -16v-18q0 -18 -1 -36t-1 -32v-135z" />
<glyph unicode="Q" horiz-adv-x="823" d="M61 733q0 66 2.5 133.5t4.5 132.5q8 63 18 122t37 118q6 16 27.5 32.5t44.5 24.5q4 2 12 2q18 0 36.5 -9t39.5 -9h10q4 4 9 10t5 13v4q-4 6 -12 9t-15.5 5t-13.5 5t-6 11q0 10 13.5 16.5t23.5 10.5q35 10 68.5 13t66.5 5h11q23 0 47 -7q28 -9 57 -15q27 -4 43 -17.5 t33 -29.5q53 -53 78.5 -120t31.5 -138q0 -8 -1 -15.5t-1 -15.5t2 -12q10 -23 10 -45.5t11 -44.5q2 -4 2 -13q0 -14 -4 -29.5t-4 -31.5v-14q8 -29 10 -57.5t2 -57.5v-57q0 -49 1 -98.5t1 -96.5q0 -43 -2 -85t-6 -85q-10 -41 -20.5 -77t-14.5 -73q0 -10 17.5 -16t17.5 -18 q8 -25 8 -56t-8 -57q-4 -6 -6.5 -12t-8.5 -11q-16 -6 -32 -6t-33 5.5t-27 13.5q-8 4 -7 18.5t-9 26.5q-16 -16 -38 -33.5t-48 -19.5q-72 -23 -139 -23q-80 0 -154 31q-20 12 -36.5 31.5t-35.5 35.5q-23 25 -40 50.5t-27 54.5q-8 27 -11.5 48t-7.5 48q-25 98 -26.5 195.5 t-1.5 195.5q0 20 -2.5 44t-2.5 40zM213 989q10 0 11 -6t5 -6q6 2 7 10q0 12 -11 19q-10 0 -11 -6.5t-1 -10.5zM262 690q0 -106 3 -210.5t11 -211.5q4 -12 8.5 -23.5t8.5 -27.5q20 -78 86 -88q10 -2 21.5 -3t21.5 -1q18 0 35.5 3t34.5 13q16 16 33.5 33t21.5 35 q20 43 25.5 88t5.5 88q0 20 -1.5 39.5t-1.5 38.5q2 59 3.5 118.5t1.5 118.5q0 86 -3.5 173.5t-13.5 175.5q-4 20 -7 41.5t-9 40t-18.5 33t-32.5 20.5q-25 8 -52 8q-29 0 -58.5 -7t-59.5 -16q-23 -6 -39 -28q-10 -12 -12.5 -25.5t-2.5 -28.5v-24q-4 -94 -7 -187.5t-3 -185.5z " />
<glyph unicode="R" d="M61 45q0 12 2.5 24.5t6.5 22.5q12 55 12 109q0 35 -2 69.5t-2 69.5v29q4 47 5 92t1 92q0 10 -1 18.5t-1 18.5q0 37 4 73.5t4 75.5v18.5t-2 18.5v586q20 14 47 14q16 0 34.5 -4t35.5 -4q10 0 26 4q35 0 70 1t70 1h27.5t27.5 -2q23 -4 43 -8t39 -10q12 -4 23.5 -9.5 t21.5 -9.5q76 -43 104 -110q6 -16 13.5 -28.5t7.5 -29.5q0 -8 -2 -12v-72q4 -25 6 -49t2 -51q0 -61 -16.5 -119.5t-59.5 -103.5q-16 -16 -39.5 -24.5t-23.5 -30.5q2 -10 10 -16.5t19.5 -12.5t22.5 -12.5t17 -16.5q16 -25 37 -42t25 -42q24 -188 24 -372v-15q0 -37 -1 -75 t-3 -74q0 -8 -8 -10.5t-12 -6.5q-23 -4 -45.5 -8t-44.5 -4q-37 0 -62 18q-16 10 -16 43v17q10 41 11 76.5t1 70.5q0 12 1 23.5t1 21.5q0 37 -2 73t-2 71v29.5t2 29.5q0 10 -6 23.5t-8 25.5q0 12 -2 22.5t-10 20.5q-29 39 -71 50.5t-87 15.5q-20 0 -43 -4t-27 -27 q-8 -23 -10 -46.5t-2 -47.5q0 -45 6 -90t6 -90q0 -12 -1 -23.5t-3 -24.5q-4 -16 -7 -27t-3 -26q8 -33 9 -63.5t1 -61.5v-71q0 -8 -6 -15.5t-12 -9.5q-12 -6 -25 -6q-14 0 -26.5 3t-24.5 3q-16 -4 -34.5 -6t-35.5 -2q-20 4 -28.5 18.5t-8.5 32.5zM258 1096q0 -20 1 -40t3 -40 q0 -8 1 -15.5t1 -17.5q0 -16 -1 -32.5t-1 -32.5q0 -29 3 -55.5t16 -55.5q27 -6 59 -6q47 0 88 18.5t61 63.5q6 27 10.5 52.5t4.5 51.5q0 29 -4 56.5t-11 56.5q-4 29 -16 58.5t-41 35.5q-23 6 -48.5 12t-51.5 6q-37 0 -66 -14q-4 -27 -6 -52.5t-2 -49.5z" />
<glyph unicode="S" horiz-adv-x="804" d="M61 305q0 18 11 35q29 23 57.5 38t56.5 30q20 -35 29 -71t35 -67q27 -29 54.5 -55.5t64.5 -38.5q25 -6 47 -6q59 0 103 37t44 108q0 25 -7 49.5t-17 49.5q-35 80 -98.5 142t-125.5 126q-4 4 -11 9t-15 5q-6 0 -8 -2q-6 23 -20.5 40.5t-30 33.5t-30 32.5t-20.5 39.5 q-6 29 -17 53.5t-22 46.5q-24 59 -24 124v5q0 70 30 137q18 47 49 89t85 55q41 10 79.5 21t77.5 11q31 0 56 -8q39 -6 71.5 -26.5t63.5 -49.5q35 -29 60.5 -70.5t45.5 -82.5q4 -8 4 -25q0 -16 -6 -22q-20 -23 -47 -48.5t-55 -25.5q-10 0 -17 2q-27 4 -34 34t-27 58 q-31 47 -76 68q-14 6 -28.5 11t-30.5 5q-14 0 -21 -2q-53 -8 -77.5 -45t-24.5 -84q0 -37 16 -74q6 -16 17.5 -30.5t23.5 -32.5q8 -27 33 -45.5t41 -44.5q-14 0 -14 -4q4 -6 9 -10.5t9 -8.5q6 0 6 8q0 2 -1 4.5t-1 4.5v2q16 -20 30.5 -39t33.5 -31q16 -10 30.5 -21.5 t24.5 -21.5q41 -49 80.5 -94.5t68.5 -104.5q14 -37 23.5 -77.5t15.5 -81.5q2 -4 2 -11q0 -12 -4 -24t-4 -23v-32q-14 -55 -32.5 -104.5t-59.5 -90.5q-53 -59 -129 -78q-20 -6 -39.5 -13t-40.5 -11q-53 0 -101 8t-91 43q-4 0 -7.5 5t-7.5 9q-27 14 -51 31q-72 88 -108 198 q-6 14 -7 29zM299 1257q14 0 14 5q0 2 -1 2t-1 2h-12v-9zM326 752q4 -8 13 -9.5t17 -1.5q4 0 4 4t-1 6.5t-1 4.5q0 10 -5 20t-17 15q-10 0 -10 -5v-34z" />
<glyph unicode="T" horiz-adv-x="841" d="M35 1196q0 8 4 16q10 27 24.5 50.5t14.5 52.5q4 16 24 24q100 16 203 18.5t205 2.5q6 0 15.5 -5t17.5 -5q55 12 110 12q23 0 46.5 -2t45.5 -6q16 0 24.5 -13.5t8.5 -29.5q0 -2 -1 -4.5t-1 -6.5t-1 -7t-1 -7q0 -16 3 -31.5t3 -29.5q0 -27 -20 -29q-33 -8 -72 -8 q-31 0 -60.5 3t-60.5 3q-12 0 -24.5 -1t-24.5 -3q-23 -8 -26 -26.5t-3 -33.5q-2 -27 -3 -52t-1 -54q0 -76 4.5 -150.5t4.5 -150.5q2 -4 2 -14t-1 -19.5t-1 -19.5v-15q6 -207 6 -415v-90.5t-2 -92.5q0 -14 -9.5 -30.5t-29.5 -20.5q-35 -6 -66 -6q-41 0 -84 6q-4 0 -9 4t-5 8 q0 37 3 72t3 72q0 12 1 23.5t1 21.5q0 35 -3 68.5t-5 70.5q-2 45 -2 89v89q0 160 4 318.5t4 318.5q0 12 -24.5 21.5t-43.5 9.5q-14 0 -20 -2q-41 -8 -81 -9t-81 -5q-16 0 -16 20zM303 1280q4 0 5 1t3 1q16 0 25.5 -11t21.5 -18q4 -4 8.5 -8t4.5 -10q0 -4 -2 -6 q-10 -10 -17.5 -19.5t-7.5 -13.5q0 -10 16.5 -21.5t20.5 -25.5q2 8 10 12t16.5 6t14.5 5.5t6 13.5t-9 16t-18 17q-20 29 -20 67q0 8 -6 5t-6 5h-11h-22q-23 0 -33 -16zM344 432q0 -27 18 -43q4 6 6.5 16.5t8.5 18.5q4 4 13 5t9 5q0 2 -2 4q-4 6 -21.5 5t-17.5 14q-2 4 -2 10 q0 10 7.5 16t16.5 11.5t18.5 9.5t13.5 10q10 10 14 24.5t4 30.5q0 18 -2 37t-2 35q-4 -4 -7 -9t-7 -5q-27 8 -27 30q0 2 1 4.5t1 4.5q0 8 2 18t12 10q8 0 12.5 -5t6.5 -5q2 4 2 10q0 10 -7 20.5t-7 20.5q0 8 8 17q-4 4 -5 13t-8 9q-4 0 -6 -2q-23 -16 -30 -35.5t-7 -42.5 q0 -4 1 -10t1 -12q0 -4 7.5 -8.5t7.5 -8.5q0 -8 3 -16t3 -16q0 -6 -2 -11q0 -10 -9.5 -20t-9.5 -21v-4q2 -10 3.5 -18t1.5 -19q0 -31 -15 -65q-8 -16 -8 -33zM373 297q0 -14 3 -26.5t5 -26.5q4 -8 13.5 -16.5t13.5 -18.5q8 2 8 12q0 6 -3 14.5t-3 14.5t2 8q4 6 4 21 q-6 4 -5 14t-3 20q-6 8 -19 9q-14 0 -14 -9q-2 -6 -2 -16zM373 961q0 -11 2 -15t11 -12t20 -8q12 0 12 16q0 10 -6 32.5t-17 22.5q-10 0 -16 -13t-6 -23zM416 854l4 -8v-6q0 10 -2 10t-2 4zM430 1288q0 -18 16.5 -20t28.5 -2q0 -8 3 -17.5t7 -9.5h4q18 4 24.5 24.5 t10.5 32.5q0 16 -24 17q-10 0 -18.5 -1t-16.5 -1q-4 0 -7 1t-7 1q-6 0 -13.5 -9.5t-7.5 -15.5z" />
<glyph unicode="U" horiz-adv-x="794" d="M61 715q0 10 1 18t4 19q0 53 1 87.5t1 75.5q0 111 -3.5 219.5t-3.5 219.5q0 4 7.5 8t11.5 8q4 0 6 1t6 1q16 0 30.5 -4t27.5 -4q16 -4 26 -4q16 0 32.5 3t33.5 3q12 0 18 -2q4 0 8 -7t4 -11q-4 -53 -5 -106.5t-1 -102.5v-326q0 -6 13 -6q0 -8 -4.5 -13.5t-8.5 -5.5 q-2 0 -2 1t-2 1q-8 16 -22 17q-8 0 -17.5 -3t-19.5 -3h-6q-8 4 -15.5 9t-13.5 5q-2 0 -3 -1t-3 -1q-23 -12 -21 -33.5t-2 -40.5q-8 -12 -8 -26q0 -4 1 -6.5t1 -6.5q8 -12 21.5 -15t29.5 -3h21q12 0 19 7t16 18v-7q0 -10 11 -15t15 -11q4 -29 6 -53.5t2 -51.5q0 -31 -3 -61.5 t-3 -63.5v-20t4 -21q2 -6 2 -22q0 -12 -1 -26.5t-1 -26.5q4 -23 7.5 -41.5t3.5 -40.5q0 -4 -1 -6t-1 -7q0 -18 8 -34q14 -23 32.5 -45.5t45.5 -22.5q8 0 15 -1t13 -1q29 0 54.5 10t46.5 37q14 20 20 37.5t14 34.5q8 16 10.5 33.5t2.5 33.5q0 12 -1 24.5t-1 24.5q16 -4 28 -4 q27 0 27 23q0 18 -16.5 17t-26.5 10v16q8 0 12 5t8 9q-8 6 -11 22.5t-15 16.5q2 8 2 23q0 12 -1 24.5t-1 24.5q0 14 -1 29.5t-1 31.5q0 20 2 31q0 35 -2 69.5t-2 71.5q0 23 2 47.5t6 49.5v59q0 86 -3 167t-3 163q0 23 1 43t1 43q0 4 4 10t8 6q16 4 31.5 4h32.5q23 0 42.5 -1 t39.5 -3q16 -4 22 -16.5t6 -28.5q-6 -18 -6 -45q2 -10 3 -21.5t1 -21.5q0 -14 -1 -28.5t-1 -28.5v-84q-2 -223 -2 -444.5t-16 -446.5q0 -29 -12.5 -56.5t-28.5 -52.5q-29 -61 -85.5 -94t-121.5 -45q-31 -6 -64 -6q-88 4 -166 33q-37 14 -64.5 42.5t-47 64.5t-30.5 76t-17 79 q-6 51 -7 100t-1 96q0 16 2 39t2 43q0 18 -2 36t-2 34v37q0 23 -2.5 42t-2.5 42zM229 627q2 -2 4 -2q6 0 7 6q0 4 -2 4h-7h-2v-8zM244 709q4 4 6 9t6 11q0 2 2 6q4 8 8 8q8 0 8 -6q0 -16 -12 -18t-18 -10zM610 879q0 -23 2 -42.5t11 -41.5q8 4 20 4q14 0 14 -11q0 4 1 8.5 t1 8.5t-2 6q-10 4 -18 9t-8 20q0 18 14 21t19 18q-2 0 -5 2q-2 2 -2 8h-6q-14 0 -24.5 11t-14.5 22q0 23 27 22h4q-4 4 -10 6t-6 13q0 14 12.5 16t24.5 2q0 14 -1 31.5t-16 25.5q-4 -2 -6 -4q-4 -4 -4 -6q4 -8 8 -12t4 -12q0 -6 -5 -17.5t-15 -11.5q-2 0 -3 1t-3 1 q0 -10 -5.5 -19.5t-5.5 -13.5q0 -16 -1 -32.5t-1 -32.5zM623 655h8q4 0 6 -1t6 -1q8 0 8 9q-8 16 -22 16q-2 0 -3 -1t-3 -1v-21zM627 741q0 -4 4 -4q6 0 16 6q12 4 12 17q0 4 -1 6t-1 6q-8 -18 -30 -24v-7zM629 1208q0 -6 9 -10t19 -8q-2 2 -2 8q0 4 1 6t1 4q0 4 -8 4h-18 q-2 -2 -2 -4z" />
<glyph unicode="V" horiz-adv-x="790" d="M61 1339q0 10 6.5 20.5t18.5 10.5h27h53q29 0 50.5 -6t31.5 -29q10 -16 14 -34.5t4 -40.5q0 -31 -6 -58q-2 -8 -2 -16v-19q0 -16 1 -35.5t1 -35.5q0 -6 6 -12.5t13 -10.5q-4 -6 -5 -14q18 -26 18 -54v-7q-2 -32 7 -60q14 -45 16 -89t13 -91q4 -23 8 -44.5t8 -41.5 q14 -72 18.5 -137.5t18.5 -137.5v-6q0 -8 -2 -16t-2 -19q0 -4 4 -16q14 -14 29 -14q16 0 24 14q2 6 2 13v14q0 14 -1 27.5t-1 25.5q0 14 2 26.5t13 24.5v31q0 96 12 186t20 184q0 12 4 25.5t11 30.5q4 6 4 16q0 33 -37 33q14 6 21.5 21.5t17.5 25.5v-14q0 -8 3 -15.5 t13 -9.5q12 0 15.5 17.5t17.5 21.5q4 0 10 -4t14 -4q10 0 11 8q0 25 -13.5 48.5t-35.5 23.5h-9q0 55 2 110.5t2 108.5q0 10 2.5 25.5t16.5 19.5q12 4 24.5 4h24.5q25 0 50 -2t52 -2q10 -4 18.5 -14.5t8.5 -20.5q-4 -25 -9 -50.5t-7 -51.5q-23 -154 -43.5 -299.5t-40 -291 t-40 -291.5t-44.5 -302q-4 -16 -23.5 -26.5t-42.5 -10.5q-29 0 -56.5 -2t-55.5 -2q-23 0 -42.5 2t-39.5 10q-8 0 -14.5 12.5t-10.5 22.5q-14 96 -27.5 185t-26.5 177.5t-27.5 178.5t-31.5 186q-14 96 -27.5 185.5t-25.5 183.5q-4 51 -18.5 99t-14.5 99zM324 299 q0 -18 14 -18q2 0 10 4q8 10 9 20t5 21h-6q-12 0 -22 -7.5t-10 -19.5zM401 174q14 -6 28.5 -14t29.5 -19q10 0 10 15v18q-2 2 -6 2q-8 0 -16.5 -4t-18.5 -4q-6 4 -9 16.5t-13 12.5h-5v-23zM551 946q6 -6 12 -6t6 4q2 2 2 4q0 4 -5 3t-5 5q-4 -4 -7 -5t-3 -5z" />
<glyph unicode="W" horiz-adv-x="1298" d="M61 1339q0 10 7.5 20.5t17.5 10.5h27h53q29 0 52.5 -6t33.5 -29q10 -16 13 -34.5t3 -38.5q0 -33 -6 -60q-2 -8 -2 -16v-19q0 -16 1 -35.5t1 -35.5q0 -6 6 -12.5t11 -10.5q-2 -6 -3 -14q12 -16 16.5 -33.5t4.5 -36.5q0 -12 -1 -24.5t-1 -26.5q4 -4 7 -13.5t3 -13.5 q16 -61 20.5 -120.5t16.5 -118.5q16 -72 19.5 -137.5t21.5 -137.5q0 -4 -1 -11t-5 -17q-2 -2 -2 -9q0 -14 13 -24t28 -10q4 4 10 5t10 9q2 6 2 13v14q0 14 -1 27.5t-1 25.5q0 14 2 26.5t13 24.5v39v26q0 78 10 155q12 89 28 181q11 69 11 136v17q0 7 -1 15q0 68 13 140 q10 16 16.5 33.5t6.5 35.5q0 14 -2.5 27.5t-2.5 28.5q0 16 4.5 29.5t18.5 25.5q8 4 12 4q10 0 21.5 -3t21.5 -3t15 2q4 4 8 3t4 7q10 -4 18.5 -5t18.5 -1t20 1t21 1q16 0 27.5 -5t15.5 -22q16 -43 16 -86q0 -27 -6 -51q-2 -8 -2 -16v-19q0 -16 1 -35.5t1 -35.5q0 -6 6 -12.5 t12 -10.5q-2 -6 -2 -14q10 -16 14.5 -32.5t4.5 -33.5q0 -14 -1 -27.5t-1 -27.5q4 -4 7 -13.5t3 -13.5q14 -61 19.5 -120.5t21.5 -118.5q12 -72 17 -137.5t22 -137.5v-6q0 -8 -2 -15t-2 -18q0 -16 9 -24t21 -8q16 0 25 14q2 8 3 14t1 15q0 16 -2 29.5t-2 29.5q0 43 27 64 q6 10 9 24t17 19q4 0 12.5 -5.5t12.5 -5.5q10 4 10 17q0 10 -3 18t-7 14q-2 2 -8 2q-4 0 -11.5 -2t-13.5 -2q-10 0 -12 11.5t-2 17.5q0 10 4 31q0 4 -4 5t-4 5q4 59 10 115.5t12 115.5q4 25 11.5 46.5t13.5 44.5q6 26 6 52v13v10q0 26 8 54q0 4 2 12t2 12q4 51 5 99.5 t1 99.5q-2 4 -2 12q0 27 21 33q12 4 24.5 4h24.5q27 0 51 -2t51 -2q10 -4 19.5 -14.5t9.5 -20.5q-4 -25 -10 -50.5t-10 -51.5q-23 -154 -42.5 -299.5l-39 -291t-39 -291.5t-43.5 -302q-4 -16 -25.5 -26.5t-44.5 -10.5q-27 0 -54.5 -2t-56.5 -2q-20 0 -39.5 2t-41.5 10 q-6 0 -13.5 12.5t-11.5 22.5q-16 106 -25.5 198.5t-31.5 198.5q-8 35 -11.5 70t-6.5 68.5t-10 66.5t-22 66q-12 -23 -16 -47.5t-8 -49.5q-23 -152 -40 -287.5t-46 -289.5q-4 -23 -25.5 -30t-44.5 -7q-29 0 -56.5 -2t-55.5 -2q-23 0 -42.5 2t-39.5 10q-6 0 -12.5 12.5 t-10.5 22.5q-14 96 -27.5 185t-26.5 177.5t-26.5 178.5t-29.5 186t-31 185.5t-25 183.5q-4 51 -19.5 99t-15.5 99zM551 1212q0 -12 10 -16q20 -4 29.5 -13t25.5 -18h5h8q12 8 12 25q0 12 -6 18q-4 6 -10 6t-13.5 -3t-15.5 -3q-6 4 -11 14.5t-14 10.5h-4q-16 0 -16 -21z M588 1280l4 -4v10q-4 0 -4 -6zM821 307q0 -10 2 -10h4q8 0 7.5 9t9.5 9h19t14 11q0 4 -6.5 7t-12.5 3t-8 -2q-8 -6 -17.5 -11.5t-11.5 -15.5z" />
<glyph unicode="X" horiz-adv-x="802" d="M61 1343q4 4 5 15q16 8 30.5 10t30.5 2q27 0 52.5 -4t51.5 -4h13q4 0 12 -3t8 -11q2 -12 2 -23.5v-21.5q0 -23 -1 -46.5t-1 -48.5q4 -4 9.5 -7t9.5 -11v-14q6 -10 14 -12.5t8 -14.5q0 -8 -2 -15.5t-2 -17.5v-8q4 -8 9 -12t5 -11q10 -66 28.5 -123t33.5 -120 q4 -8 13 -13.5t20 -5.5q12 0 12 13q0 57 15.5 114.5t21.5 120.5q0 8 5 16.5t5 16.5q8 14 7 29.5t3 31.5q4 0 4 -10q-4 -4 -4 -8q0 -6 6 -6q4 0 6.5 4t2.5 8q0 6 -3.5 14.5t-3.5 14.5q0 12 10.5 17t10.5 13q0 16 1 30.5t1 31.5q0 31 -6 59q0 10 6 19.5t16 9.5q25 0 49.5 2 t51.5 2q20 0 39.5 -2t38.5 -10q0 -4 3 -7.5t3 -7.5t-2 -6q-29 -57 -35 -117.5t-27 -121.5q-16 -49 -25.5 -102.5t-23.5 -102.5q-8 -16 -7 -31.5t-3 -32.5q-6 -29 -14.5 -55.5t-8.5 -54.5v-15q0 -63 21 -123.5t37 -123.5q16 -45 28 -93q25 -86 45.5 -166.5t44.5 -168.5 q0 -10 -8 -19q-29 -6 -57 -6q-29 0 -57.5 3t-57.5 3q-4 0 -12 3t-8 11v31v55v24.5t-4 25.5q-4 14 -13.5 28.5t-19.5 32.5q-4 4 -4 8q0 6 2 13.5t2 15.5q0 10 -8.5 16t-12.5 15q-4 14 -3 28.5t-5 30.5q-16 31 -19 64.5t-14 66.5q-12 20 -9 44t-11 44q-2 2 -10 2t-16.5 -4 t-12.5 -14q-10 -66 -16.5 -126.5t-22.5 -123.5q-6 -20 -9 -45t-13 -49l-7 6q-14 -33 -15 -69t-9 -72q0 -8 4 -18.5t4 -20.5q0 -12 -8 -17.5t-12 -5.5h-17q-23 0 -44 -2t-44 -2q-20 0 -39.5 4t-38.5 14q39 117 60.5 233t50.5 232q8 43 18.5 82t14.5 82q0 12 10 29q0 2 1 4 t1 6q0 10 -8 12h-11q-10 29 -13 61t-13 60q-35 104 -59.5 205.5t-51.5 212.5q-8 25 -13 52.5t-22 51.5z" />
<glyph unicode="Y" horiz-adv-x="749" d="M61 1348q0 14 11 14q18 6 37.5 8t40.5 2q20 0 39.5 -1t39.5 -3q4 -4 10.5 -8t10.5 -12q37 -76 54.5 -157t45.5 -163q8 -18 9 -41.5t16 -34.5q4 -4 12 -4t11 11.5t5 19.5q39 92 62.5 182t50.5 187q4 8 10.5 12t14.5 8q14 2 27.5 3t27.5 1q23 0 45.5 -5t40.5 -19 q6 -10 6 -21q0 -14 -6 -27q-27 -41 -39 -83.5t-22 -86.5q-23 -78 -42.5 -146.5t-37.5 -145.5q-2 -10 -9.5 -21.5t-7.5 -19.5q-10 -57 -26.5 -106.5t-20.5 -100.5q-2 -14 -2 -28.5v-29.5q0 -49 3 -98t3 -100v-41q0 -53 3 -107.5t8 -109.5q0 -23 6 -44.5t6 -43.5v-6 q-6 -8 -17 -9q-4 0 -6 1t-4 1q-14 12 -29.5 16.5t-31.5 4.5q-23 0 -44.5 -4t-43.5 -4q-10 0 -31 4q-4 0 -9 6t-9 10q0 4 -1.5 8t-1.5 9q0 20 6.5 39.5t6.5 39.5q6 98 6 199v69t-2 68q0 45 -1 91.5t-7 89.5q-10 92 -39 174t-51 170l-8.5 17t-4.5 15q-4 20 -10 35t-10 31 q-14 47 -26.5 96t-29.5 96q-12 25 -28.5 47.5t-16.5 45.5zM360 616q0 -23 6.5 -44t6.5 -44q0 -10 -2 -16q-4 -10 -4 -19.5v-19.5q0 -12 1 -25.5t1 -27.5q0 -6 -1 -11.5t-1 -11.5q2 -4 4 -6q4 -4 6 -4t4 2q16 10 30.5 12.5t22.5 20.5q10 35 10 59q0 16 -2 32.5t-4 33.5 q-4 10 -6 10q-4 0 -11 -5t-13 -5q-4 4 -9.5 11t-5.5 15q0 12 15 13q6 0 11 -5.5t9 -5.5q12 6 12 23q0 4 -2 6q-14 18 -12 34.5t-2 35.5q-4 8 -5 15t-11 7q-12 -8 -33 -8q-2 0 -6 -4t-4 -8t3 -8t3 -9v-2q-10 -16 -11 -41zM383 313q0 -10 2 -23.5t2 -23.5v-18.5t2 -16.5 q4 -8 12.5 -9t18.5 -1v25v16q0 23 -10.5 39t-20.5 33q-6 -6 -6 -21zM393 760l2 -4q0 -14 17 -15h8q-2 2 -2 7v8q0 4 -4 4t-8.5 1t-8.5 1t-4 -2zM395 104q6 -4 17.5 -4t21.5 -2q2 6 2 19q0 10 -1 19t-1 20q-4 -10 -6 -18.5t-8 -16.5q-4 -4 -14.5 -4t-10.5 -13zM414 39h10l7 7 t3 11q-20 -8 -20 -18z" />
<glyph unicode="Z" horiz-adv-x="788" d="M61 1237q2 6 2 13v14q0 16 -1 31.5t-1 31.5v21q12 30 39 30h2q12 0 27 -10q4 -2 12 -2t16.5 3t16.5 3t7 -7t3 -7q31 8 62 8h13q13 -1 25 -1q25 0 50 3q6 2 20 2q10 0 19.5 -1t19.5 -1q8 0 16.5 -1t16.5 -1q20 0 38.5 1t37.5 1q20 0 39.5 -2t40.5 -8q14 16 39 16 q12 0 25 -2t28 -2q14 0 20 2q2 -27 5 -54.5t3 -55.5q0 -39 -8 -70q-29 -96 -72.5 -187.5t-76.5 -191.5q-10 -29 -23.5 -57.5t-23.5 -59.5q-4 -20 -14.5 -39.5t-22.5 -40.5q-16 -31 -26.5 -65.5t-26.5 -63.5q-23 -45 -39 -86v-18q-10 -18 -22.5 -36.5t-12.5 -41.5q0 -4 -5 -6 t-5 -6q0 -16 -8.5 -35.5t-20.5 -36.5q33 -6 65 -6h23.5t24.5 2q20 8 28 8q25 -2 46.5 -3t43.5 -1h34t34 4q12 4 28.5 5t32.5 1q12 0 28.5 8.5t33.5 8.5h6q-2 -4 -2 -15q0 -10 3 -16t3 -14v-4q-8 -23 -7 -42.5t-3 -41.5v-9q0 -12 2 -26t2 -27q0 -29 -23 -33 q-59 -8 -117.5 -12t-117.5 -4h-58.5t-60.5 4q-8 2 -27 2q-23 0 -44 -3t-44 -3q0 8 -7 10t-11 6q-22 -22 -54 -22h-3q-41 0 -62.5 24.5t-21.5 55.5q0 16 4 32.5t10 32.5q33 92 71 177.5t83 173.5q2 4 2 8t-1 8t-1 8v4q72 162 136 324t124 328q0 2 1 2t1 2q0 6 -12.5 11 t-16.5 15q-4 -4 -5 -8t-5 -4q-37 -2 -74 -2h-74q-59 0 -117.5 2t-115.5 6q-10 0 -14.5 13.5t-4.5 25.5z" />
<glyph unicode="[" horiz-adv-x="438" d="M61 248q0 135 2.5 271t4.5 263v31v105.5t1 115t1 115.5v104q-2 25 -3 49.5t-1 49.5v53q0 6 2 8q0 4 1 9t1 12q0 2 6 6t10 4h8q20 0 36.5 3t33.5 3q18 0 29 -4q51 0 100 -3t65 -5q12 0 10.5 -22.5t2.5 -39.5q6 -29 6 -39v-10t-2 -18.5t-6 -18.5t-11 -8q-10 -4 -30.5 -5 t-48.5 -1h-58v-285v-122.5t-2 -123.5q0 -16 -2 -30.5t-2 -28.5q6 -29 6 -57v-13.5t-2 -13.5t-2 -16q0 -8 1 -15.5t1 -17.5q-2 -29 -2 -68v-79.5v-78.5t-2 -65v-57v-115q47 -2 88 -4t55 -4q12 0 10.5 -22.5t2.5 -39.5q4 -14 5 -22t1 -18v-10.5t-2 -17.5t-6 -17.5t-11 -8.5 q-16 -6 -63 -9t-100 -3q-41 0 -76 2t-51 6q-4 78 -5.5 159t-1.5 167zM119 264q0 -12 5 -26.5t7 -30.5q4 -6 11.5 -13.5t11.5 -17.5q4 4 9 5t5 5q0 2 -2 4q-6 8 -6 17q0 8 3 16t3 17q-4 8 -5 17t-7 19q-6 8 -17 9q-14 0 -16 -6.5t-2 -14.5zM141 860q0 -10 19 -10h6v16 q-2 -2 -10 -2h-11q-4 0 -4 -4z" />
<glyph unicode="\" horiz-adv-x="1036" d="M61 1397q1 12 11 22t22 12.5t29 2.5q25 0 51.5 -3.5t50.5 -3.5q4 0 12.5 -4t8.5 -6q25 -45 45 -89t41 -91q20 -47 48 -101.5t55.5 -109.5t55 -109.5t50.5 -103.5q4 -6 7 -14t7 -17q45 -88 93 -186t96.5 -198.5t96.5 -199t93 -186.5q10 -20 20.5 -33.5t20.5 -33.5 q-4 -8 -3 -18.5t-3 -10.5q-2 0 -4 1t-4 1q-25 0 -47.5 -5t-47.5 -5q-16 0 -33.5 4t-37.5 18q-41 80 -74 158t-74 158q-14 27 -34.5 67.5t-42 83.5t-43 85t-35.5 71l-10.5 24.5t-14.5 24.5q-14 23 -21.5 43.5t-13.5 40.5q-6 14 -15 28.5t-18 30.5q-14 31 -39.5 80t-52 103.5 t-52.5 103.5t-40 80q-12 27 -20.5 41t-14.5 27.5t-14 28t-21 40.5q-8 18 -22 38t-27.5 39.5t-24 37.5t-10.5 33zM702 252q0 -8 2.5 -15.5t2.5 -13.5q6 -10 14 -21.5t8 -23.5v-6q0 -4 5.5 -6t13.5 -6v4q0 10 3 16l5 10q-6 18 -9.5 37t-13.5 33q-4 8 -18 8q-12 0 -13 -16z M766 225q4 -4 5 -8t3 -8h8q12 0 13 8q0 6 -9 6h-8q-8 0 -12 2zM774 156q0 -29 21 -43q4 -2 10 -2t10 3t8 5q4 4 4 10q0 10 -12.5 24.5t-26.5 24.5h-12q0 -6 -1 -11t-1 -11z" />
<glyph unicode="]" horiz-adv-x="442" d="M63 -20q0 10 1.5 18t3.5 22q4 16 2 39t10 23q14 2 55 4t88 4q0 29 1 57.5t1 57.5q0 14 -1 28.5t-1 28.5q-2 27 -2 65v78.5v79.5t-2 68q0 10 1 17.5t1 15.5q0 10 -2 16t-2 13.5v13.5q0 16 2 29.5t4 27.5q0 14 -2 28.5t-2 30.5q-2 59 -2 123v123v285h-57q-29 0 -49.5 1 t-30.5 5q-6 0 -10 8t-5.5 18.5t-1.5 18.5v10q0 8 1.5 16.5t3.5 22.5q4 16 2 39t10 23q16 2 65.5 5t100.5 3q10 4 28 4q16 0 33 -3t37 -3h8q4 0 10.5 -4t6.5 -6q0 -6 1 -11.5t1 -9.5q2 -2 2 -8q0 -16 1 -28.5t1 -24.5q0 -25 -2 -49.5t-4 -49.5v-104t1 -115.5t1 -115v-105.5 v-31q0 -127 5 -263t3 -271q0 -86 -2 -167t-6 -159q-16 -4 -51 -6t-76 -2q-51 0 -99.5 3t-64.5 9q-6 0 -10 8.5t-5.5 17.5t-1.5 17v11z" />
<glyph unicode="^" horiz-adv-x="856" d="M61 965q0 10 5 14q8 12 29.5 43t52 72t67.5 86t73 87t66.5 76.5t51.5 53.5q2 0 2 1t2 1q12 16 22 16q8 0 23 -14q12 -6 39.5 -37t62.5 -74t73 -93t70.5 -96t57.5 -80t33 -46q4 -2 4 -10q0 -10 -12.5 -23.5t-22.5 -26.5q-10 -20 -17.5 -22t-23.5 -12q-4 -6 -12.5 -12.5 t-18.5 -6.5q-4 0 -12 4q-12 8 -40 43t-62.5 80t-73.5 95.5t-72 91.5q-35 -41 -75 -90.5t-76.5 -94.5t-64.5 -79.5t-38 -43.5q-4 -4 -8 -4q-10 0 -22.5 14.5t-24.5 24.5q-16 12 -24.5 13.5t-18.5 17.5q-4 6 -9.5 14t-5.5 17z" />
<glyph unicode="_" horiz-adv-x="733" d="M61 -35q4 10 12.5 19.5t18.5 13.5q16 6 69.5 8t123.5 2q55 0 113.5 -1t109.5 -3t88 -3t49 -3q18 0 16 -22.5t3 -41.5l6 -24t2 -19q0 -10 -2 -16q0 -10 -5.5 -25.5t-19.5 -15.5q-16 -4 -61 -5t-105 -1q-59 0 -123.5 1t-122 3t-101.5 5t-60 7q-6 0 -6 6q0 2 1 5.5t1 5.5 q-4 16 -5.5 29.5t-1.5 27.5v47z" />
<glyph unicode="`" horiz-adv-x="389" d="M61 1667q0 2 1 2t1 2q14 29 41 44.5t52 27.5q4 4 6 4q10 0 19 -14.5t20 -26.5q8 -6 24.5 -32.5t35 -58.5t34.5 -59.5t20 -35.5q12 -12 13 -27q0 -8 -4 -10l-12.5 -12.5t-17.5 -16.5t-18.5 -15t-11.5 -9t-31.5 29.5t-64.5 70.5t-64.5 73.5t-29.5 41.5q-2 8 -7.5 13t-5.5 9 z" />
<glyph unicode="a" d="M70 29q2 53 13 109.5t21 109.5q0 35 5.5 63.5t9.5 63.5q2 92 15 185t28 188q16 129 35.5 249.5t31.5 247.5q4 25 11.5 50.5t17.5 47.5q4 6 12.5 15.5t18.5 13.5q4 2 10 2q18 0 34.5 -4t33.5 -8q10 -2 30 -2q18 0 38 3t38 3q6 0 11 -1t12 1q18 -4 24 -16.5t6 -28.5 q0 -14 -2 -27.5t0 -25.5q10 -43 19.5 -83t11.5 -81v-24.5t-2 -24.5q-2 -4 -11.5 -9.5t-13.5 -13.5q2 -12 11.5 -28.5t25.5 -20.5q-2 0 6 8q16 -102 24.5 -201.5t29.5 -203.5q10 -51 15 -99.5t22 -97.5q6 -35 6 -67.5t4 -67.5q10 -53 22.5 -105.5t14.5 -105.5v-18 q-4 -12 -12.5 -20.5t-16.5 -12.5q-6 -2 -21 -2q-20 0 -42.5 3t-43.5 3q-16 -2 -35.5 2t-19.5 27q-4 35 -5 69.5t-11 67.5q-4 12 -15.5 25.5t-25.5 13.5q-23 2 -44.5 4t-43.5 2q-25 -2 -47.5 -6t-42.5 -19q-23 -12 -25 -36.5t-6 -47.5q-8 -14 -4 -34.5t-8 -30.5 q-35 -29 -82 -29h-11q-41 0 -77 25zM156 129q0 -4 15 -4h22q10 10 14 26.5t12 30.5q6 8 2 19q0 25 -24 37q-4 -2 -10.5 -3.5t-6.5 -5.5q-2 -8 1 -14t3 -10v-6q2 -16 -7 -32.5t-19 -35.5q-2 0 -2 -2zM188 86q8 0 9 4l-4 2v4q-2 -2 0 -4q0 -2 -3 -4zM199 373q0 -6 12 -6 q12 18 35 22q4 2 3 10.5t1 12.5q-2 -10 -9.5 -14.5t-15.5 -7.5l-16 -6t-10 -11zM242 793q0 -4 3 -5.5t3 -5.5q0 4 1 4t1 2q0 4 -8 5zM260 682l4 2q2 2 5 3t3 5l-2 2q-2 0 -4 2v-10l-2 -2q-2 0 -4 -2zM299 1149q0 -10 4 -19.5t14 -13.5q6 0 13.5 -2t13.5 0q10 0 16.5 10.5 t14.5 14.5q16 4 34.5 9t16.5 26v4q-4 -4 -12 -4q-10 0 -19.5 6t-19.5 6q-4 2 -17 2q-10 0 -24.5 -4t-24.5 -8q-10 -6 -10 -27zM305 416q0 -8 10 -19q18 -4 38 -6t38 -4q16 2 32.5 7t27.5 18v16q-4 66 -15.5 132.5t-13.5 135.5q-2 41 -5 80t-14 80q-6 35 -7 68.5t-21 66.5 q-10 -88 -21.5 -174t-23.5 -176q-4 -45 -9.5 -88t-9.5 -88q2 -10 -1 -20.5t-3 -20.5q-2 -2 -2 -8zM361 1254q0 -5 4 -5q8 0 8 11l-2 2q-2 0 -4.5 1t-4.5 1zM514 412q2 -6 6 -16.5t10 -12.5q14 0 11 18v27q0 4 -11 4q-16 -2 -16 -20zM578 207q0 -2 3 -9.5t7 -7.5t7 8.5 t9 10.5h17q4 4 5 7t3 7q0 20 -17 21q-10 -2 -21 -13.5t-13 -23.5z" />
<glyph unicode="b" horiz-adv-x="786" d="M61 33q0 66 3.5 129t3.5 127q0 209 4 412.5t4 410.5v117.5t-2 118.5q0 14 14 14q16 2 34.5 3t35.5 1q37 0 73.5 -2t71.5 -2h33q27 0 53.5 2t52.5 2h26.5t25.5 -4q39 -10 73.5 -30.5t61.5 -57.5q43 -61 60.5 -131t17.5 -142q0 -23 -1 -43t-1 -38q-8 -16 -14.5 -36 t-10.5 -42q-4 -14 -12.5 -28.5t-18.5 -27.5q-8 -16 -21.5 -25t-27.5 -16.5t-28.5 -16.5t-22.5 -21v-5q0 -10 7 -15t11 -13q88 -53 123 -133t35 -172q0 -49 -8.5 -98.5t-22.5 -96.5q-14 -55 -49 -96t-90 -64q-6 -2 -16 -2q-8 0 -16.5 1t-16.5 1q-4 0 -6 1t-4 1 q-25 0 -47.5 -10t-49.5 -10q-10 0 -16 2q-29 4 -56.5 6t-56.5 2q-25 0 -49 -1t-49 -1q-20 0 -40.5 1t-43.5 3q-6 4 -14 10.5t-13 14.5zM117 915q0 -16 1 -30.5t3 -30.5q2 -8 8 -8q4 0 11 4t12 4q16 -8 16 -29q0 -4 -3 -8t-7 -4t-10.5 6t-12.5 6q-2 0 -2 -1t-2 -1 q-12 -4 -12 -20q0 -2 1 -3t1 -3q16 -20 14 -36t2 -34q4 -6 5 -15.5t10 -9.5q8 4 17 5.5t9 5.5q27 33 27 73q0 18 -6 37q-2 10 -7.5 23.5t-5.5 23.5q0 8 4 17q12 25 13 47q0 10 -2 20.5t-6 20.5v4q0 6 5 12t5 17q0 16 2 32.5t2 32.5q0 33 -14 47q-8 -12 -10.5 -21t-8.5 -18 q-8 -4 -17 -3t-18 -7v-14q8 -16 21.5 -18.5t27.5 -2.5q4 0 5 -8q-12 -23 -35 -26t-33 -23q-6 -16 -8 -31.5t-2 -32.5zM135 336q0 -12 10 -27h15q10 0 20 9.5t10 19.5t-11 16t-19 6t-16.5 -6t-8.5 -18zM141 639h17q12 0 14 4q0 4 -6 9t-10 5h-15v-18zM141 1217q8 -6 7 -16.5 t4 -16.5q6 -8 18 -8t14 6t2 14q0 12 -4 25.5t-6 29.5q-4 8 -12 15.5t-12 17.5q-10 -6 -11 -16q0 -6 2 -13.5t2 -13.5t-2 -10t-2 -8v-6zM176 168q0 -4 2 -4q4 0 8 3t9 3q8 0 10 7t6 11q2 2 2 5q0 6 -8 6q-14 0 -21.5 -10.5t-7.5 -20.5zM254 334q0 -35 4 -63.5t8 -61.5 q4 -8 9.5 -15.5t13.5 -11.5q33 -6 69 -6q43 0 82 13.5t66 52.5q20 25 27.5 52.5t7.5 55.5q0 31 -5.5 63.5t-7.5 65.5q0 35 -14 70t-49 61q-20 14 -39.5 19.5t-40.5 5.5q-23 0 -45.5 -3t-44.5 -3q-2 -4 -10.5 -5t-12.5 -8q-10 -31 -12 -61.5t-2 -58.5v-56q0 -27 -2 -53.5 t-2 -52.5zM264 1010q0 -19 2 -35q2 -10 2 -31q0 -16 -1 -32.5t-1 -32.5q0 -29 6 -56q4 -8 11.5 -14t11.5 -6q23 1 46 1h23h7q31 0 61 9q23 8 40 24.5t28 34.5q16 33 19 69t3 73q0 41 -10 85t-51 64q-10 6 -28.5 11.5t-33.5 5.5q-14 0 -25.5 -2t-23.5 -2q-14 0 -22 2 q-6 2 -17 2q-22 -1 -28 -17q-10 -29 -14.5 -58.5t-4.5 -57.5v-37zM575 1071q0 -12 7 -31h12q0 6 -1 12.5t-1 10.5q0 6 2 8q4 6 7 12.5t3 14.5q0 14 -12 14q-4 0 -6 -1t-4 -1v-4q0 -2 2 -2q0 -2 -2 -4q-6 -12 -7 -29zM614 938q0 -8 9 -14q4 0 11 4t7 12q0 4 1 5t1 5t-6 8 q-2 0 -4 1.5t-6 1.5q-9 -1 -11 -7q0 -4 -1 -8t-1 -8z" />
<glyph unicode="c" horiz-adv-x="792" d="M63 641v92t1.5 59.5t2.5 43t2 42t3 58.5t4 92q4 57 20.5 117.5t48.5 116.5q33 53 80 81q16 8 30.5 14.5t31.5 10.5q55 14 116 14q63 0 115 -14q35 -8 66.5 -26.5t54.5 -53.5q12 -20 24.5 -37.5t16.5 -40.5q8 -41 16.5 -78.5t8.5 -78.5v-19.5t-3 -19.5q-4 -4 -5 -12.5 t-9 -8.5q-37 -4 -73.5 -6t-71.5 -2q-4 0 -5 4t-12 4q6 25 6 47q0 29 -5 56.5t-11 56.5q-4 18 -19.5 35.5t-37.5 28.5q-31 12 -66 12q-29 0 -56.5 -12.5t-43.5 -42.5q-8 -23 -10 -46.5t-11 -46.5q-4 -12 -4 -23v-24q0 -25 2 -49t2 -49v-21q-6 -152 -6 -305q-12 0 -24 -12 q-7 -6 -9 -10q0 -4 2.5 -6t-2.5 -7q-8 -4 -16 -4t-12 -4l-4 -8q-4 -23 -12.5 -43t-16.5 -41q6 -6 6 -8q16 0 23 10q10 8 7 20.5t-1 16.5q0 12 2 16q8 4 14 2q-4 10 6 27l7 4q6 4 13 8t12 6.5t5 0.5q-1 -47 -1 -94v-46q1 -70 1 -139v-18q0 -33 13.5 -64t46.5 -43 q20 -10 38.5 -20.5t41.5 -10.5h10q16 4 29.5 9.5t29.5 11.5q14 14 28.5 29.5t18.5 27.5q16 23 14.5 48.5t6.5 52.5q2 4 2 14q0 12 -3 25.5t-3 23.5q0 14 10 21q20 14 45 14q27 0 52.5 -8.5t53.5 -8.5q12 0 19 3q4 0 4 -3q0 -4 -1 -6t-1 -4q8 -33 8 -74v-15q0 -28 -5 -54 q-7 -34 -17 -68q-6 -29 -15.5 -57.5t-32.5 -52.5q-23 -23 -47 -38.5t-49 -29.5q-29 -10 -57.5 -12t-59.5 -2h-53q-12 -2 -23.5 -3t-21.5 -1q-31 0 -57 6q-29 12 -55.5 22.5t-57.5 24.5q-29 14 -43 42t-29 56q-16 37 -20 58.5t-4 62.5q0 12 1 23.5t3 21.5q0 6 -10 14.5 t-10 18.5t10 17t12 24q2 2 6 2t9.5 -1t9.5 -1q8 0 10 8q0 4 1 10t1 13q0 14 -8 14q-6 0 -12.5 -2t-12.5 -2t-6 6q-12 55 -17.5 109.5t-5.5 107.5zM156 289h12q8 0 10 4v4q0 14 -16 14q-7 0 -7 -6zM160 395q0 -6 1 -16t7 -10q4 0 6 2q10 12 20.5 22t10.5 27v6q-4 -4 -11.5 -8 t-11.5 -8t-13 -7.5t-9 -7.5zM166 997q0 -8 4 -8t6 2q2 0 2 2q0 10 4 11q0 4 -8 4q-4 -4 -8 -11zM174 717q0 -8 6 -14.5t10 -10.5h11h18t14 -8q6 8 7 16q0 14 -11 21q-10 12 -24 12q-6 0 -12.5 -2t-12.5 -4q-6 -4 -6 -10z" />
<glyph unicode="d" horiz-adv-x="837" d="M61 1313q0 29 19.5 50t48.5 21q8 0 21 -4q41 -14 87 -18t93 -4h102h43q51 -4 99.5 -23.5t84.5 -60.5q53 -51 77 -120t24 -142q4 -47 10 -93.5t6 -93.5v-26q-4 -20 -7 -40t-3 -40q0 -10 1 -18.5t3 -18.5v-23q0 -23 1 -45t1 -45v-21t-2 -22q-8 -57 -12 -112.5t-8 -112.5 q0 -59 -15.5 -116.5t-50.5 -106.5q-12 -20 -31.5 -34.5t-38.5 -31.5q-29 -14 -58.5 -19t-61.5 -5q-78 -4 -151 -4h-148h-21h-31q-12 0 -25.5 2t-27.5 8q-6 6 -12 14t-6 19q0 74 4 145.5t4 142.5q0 31 -2 63t-2 62q0 41 2 80t2 80q0 29 -2 57.5t-2 57.5q0 41 2 81t2 81 q0 12 -1 24t-1 25q0 14 2 28.5t2 28.5q-2 12 -2 24.5v24.5q0 33 2 63.5t2 63.5v20.5t-2 20.5q-4 31 -12.5 57.5t-8.5 55.5zM154 350q4 2 8 2t7 -2t9 -2q14 0 22.5 9.5t8.5 21.5q0 10 -6 16h-8q-6 -29 -31 -28q-4 0 -5 1t-5 1v-19zM266 965q0 -10 2 -23.5t2 -26.5v-24 q0 -29 2 -55.5t2 -53.5q0 -14 -1 -26.5t-3 -24.5q0 -260 19 -526q0 -6 9 -13.5t19 -7.5h62t59 4h17q23 4 41 12.5t39 20.5q20 23 24 49.5t8 51.5q4 23 4 45v45q6 55 6 112q0 20 -1 42q-1 20 -1 40q0 58 7 115q0 16 -15.5 27.5t-15.5 29.5q0 12 10 11t14 4q8 23 21 34 q0 2 2 2q4 0 7 -4t7 -4h2q0 10 2 14.5t2 12.5q-8 -4 -14 -4q-14 0 -25.5 9t-11.5 24q-4 35 -4 73.5t-5 75.5t-21.5 67.5t-53.5 49.5q-20 14 -39 14q-33 4 -63.5 9t-61.5 5q-10 0 -21.5 -1t-21.5 -3q-8 -35 -8 -77q0 -16 1 -34t1 -34v-28.5t-4 -28.5z" />
<glyph unicode="e" horiz-adv-x="774" d="M61 1294q0 16 11.5 35t33.5 19q92 4 184.5 7t186.5 7q31 2 61.5 6t59.5 4q16 0 30.5 -2t26.5 -8q23 -12 29 -37t6 -53q0 -16 -1 -31.5t-1 -30.5q0 -8 -7 -14t-15 -8q-33 -4 -65 -4h-66q-41 0 -83 1t-85 1q-16 0 -34 -1t-34 -1q-18 -4 -26.5 -19.5t-8.5 -31.5 q0 -47 -1 -95.5t-1 -95.5q0 -74 6 -143q8 -18 23 -23q29 -14 61 -14q18 0 38 2t38 2q10 0 20.5 -1t20.5 -1q23 0 43 3t43 3q8 0 16.5 -1t18.5 -3q2 -29 6 -55.5t4 -55.5q0 -25 -6 -51q-4 -6 -9 -8t-7 -6q-37 -6 -72 -6t-70 3t-69 3q-16 0 -34 -1t-34 -5q-16 0 -20.5 -13.5 t-4.5 -23.5q-2 -41 -3 -84t-1 -84q0 -43 1 -85t3 -83q4 -8 6.5 -18.5t12.5 -14.5q47 -2 92 -4t90 -2q98 0 201 12q4 0 11 -4t9 -8q6 -23 11.5 -45.5t5.5 -44.5q0 -35 -19 -74q-2 -4 -4 -6q-4 -4 -8 -4q-14 -2 -27.5 -2h-27.5q-47 0 -96.5 4t-96.5 4q-53 0 -108.5 -4 t-110.5 -4h-28.5t-28.5 2q-16 0 -40 3t-28 26q-8 47 -10 90t-2 86q0 57 2 112.5t2 114.5q0 45 -3 91t-3 93q0 29 1 56.5t1 54.5v30.5t-2 30.5q0 41 -2 84t-2 84q4 43 4 85v85q-4 45 -9.5 85t-5.5 85zM190 557q0 -2 3.5 -2t3.5 -4q0 2 2 2q0 4 -3 2t-3 6q-2 -2 -3 -4z M449 1245q2 -6 10 -6q4 0 8 1t8 1q0 12 -2 12t-2 -6q0 -4 -2 -6q-6 4 -20 4zM467 94q0 -14 10 -28h15q12 0 21 11t9 19v4q-10 18 -28 19q-17 -1 -25 -15q-2 -4 -2 -10z" />
<glyph unicode="f" horiz-adv-x="739" d="M61 33q0 190 3.5 380.5t3.5 379.5q0 139 -3.5 271t-3.5 269q0 10 10.5 14.5t22.5 4.5q16 2 33.5 2h34.5q59 0 120.5 -3t120.5 -3q25 0 50.5 1t50.5 3q29 0 53.5 3t50.5 3q18 0 41 -1t27 -24q2 -12 2 -24.5v-24.5q0 -27 -1 -52.5t-1 -47.5q0 -10 -9.5 -15.5t-15.5 -5.5 h-41q-51 0 -101 4t-101 4q-16 0 -32 -1t-32 -3q-20 -4 -47 -6t-31 -28q-6 -29 -8 -56.5t-2 -56.5q0 -47 3 -93t3 -93v-21q0 -10 2 -19.5t8 -11.5q25 -14 49.5 -19t53.5 -5q33 0 65.5 4t63.5 4q4 0 9 -1t11 -1q8 0 19 6h18t12 -4q14 -16 15 -39q0 -16 -4 -31.5t-6 -31.5 q0 -14 5 -28.5t5 -29.5q0 -10 -10 -24q-8 -12 -19 -13q-41 0 -84 3t-84 3q-45 0 -84 -6q-16 0 -28.5 -9t-12.5 -23q3 -67 3 -135v-34v-19q0 -76 7 -152q2 -10 3 -31q0 -35 -7 -72q0 -16 3.5 -35.5t11.5 -35.5q0 -4 1 -7.5t1 -7.5q0 -6 -6 -8q-33 -16 -72 -16q-16 0 -32.5 1 t-33.5 1h-16t-18 -2q-2 0 -4.5 -1t-4.5 -1q-16 0 -28.5 15t-12.5 36zM78 145q0 -6 6 -6q14 0 16 4q6 6 6 13q0 4 -3 8t-9 4q-8 0 -10 -6t-6 -8v-9zM111 184l6 4l-6 5v-9zM131 283q0 -8 6 -11q0 4 -2 6.5t-2 6.5v16q0 -4 -1 -9t-1 -9zM131 375q0 -16 12.5 -23.5t16.5 -13.5 q12 -12 12 -21q0 -10 -12 -16q23 -8 30 -29v-2q0 -10 -15 -13t-15 -17v-9q0 -12 3 -22t3 -21q0 -8 7 -14t17 -6q14 0 19.5 12.5t5.5 28.5q0 12 -2 18q-4 4 -8 6.5t-4 6.5q4 12 12 20t8 19q0 2 -4 10q-20 29 -31.5 58.5t-25.5 58.5h-15q-14 -14 -14 -31z" />
<glyph unicode="g" horiz-adv-x="808" d="M61 645q0 35 1 72t4 71q3 54 3 110v28v8q0 65 15 133q4 29 9 56.5t13 56.5q20 66 69.5 105.5t109.5 68.5q29 14 56.5 17t55.5 3q29 0 56.5 -2t56.5 -2h10q18 0 40 -7t40 -17q27 -20 46.5 -43t41.5 -46q37 -37 47 -84t10 -94q0 -23 -1 -45t-1 -45q0 -8 -12 -8 q-23 0 -46 -1t-46 -1q-20 0 -40.5 2t-41.5 8v25v55q0 20 -2 38.5t-12 37.5q-16 37 -49 60.5t-74 23.5h-8q-45 -8 -84 -39t-43 -78q-2 -29 -4 -54.5t-2 -53.5q0 -12 1 -23.5t1 -24.5v-102v-145v-68t-5 -68v-10q0 -12 2.5 -24.5t2.5 -24.5q-2 -35 -3.5 -67.5t-1.5 -67.5 t2.5 -67.5t6.5 -67.5q4 -20 11 -37t19 -39q37 -39 91 -39q8 0 16 -1t18 -1t17 2q10 0 18 7t19 11q33 12 49 43q12 39 23.5 83t11.5 85q0 35 -12.5 67t-43.5 54q-2 2 -6 2q-8 0 -18.5 -5t-20.5 -5q-6 0 -12 6q-10 12 -14.5 28.5t-4.5 33.5q0 16 2.5 34.5t2.5 34.5 q0 10 8 12.5t16 6.5q2 0 3 1t3 1q10 0 16.5 -4t16.5 -4q2 2 8 2q4 0 9.5 -1t11.5 -1h6q12 4 24.5 4h26.5q16 0 34.5 -1t37.5 -1q12 0 24.5 1t24.5 3q8 0 15 -6.5t7 -12.5q2 -72 3.5 -146.5t1.5 -148.5t-1.5 -147.5t-3.5 -147.5q0 -4 -2 -17t-14 -19q-16 -4 -25 -5 q-16 0 -33.5 3.5t-33.5 3.5q-18 4 -21.5 24.5t-17.5 30.5q-10 6 -16 6q-8 0 -14.5 -5t-12.5 -9q-27 -23 -50.5 -38.5t-51.5 -15.5q-41 -6 -82 -6q-35 0 -70 5.5t-66 19.5q-41 14 -72.5 42t-43.5 68q-16 37 -26.5 76t-10.5 80q0 12 1 23.5t3 21.5q0 6 -10.5 14.5t-10.5 18.5 t10.5 17.5t12.5 23.5q2 2 6 2t9 -1t10 -1q8 0 10 8q0 4 1 10.5t1 12.5q0 14 -8 14q-6 0 -12.5 -2t-12.5 -2t-6 6q-12 55 -17.5 109.5t-5.5 107.5zM309 49q12 -12 39 -12q14 0 24.5 6t10.5 18q0 8 -6 9q-6 0 -17.5 -8.5t-19.5 -12.5q-4 -2 -8 -2t-9.5 1t-13.5 1zM578 514 q0 -12 16 -20.5t33 -22.5q6 -6 28 -6h19q16 12 20 27v4q0 8 -7 11t-13 7q-4 -4 -15 -4q-14 10 -31.5 20.5t-29.5 10.5q-18 0 -20 -23v-4zM582 117q10 -8 12 -17.5t6 -9.5q23 0 36 23t23 39q4 12 5 20q0 18 -9.5 35.5t-29.5 17.5q-6 0 -11 -2q-8 -4 -15 -13t-7 -20 q0 -12 8 -15t17.5 -5t17.5 -4t8 -10v-4q0 -12 -11 -17.5t-28 -5.5q-6 0 -10 -6t-12 -6zM639 420q0 -8 8 -6t12 -6q2 -2 5 -2q6 0 6 8v10q-12 8 -21 8q-10 0 -10 -12z" />
<glyph unicode="h" horiz-adv-x="804" d="M61 729q0 6 5.5 13.5t5.5 15.5q-2 59 -4 120.5t-2 120.5q0 37 1 74t1 72q0 51 -3.5 99t-3.5 102q0 10 12.5 17t18.5 7q23 4 45.5 7t44.5 3q20 0 39 -4t35 -16q25 -16 25 -53q0 -14 -2.5 -29.5t-2.5 -32.5v-12q6 -23 7 -43q0 -20 -3.5 -41t-3.5 -43q0 -27 -1 -53.5 t-1 -55.5v-27.5t2 -25.5v-43q0 -23 2.5 -46.5t12.5 -43.5q6 -14 23.5 -24.5t37.5 -10.5q4 0 6 1t7 1q10 2 30 2q18 0 37 -1t37 -1q16 0 32.5 2t33.5 13q-2 59 -3.5 116.5t-1.5 116.5v117.5t5 118.5q2 27 5 53t19 49h19q20 0 38.5 1t36.5 1q20 0 39 -3t35 -13q6 -53 8 -104.5 t2 -104.5v-125v-84q0 -70 3 -138.5t3 -138.5q0 -72 -6 -141v-252t6 -248q0 -6 -9 -16t-15 -14q-8 -2 -25 -2q-23 0 -47 3t-47 3q-10 0 -20.5 -1t-20.5 -3q0 10 -8 9t-8 7q-4 47 -6 91t-2 89q0 53 1 103.5t1 101.5q0 27 1 53.5t1 53.5v26t-2 27q-2 16 -13.5 27.5t-25.5 11.5 q-2 0 -4 -1t-5 -1q-8 -2 -28 -2q-16 0 -33.5 2t-36.5 2q-33 0 -55 -11q-10 0 -20.5 -4t-14.5 -10q-14 -35 -16 -67.5t-2 -67.5q4 -61 6 -121.5t2 -120.5q0 -23 -1 -42t-1 -40q0 -12 2 -26.5t2 -28.5q0 -29 -17 -39q-23 -20 -59 -20q-25 0 -52.5 5t-55.5 5h-13q-4 0 -16 9 t-12 20q2 98 5 194t3 195q0 59 -2 117.5t-6 117.5q0 20 -1 41t-6 39zM596 100q0 -2 2 -4h8q4 4 8 7t4 10q0 10 -12 10q0 -6 -4 -10q-2 -4 -4 -6.5t-2 -6.5zM641 188q0 -12 4 -20q4 10 7 18.5t7 18.5q4 6 13.5 5t9.5 3t-7 9t-18 5q-6 0 -8 -4q-2 -8 -5 -16t-3 -19zM651 86 q0 -8 5.5 -18.5t9.5 -22.5q0 -2 2 -2q4 0 7 4t5 6q4 8 4 25q0 22 -11 22h-1q-4 0 -12.5 -4t-8.5 -10z" />
<glyph unicode="i" horiz-adv-x="339" d="M61 879q6 74 7 149q0 76 -3.5 150.5t-3.5 150.5q0 16 5.5 30.5t19.5 14.5q23 2 45.5 5t44.5 3q18 0 35.5 -4t34.5 -14q18 -10 22 -26.5t4 -37.5v-28q-10 -16 -10 -25q7 -71 7 -140v-17v-32q0 -62 3 -126q0 -70 1 -138.5t1 -138.5v-70.5t-2 -70.5q0 -14 -1 -28.5t-1 -28.5 q0 -59 4.5 -106.5t4.5 -106.5q0 -35 -1.5 -70t-1.5 -70v-34.5t3 -34.5q0 -6 -9.5 -16.5t-17.5 -14.5q-8 -2 -25 -2q-23 0 -46 3t-46 3q-10 0 -21.5 -1t-21.5 -3q0 10 -6 9t-6 7q-6 41 -8 83t-2 83q0 55 2 100.5t2 98.5v47q2 10 2 19.5v19.5q0 41 -3 80t-3 78q0 18 1 35.5 t3 33.5q0 16 2 31.5t2 32.5q0 11 -4 31q-4 23 -8.5 43t-4.5 43zM162 672q8 0 16 8v9t-4 5q-8 0 -9 -5t-1 -9t-1 -4t-1 -4z" />
<glyph unicode="j" horiz-adv-x="792" d="M61 428q31 0 63 3t62 3q20 0 40 -2t38 -8q10 -6 10 -23q0 -12 -3 -26.5t-3 -28.5q4 -23 7.5 -42t3.5 -40q-2 -6 -3 -16q0 -10 2.5 -17.5t4.5 -17.5q16 -23 34.5 -42t44.5 -24q6 0 12.5 -1t12.5 -1q31 0 57.5 11.5t47.5 40.5q10 16 18 34.5t18 36.5q8 25 8.5 54.5 t0.5 58.5q2 29 6 60.5t4 64.5q0 6 -1 12t-1 12q-6 49 -6 99v33q0 29 -1 57.5t-1 58.5q0 29 2 59.5t6 61.5q0 29 1 59.5t1 59.5q0 90 -4 177t-4 179q0 4 6 8t10 4q31 6 63 7q41 0 82 -7q14 -4 22.5 -15t8.5 -25q-4 -12 -8 -23.5t-4 -22.5q8 -23 8 -51q0 -12 -1 -24.5 t-1 -24.5v-84q0 -150 -3 -299t-3 -301v-119q2 -12 2 -24.5v-26.5q0 -31 -2 -61.5t-6 -61.5q-4 -10 -6 -19t-11 -20q-12 -12 -14 -30.5t-10 -36.5q-37 -61 -92 -95.5t-121 -44.5q-31 -6 -62 -6q-43 0 -84 9.5t-82 25.5q-39 14 -66.5 42t-47 63.5t-30.5 75.5t-17 81 q-5 35 -5 69v11v13q0 33 -4 67z" />
<glyph unicode="k" horiz-adv-x="757" d="M61 850q4 14 7.5 28.5t3.5 28.5q2 16 2 30.5v31.5q0 31 -1 60.5t-1 62.5q0 63 -3 122.5t-3 120.5q0 10 5 24.5t19 18.5q14 2 27.5 2h25.5q23 0 44.5 -2t39.5 -8q29 -10 32 -47t3 -66q-12 0 -12 -4q4 -20 4 -40.5v-41.5v-84q0 -27 2 -52t6 -54q0 -14 2 -31.5t2 -34.5 q-8 -16 -8 -38q0 -10 4 -31v-6q0 -14 -4 -26.5t-4 -22.5q0 -14 12 -29q20 25 33.5 51.5t23 55t16.5 56t17 56.5q4 10 10.5 23.5t6.5 23.5q12 72 33.5 130.5t37.5 121.5q4 20 5 31q0 8 -5 28q0 12 15 21q23 4 44 7t44 3q27 0 52.5 -3t53.5 -7q4 0 9.5 -5t5.5 -9 q-4 -20 -13.5 -36t-17.5 -34q-8 -35 -15.5 -70t-17.5 -69q-10 -37 -26.5 -71t-26.5 -71q0 -4 5 -5t5 -5q0 -6 -8 -6t-8 -8q0 -4 4 -11.5t4 -11.5q0 -2 -2 -4q-23 -49 -35 -99t-29 -97q-10 6 -18 6q-16 0 -31.5 -16.5t-31.5 -32.5q-4 -4 -5 -7q0 -4 7.5 -9t13.5 -5h2 q10 0 16 -3t13 -3q16 0 16 18v9q0 14 8 18q47 -139 92 -273.5t78 -281.5q10 -41 28.5 -80t18.5 -82v-4q0 -2 1 -3t1 -3q0 -6 -4 -6q-31 -6 -61 -6q-35 0 -65.5 4t-65.5 8q-16 0 -22.5 16.5t-10.5 32.5q-6 14 -6 33q0 10 1 20.5t1 20.5t-2 16q-2 10 -7 11t-10 6v14 q-4 2 -10 6t-10 8q-2 8 -2 25q0 16 2 24q-8 4 -5 10.5t-5 12.5q-16 10 -13.5 29.5t-7.5 33.5q-20 66 -37.5 131.5t-38.5 131.5q-8 12 -14 22t-14 21q-4 10 -4 26.5t-13 24.5q-2 0 -4 2q-10 0 -18 -9.5t-8 -19.5q0 -16 10 -29.5t10 -27.5q4 -98 4 -195.5v-195.5 q0 -29 1 -53.5t1 -49.5q0 -39 -6 -82q-4 -18 -19.5 -23t-31.5 -5h-43h-57q-23 2 -29 16t-6 35q0 16 2 32.5t2 30.5v8q-4 37 -4 73v71v139v111q0 41 -3 77.5t-3 73.5q0 33 5 62.5t5 64.5q0 16 -9.5 36t-9.5 36zM147 686q0 -4 1.5 -7t1.5 -7q6 0 6 4q0 2 1 5t1 7q0 6 -4 6 q-6 0 -7 -8z" />
<glyph unicode="l" horiz-adv-x="716" d="M61 14q4 47 4.5 91.5t0.5 89.5v167v65t2 65q6 8 6 20q0 6 -2 6q-2 6 -2 19q0 8 1 16t1 14v138q4 59 4 116.5v116.5v416q0 8 7 14t13 10q10 2 21.5 2h21.5q49 0 105 -6q4 -4 8 -10t8 -14q-4 -12 -4 -24.5t-2 -12.5q-8 0 -10 -8q-4 -4 -20.5 -6.5t-18.5 -6.5q0 -2 -1 -4 t-1 -4q0 -8 13 -23.5t17 -15.5h7q12 0 22 15v-56q0 -72 -1 -143.5t-1 -145.5v-360q0 -57 -3 -111.5t-3 -109.5t6 -111q4 -8 11.5 -15t17.5 -11q23 -6 43 -11.5t43 -5.5q10 0 18 1t19 3q4 2 12 2t15 -1t12 -1q33 0 62.5 -1t59.5 -1h30.5t31.5 2q10 0 13 -6t3 -12v-4 q0 -25 2 -47.5t2 -46.5v-15.5t-2 -17.5q0 -23 -14 -29q-45 -10 -88 -13t-86 -3q-76 0 -150 6q-39 0 -77.5 -3t-79.5 -3q-39 0 -82 6q-6 4 -10.5 10t-4.5 8z" />
<glyph unicode="m" horiz-adv-x="1024" d="M61 78q0 33 7.5 67.5t7.5 69.5q0 18 -2 41t-2 45q2 23 6 45.5t4 44.5q0 18 -6 41q-2 10 -2 19.5v19.5q0 35 4 68.5t4 68.5q-2 4 -2 17q0 10 2 22t2 23q0 10 -2 14q0 66 -1 130.5t-1 129.5v57.5t2 57.5v132t-10 128q0 4 -1 6t-1 6q0 10 5 20.5t17 12.5q23 4 43.5 6t40.5 2 q47 0 100 -12q8 -2 14.5 -3t14.5 -1q16 0 33.5 2t36.5 2h14q4 -4 9 -5t8 -5q17 -37 17 -76v-12q-1 -15 -1 -30q0 -31 4 -63q16 -104 37.5 -200.5t56.5 -196.5q6 -14 15 -14q8 0 15 7t7 17q20 141 45 275.5t35 277.5q4 27 20 35q35 2 67 3t67 1q37 0 73.5 -2t77.5 -8 q6 -4 8 -12.5t2 -16.5q2 -10 2 -28q0 -14 -1 -27.5t-1 -28.5v-12q0 -37 -1 -73t-1 -70q0 -29 1 -58.5t1 -60.5q-2 -109 -2 -213.5v-208.5q0 -18 2 -36.5t2 -39.5q0 -10 -1 -18t-3 -19v-61q2 -12 6.5 -26.5t4.5 -26.5q-1 -9 -3 -13q-2 -8 -2 -24q0 -18 3.5 -36.5t3.5 -39.5 v-16.5t-5 -18.5q-10 -35 -10 -63q0 -6 1 -12.5t1 -12.5q2 -14 2 -26.5v-26.5q-2 -16 -6 -27.5t-20 -15.5q-6 -2 -23 -2q-31 0 -55 6q-6 0 -13.5 -1t-15.5 -1q-18 0 -28 14q-4 4 -7.5 12.5t-3.5 14.5q0 135 5.5 267t5.5 267v66v121q0 61 -3.5 122.5t-17.5 123.5q0 8 -8 8 q-2 0 -2 -1t-2 -1h-2q-27 -82 -42.5 -163t-26.5 -163t-21.5 -165t-26.5 -167q-14 -84 -24.5 -161.5t-26.5 -161.5q-4 -23 -20.5 -30t-39.5 -7q-16 0 -33.5 2t-33.5 4q-23 147 -39 290.5t-45 291.5q-8 35 -8 69.5t-9 67.5q-8 18 -10 35.5t-6 38.5q-14 66 -26.5 128t-22.5 128 q-8 16 -23 16q-2 0 -3 -1t-3 -1q-10 -10 -13 -22.5t-3 -24.5v-37v-51q2 -31 2 -62.5v-62.5q0 -70 -1 -138.5t-3 -140.5q0 -8 -2 -17t-2 -15q2 -10 2 -22.5v-23.5q0 -18 -1 -37.5t-1 -37.5q0 -14 1 -27.5t3 -28.5q0 -6 1 -12t1 -10q0 -10 -1 -21.5t-1 -25.5v-10q0 -16 -2 -33 t-2 -37q2 -10 2 -21.5v-23.5q0 -23 -1 -45.5t-1 -44.5v-15q0 -6 -1 -12t-10 -8q-41 -10 -81 -10q-23 0 -43.5 6t-32.5 22q-14 29 -15 64zM133 799q0 -8 6 -17q4 8 5 16.5t12 16.5q4 4 13 4t9 10q-4 0 -7 2.5t-11 2.5q-2 0 -6 3t-9 3q-4 0 -6 -6q0 -10 -3 -17.5t-3 -17.5z M135 707q0 -12 7.5 -23.5t7.5 -21.5q0 -23 9 -38.5t19 -29.5q2 -2 6 -2q15 0 15 10q2 10 3 21.5t1 21.5q0 16 -2 30.5t-8 29.5q-4 6 -8.5 13t-20.5 7q-10 0 -19.5 -4t-9.5 -14zM147 90q0 -10 7.5 -17t13.5 -7q12 0 20 18q0 2 1 3t1 5q0 8 -4 17.5t-8 19.5h-12 q-18 -18 -19 -39zM156 244l4 -4q0 -27 20 -27h4q8 2 9 6q0 6 -9.5 14.5t-13.5 12.5q-2 0 -4 1t-6 1t-4 -4zM156 889q8 8 16 7t16 3q17 11 17 29q0 12 3 25.5t3 27.5q0 20 -12 31q-10 6 -21 6q-8 0 -10 -6t-2 -13q0 -12 3 -24t3 -25q0 -8 -2 -12q-14 -23 -14 -49zM160 1155 q10 6 11 10t13 4q-4 2 -8 2l-4 -4q-4 0 -6 -6zM164 1049q0 -4 1 -9.5t1 -11.5h12q8 0 10 4q0 4 1 10.5t1 10.5q0 6 -6 6q-4 0 -5 2t-5 2q-10 -2 -10 -14zM170 1243q0 -16 14 -16q6 0 9 2v4v10q-1 4 -5 4t-8 1t-6 1q-4 0 -4 -2v-4zM872 489q0 -20 4.5 -39.5t14.5 -35.5 q4 0 8 2q10 4 10 10q0 4 -2 6h-6q-4 0 -4 6q0 4 -1 5t-1 3q0 12 6 22.5t6 23.5v12q-29 14 -28 41q4 8 8 13t16 5q-8 6 -8 12q0 8 8 21q4 4 4 12q0 -8 -3 -10t-6 -2t-6 -1t-5 -7q-8 -20 -8 -29q-2 -16 -4.5 -34.5t-2.5 -35.5zM887 272h10v19h-10v-19zM889 360q0 -6 10 -6t8 0 v15q-4 -6 -16 -7zM901 692q0 -2 2 -4q8 0 12 6q0 4 -4 4q-2 0 -6 -1t-4 -5zM903 647q4 0 4 -12q0 4 3 8t3 8q0 2 -2 4q-4 -6 -8 -8z" />
<glyph unicode="n" horiz-adv-x="759" d="M61 12q6 33 7 70q0 18 -1 35.5t-1 34.5q0 6 1 13t1 15q0 16 -7 29q6 2 7 10q0 4 -1 6t-1 4q4 76 4 150v151q0 49 9 97.5t9 97.5v18q0 6 -6 15.5t-6 19.5t-1 19.5t-1 19.5q0 41 5 82t9 82q0 18 -3 35.5t-3 38.5q-2 23 -3 43t-1 43t1 44t3 44q0 4 1 11t1 13q0 16 -14 27 q6 0 8 2l4 4q-10 16 -10 35q0 29 20 39q25 8 60 8q29 0 59.5 -4t58.5 -4q49 -123 89 -248t81 -252q10 -25 20.5 -52.5t28.5 -49.5q2 0 5.5 -1t7.5 -1q6 0 6 6q4 23 8 45t4 45q0 20 -6 43q8 0 8 8q0 2 -2 4q2 37 3 74t1 72q0 72 -2 143.5t-2 142.5q0 8 17 21q27 4 52 4h52 q6 -4 17.5 -7t11.5 -7q8 -43 10 -87t2 -89q0 -39 -1 -78t-1 -80q3 -64 3 -129v-32v-32q0 -65 3 -129v-59q0 -68 -1 -134.5t-1 -133.5q0 -43 1 -87t3 -90q0 -4 1 -9t1 -11q0 -16 -2 -33.5t-2 -34.5q0 -25 6 -49v-8q0 -8 6 -10q-8 -12 -11 -26.5t-17 -18.5q-20 -4 -42 -6 t-42 -2q-23 0 -44.5 6t-39.5 24q0 39 -15.5 74t-25.5 76q0 6 1 12t1 12q0 8 -2 15q-27 80 -49.5 159.5t-49.5 157.5q-20 68 -39.5 128.5t-35.5 125.5q-4 16 -9.5 22.5t-17.5 16.5h-2q-4 0 -8 -6t-8 -10q-10 -78 -13.5 -154t-3.5 -152q0 -72 2 -142.5t2 -139.5v-51.5 t-2 -49.5q0 -10 1 -24t1 -31v-13t-2 -13q-4 -23 -20.5 -32t-38.5 -9q-23 0 -47.5 4t-44.5 8v6q0 4 -2 5t-4 5h-9zM295 879h14q8 0 8 8q0 3 -6 3h-3q-9 -1 -13 -1v-10zM453 641q2 0 3 1t3 1q12 0 22.5 -13.5t20.5 -17.5q12 -8 12 -16v-2q-4 -12 -15.5 -19.5t-11.5 -17.5 t15.5 -23.5t25.5 -23.5q4 16 18.5 16t24.5 9v20q-23 16 -33 41t-10 51q0 6 -7 4t-7 4q-4 0 -6 -1t-6 -1t-10.5 1t-12.5 1q-20 0 -26 -14zM532 350q6 -27 31 -35q0 8 -5 11.5t-5 7.5q0 2 1 3t1 3q0 4 -4 7t-4 7h-4h-8h-3v-4zM590 655q0 -4 1 -12t5 -8q6 4 16 4t15.5 -10.5 t9.5 -20.5q0 12 1 24.5t5 22.5q2 0 2 7q0 -8 -6 -9l-2 2q-6 4 -16 4q-8 0 -15.5 -2t-15.5 -2z" />
<glyph unicode="o" horiz-adv-x="813" d="M61 592v78h2q20 0 27 6q0 2 1 3t1 3q0 10 -8 16.5t-18 6.5h-5v43q4 29 3 56t-1 56q6 -20 25 -20h4q10 0 10 8q0 6 -5 15t-9 16q-6 10 -10 22t-15 17q2 6 2.5 13t2.5 15q4 33 6 62.5t6 64.5q16 70 44 128.5t81 105.5q31 25 60.5 42t62.5 21q23 4 43 4h43q43 0 88 -8 t86 -37q37 -25 60.5 -56.5t38.5 -68.5t24.5 -77t19.5 -78q10 -59 14.5 -113.5t4.5 -114.5q0 -53 1 -104t1 -105q0 -104 -7 -211v-50t-4 -50q-12 -43 -21 -81t-28 -79q-18 -31 -38.5 -56.5t-49.5 -39.5q-29 -20 -58.5 -34.5t-62.5 -14.5q-55 0 -111.5 8t-111.5 27 q-47 16 -80 47t-54.5 71.5t-33.5 87t-16 93.5q-10 66 -12.5 131t-2.5 131zM100 930q0 -4 5.5 -11.5t9.5 -7.5q6 0 14 8.5t16 8.5q10 0 16.5 -13.5t12.5 -21.5q16 16 16 49q0 20 -4 29q-16 27 -16 57q0 4 -7 5t-11 1q2 -6 2 -18q0 -14 -2 -27.5t-7 -27.5q-2 -8 -9 -10.5 t-15 -4.5t-14.5 -5t-6.5 -11zM104 995q6 0 5.5 -5t3.5 -5h2q4 4 9 8t5 13q0 10 -2 16t-12 6q-10 -2 -11 -16v-17zM254 770q0 -27 1 -52.5t1 -51.5q3 -82 4 -164q0 -21 -1 -41v-9q0 -99 22 -200q6 -55 53 -86q10 -8 20.5 -13.5t20.5 -5.5q4 0 6 1.5t6 1.5q16 0 29.5 -4.5 t27.5 -4.5q16 4 29.5 8.5t30.5 12.5q23 14 37 36.5t14 47.5q10 92 14 181t4 179v80t-2 80q0 33 1 65.5t1 65.5q0 121 -34 244q-10 23 -30 40t-44 21q-14 4 -27.5 6t-29.5 2q-47 0 -87 -22.5t-47 -71.5q-10 -86 -15 -173t-5 -173z" />
<glyph unicode="p" horiz-adv-x="733" d="M61 1185.5v20.5q0 25 2.5 49.5t2.5 49.5q0 8 -1.5 15t-1.5 15q0 10 5.5 24.5t21.5 14.5q47 -4 91 -5t91 -5q18 0 35 -1t33 -1q18 0 37.5 1t40.5 1q8 2 22 2q35 0 64 -20q16 -8 32.5 -15.5t26.5 -17.5q66 -53 92.5 -127t26.5 -154q0 -66 -13.5 -135.5t-31.5 -130.5 q-8 -23 -24.5 -40t-37 -31.5t-44 -25t-44.5 -20.5q-10 -2 -14 -10t-14 -12q-20 0 -35.5 -10.5t-36.5 -14.5h-37q-18 0 -37.5 -3t-38.5 -17q-16 -10 -21 -35t-5 -47q0 -6 -1 -12.5t-1 -12.5q0 -31 4 -61.5t4 -63.5q0 -35 -6 -69.5t-6 -71.5q0 -29 1 -55.5t1 -55.5 q0 -47 -6 -92q-16 -10 -39 -10t-44.5 6t-43.5 6q-4 0 -7.5 -1t-7.5 -1h-2q-6 0 -12 8.5t-10 16.5q0 16 -4.5 32.5t-4.5 32.5q0 12 1.5 24.5t1.5 24.5q0 29 -1.5 58.5t-1.5 58.5v46.5t5 45.5v74q2 4 2 10q0 10 -3.5 20.5t-3.5 18.5q4 12 4.5 23.5t0.5 23.5v54v30q2 18 3 37 t1 37q0 41 -2 81t-2 81v84q0 16 -2.5 38.5t-2.5 45.5q4 16 4.5 32.5t0.5 32.5q0 23 -1 44.5t-4 43.5q-2 10 -2 20.5zM248 932q0 -29 3 -60.5t3 -60.5q29 -23 70 -23q33 0 66.5 12.5t62.5 28.5q27 18 34 50t7 65q0 10 -1 17.5t-1 15.5q-2 25 -2.5 52.5t-4.5 54t-15 50 t-32 42.5q-12 6 -25.5 8t-25.5 6h-119q-8 0 -9 -10.5t-11 -10.5q2 -8 2 -16v-18q0 -18 -1 -36t-1 -32v-135z" />
<glyph unicode="q" horiz-adv-x="823" d="M61 733q0 66 2.5 133.5t4.5 132.5q8 63 18 122t37 118q6 16 27.5 32.5t44.5 24.5q4 2 12 2q18 0 36.5 -9t39.5 -9h10q4 4 9 10t5 13v4q-4 6 -12 9t-15.5 5t-13.5 5t-6 11q0 10 13.5 16.5t23.5 10.5q35 10 68.5 13t66.5 5h11q23 0 47 -7q28 -9 57 -15q27 -4 43 -17.5 t33 -29.5q53 -53 78.5 -120t31.5 -138q0 -8 -1 -15.5t-1 -15.5t2 -12q10 -23 10 -45.5t11 -44.5q2 -4 2 -13q0 -14 -4 -29.5t-4 -31.5v-14q8 -29 10 -57.5t2 -57.5v-57q0 -49 1 -98.5t1 -96.5q0 -43 -2 -85t-6 -85q-10 -41 -20.5 -77t-14.5 -73q0 -10 17.5 -16t17.5 -18 q8 -25 8 -56t-8 -57q-4 -6 -6.5 -12t-8.5 -11q-16 -6 -32 -6t-33 5.5t-27 13.5q-8 4 -7 18.5t-9 26.5q-16 -16 -38 -33.5t-48 -19.5q-72 -23 -139 -23q-80 0 -154 31q-20 12 -36.5 31.5t-35.5 35.5q-23 25 -40 50.5t-27 54.5q-8 27 -11.5 48t-7.5 48q-25 98 -26.5 195.5 t-1.5 195.5q0 20 -2.5 44t-2.5 40zM213 989q10 0 11 -6t5 -6q6 2 7 10q0 12 -11 19q-10 0 -11 -6.5t-1 -10.5zM262 690q0 -106 3 -210.5t11 -211.5q4 -12 8.5 -23.5t8.5 -27.5q20 -78 86 -88q10 -2 21.5 -3t21.5 -1q18 0 35.5 3t34.5 13q16 16 33.5 33t21.5 35 q20 43 25.5 88t5.5 88q0 20 -1.5 39.5t-1.5 38.5q2 59 3.5 118.5t1.5 118.5q0 86 -3.5 173.5t-13.5 175.5q-4 20 -7 41.5t-9 40t-18.5 33t-32.5 20.5q-25 8 -52 8q-29 0 -58.5 -7t-59.5 -16q-23 -6 -39 -28q-10 -12 -12.5 -25.5t-2.5 -28.5v-24q-4 -94 -7 -187.5t-3 -185.5z " />
<glyph unicode="r" d="M61 45q0 12 2.5 24.5t6.5 22.5q12 55 12 109q0 35 -2 69.5t-2 69.5v29q4 47 5 92t1 92q0 10 -1 18.5t-1 18.5q0 37 4 73.5t4 75.5v18.5t-2 18.5v586q20 14 47 14q16 0 34.5 -4t35.5 -4q10 0 26 4q35 0 70 1t70 1h27.5t27.5 -2q23 -4 43 -8t39 -10q12 -4 23.5 -9.5 t21.5 -9.5q76 -43 104 -110q6 -16 13.5 -28.5t7.5 -29.5q0 -8 -2 -12v-72q4 -25 6 -49t2 -51q0 -61 -16.5 -119.5t-59.5 -103.5q-16 -16 -39.5 -24.5t-23.5 -30.5q2 -10 10 -16.5t19.5 -12.5t22.5 -12.5t17 -16.5q16 -25 37 -42t25 -42q24 -188 24 -372v-15q0 -37 -1 -75 t-3 -74q0 -8 -8 -10.5t-12 -6.5q-23 -4 -45.5 -8t-44.5 -4q-37 0 -62 18q-16 10 -16 43v17q10 41 11 76.5t1 70.5q0 12 1 23.5t1 21.5q0 37 -2 73t-2 71v29.5t2 29.5q0 10 -6 23.5t-8 25.5q0 12 -2 22.5t-10 20.5q-29 39 -71 50.5t-87 15.5q-20 0 -43 -4t-27 -27 q-8 -23 -10 -46.5t-2 -47.5q0 -45 6 -90t6 -90q0 -12 -1 -23.5t-3 -24.5q-4 -16 -7 -27t-3 -26q8 -33 9 -63.5t1 -61.5v-71q0 -8 -6 -15.5t-12 -9.5q-12 -6 -25 -6q-14 0 -26.5 3t-24.5 3q-16 -4 -34.5 -6t-35.5 -2q-20 4 -28.5 18.5t-8.5 32.5zM258 1096q0 -20 1 -40t3 -40 q0 -8 1 -15.5t1 -17.5q0 -16 -1 -32.5t-1 -32.5q0 -29 3 -55.5t16 -55.5q27 -6 59 -6q47 0 88 18.5t61 63.5q6 27 10.5 52.5t4.5 51.5q0 29 -4 56.5t-11 56.5q-4 29 -16 58.5t-41 35.5q-23 6 -48.5 12t-51.5 6q-37 0 -66 -14q-4 -27 -6 -52.5t-2 -49.5z" />
<glyph unicode="s" horiz-adv-x="804" d="M61 305q0 18 11 35q29 23 57.5 38t56.5 30q20 -35 29 -71t35 -67q27 -29 54.5 -55.5t64.5 -38.5q25 -6 47 -6q59 0 103 37t44 108q0 25 -7 49.5t-17 49.5q-35 80 -98.5 142t-125.5 126q-4 4 -11 9t-15 5q-6 0 -8 -2q-6 23 -20.5 40.5t-30 33.5t-30 32.5t-20.5 39.5 q-6 29 -17 53.5t-22 46.5q-24 59 -24 124v5q0 70 30 137q18 47 49 89t85 55q41 10 79.5 21t77.5 11q31 0 56 -8q39 -6 71.5 -26.5t63.5 -49.5q35 -29 60.5 -70.5t45.5 -82.5q4 -8 4 -25q0 -16 -6 -22q-20 -23 -47 -48.5t-55 -25.5q-10 0 -17 2q-27 4 -34 34t-27 58 q-31 47 -76 68q-14 6 -28.5 11t-30.5 5q-14 0 -21 -2q-53 -8 -77.5 -45t-24.5 -84q0 -37 16 -74q6 -16 17.5 -30.5t23.5 -32.5q8 -27 33 -45.5t41 -44.5q-14 0 -14 -4q4 -6 9 -10.5t9 -8.5q6 0 6 8q0 2 -1 4.5t-1 4.5v2q16 -20 30.5 -39t33.5 -31q16 -10 30.5 -21.5 t24.5 -21.5q41 -49 80.5 -94.5t68.5 -104.5q14 -37 23.5 -77.5t15.5 -81.5q2 -4 2 -11q0 -12 -4 -24t-4 -23v-32q-14 -55 -32.5 -104.5t-59.5 -90.5q-53 -59 -129 -78q-20 -6 -39.5 -13t-40.5 -11q-53 0 -101 8t-91 43q-4 0 -7.5 5t-7.5 9q-27 14 -51 31q-72 88 -108 198 q-6 14 -7 29zM299 1257q14 0 14 5q0 2 -1 2t-1 2h-12v-9zM326 752q4 -8 13 -9.5t17 -1.5q4 0 4 4t-1 6.5t-1 4.5q0 10 -5 20t-17 15q-10 0 -10 -5v-34z" />
<glyph unicode="t" horiz-adv-x="841" d="M35 1196q0 8 4 16q10 27 24.5 50.5t14.5 52.5q4 16 24 24q100 16 203 18.5t205 2.5q6 0 15.5 -5t17.5 -5q55 12 110 12q23 0 46.5 -2t45.5 -6q16 0 24.5 -13.5t8.5 -29.5q0 -2 -1 -4.5t-1 -6.5t-1 -7t-1 -7q0 -16 3 -31.5t3 -29.5q0 -27 -20 -29q-33 -8 -72 -8 q-31 0 -60.5 3t-60.5 3q-12 0 -24.5 -1t-24.5 -3q-23 -8 -26 -26.5t-3 -33.5q-2 -27 -3 -52t-1 -54q0 -76 4.5 -150.5t4.5 -150.5q2 -4 2 -14t-1 -19.5t-1 -19.5v-15q6 -207 6 -415v-90.5t-2 -92.5q0 -14 -9.5 -30.5t-29.5 -20.5q-35 -6 -66 -6q-41 0 -84 6q-4 0 -9 4t-5 8 q0 37 3 72t3 72q0 12 1 23.5t1 21.5q0 35 -3 68.5t-5 70.5q-2 45 -2 89v89q0 160 4 318.5t4 318.5q0 12 -24.5 21.5t-43.5 9.5q-14 0 -20 -2q-41 -8 -81 -9t-81 -5q-16 0 -16 20zM303 1280q4 0 5 1t3 1q16 0 25.5 -11t21.5 -18q4 -4 8.5 -8t4.5 -10q0 -4 -2 -6 q-10 -10 -17.5 -19.5t-7.5 -13.5q0 -10 16.5 -21.5t20.5 -25.5q2 8 10 12t16.5 6t14.5 5.5t6 13.5t-9 16t-18 17q-20 29 -20 67q0 8 -6 5t-6 5h-11h-22q-23 0 -33 -16zM344 432q0 -27 18 -43q4 6 6.5 16.5t8.5 18.5q4 4 13 5t9 5q0 2 -2 4q-4 6 -21.5 5t-17.5 14q-2 4 -2 10 q0 10 7.5 16t16.5 11.5t18.5 9.5t13.5 10q10 10 14 24.5t4 30.5q0 18 -2 37t-2 35q-4 -4 -7 -9t-7 -5q-27 8 -27 30q0 2 1 4.5t1 4.5q0 8 2 18t12 10q8 0 12.5 -5t6.5 -5q2 4 2 10q0 10 -7 20.5t-7 20.5q0 8 8 17q-4 4 -5 13t-8 9q-4 0 -6 -2q-23 -16 -30 -35.5t-7 -42.5 q0 -4 1 -10t1 -12q0 -4 7.5 -8.5t7.5 -8.5q0 -8 3 -16t3 -16q0 -6 -2 -11q0 -10 -9.5 -20t-9.5 -21v-4q2 -10 3.5 -18t1.5 -19q0 -31 -15 -65q-8 -16 -8 -33zM373 297q0 -14 3 -26.5t5 -26.5q4 -8 13.5 -16.5t13.5 -18.5q8 2 8 12q0 6 -3 14.5t-3 14.5t2 8q4 6 4 21 q-6 4 -5 14t-3 20q-6 8 -19 9q-14 0 -14 -9q-2 -6 -2 -16zM373 961q0 -11 2 -15t11 -12t20 -8q12 0 12 16q0 10 -6 32.5t-17 22.5q-10 0 -16 -13t-6 -23zM416 854l4 -8v-6q0 10 -2 10t-2 4zM430 1288q0 -18 16.5 -20t28.5 -2q0 -8 3 -17.5t7 -9.5h4q18 4 24.5 24.5 t10.5 32.5q0 16 -24 17q-10 0 -18.5 -1t-16.5 -1q-4 0 -7 1t-7 1q-6 0 -13.5 -9.5t-7.5 -15.5z" />
<glyph unicode="u" horiz-adv-x="794" d="M61 715q0 10 1 18t4 19q0 53 1 87.5t1 75.5q0 111 -3.5 219.5t-3.5 219.5q0 4 7.5 8t11.5 8q4 0 6 1t6 1q16 0 30.5 -4t27.5 -4q16 -4 26 -4q16 0 32.5 3t33.5 3q12 0 18 -2q4 0 8 -7t4 -11q-4 -53 -5 -106.5t-1 -102.5v-326q0 -6 13 -6q0 -8 -4.5 -13.5t-8.5 -5.5 q-2 0 -2 1t-2 1q-8 16 -22 17q-8 0 -17.5 -3t-19.5 -3h-6q-8 4 -15.5 9t-13.5 5q-2 0 -3 -1t-3 -1q-23 -12 -21 -33.5t-2 -40.5q-8 -12 -8 -26q0 -4 1 -6.5t1 -6.5q8 -12 21.5 -15t29.5 -3h21q12 0 19 7t16 18v-7q0 -10 11 -15t15 -11q4 -29 6 -53.5t2 -51.5q0 -31 -3 -61.5 t-3 -63.5v-20t4 -21q2 -6 2 -22q0 -12 -1 -26.5t-1 -26.5q4 -23 7.5 -41.5t3.5 -40.5q0 -4 -1 -6t-1 -7q0 -18 8 -34q14 -23 32.5 -45.5t45.5 -22.5q8 0 15 -1t13 -1q29 0 54.5 10t46.5 37q14 20 20 37.5t14 34.5q8 16 10.5 33.5t2.5 33.5q0 12 -1 24.5t-1 24.5q16 -4 28 -4 q27 0 27 23q0 18 -16.5 17t-26.5 10v16q8 0 12 5t8 9q-8 6 -11 22.5t-15 16.5q2 8 2 23q0 12 -1 24.5t-1 24.5q0 14 -1 29.5t-1 31.5q0 20 2 31q0 35 -2 69.5t-2 71.5q0 23 2 47.5t6 49.5v59q0 86 -3 167t-3 163q0 23 1 43t1 43q0 4 4 10t8 6q16 4 31.5 4h32.5q23 0 42.5 -1 t39.5 -3q16 -4 22 -16.5t6 -28.5q-6 -18 -6 -45q2 -10 3 -21.5t1 -21.5q0 -14 -1 -28.5t-1 -28.5v-84q-2 -223 -2 -444.5t-16 -446.5q0 -29 -12.5 -56.5t-28.5 -52.5q-29 -61 -85.5 -94t-121.5 -45q-31 -6 -64 -6q-88 4 -166 33q-37 14 -64.5 42.5t-47 64.5t-30.5 76t-17 79 q-6 51 -7 100t-1 96q0 16 2 39t2 43q0 18 -2 36t-2 34v37q0 23 -2.5 42t-2.5 42zM229 627q2 -2 4 -2q6 0 7 6q0 4 -2 4h-7h-2v-8zM244 709q4 4 6 9t6 11q0 2 2 6q4 8 8 8q8 0 8 -6q0 -16 -12 -18t-18 -10zM610 879q0 -23 2 -42.5t11 -41.5q8 4 20 4q14 0 14 -11q0 4 1 8.5 t1 8.5t-2 6q-10 4 -18 9t-8 20q0 18 14 21t19 18q-2 0 -5 2q-2 2 -2 8h-6q-14 0 -24.5 11t-14.5 22q0 23 27 22h4q-4 4 -10 6t-6 13q0 14 12.5 16t24.5 2q0 14 -1 31.5t-16 25.5q-4 -2 -6 -4q-4 -4 -4 -6q4 -8 8 -12t4 -12q0 -6 -5 -17.5t-15 -11.5q-2 0 -3 1t-3 1 q0 -10 -5.5 -19.5t-5.5 -13.5q0 -16 -1 -32.5t-1 -32.5zM623 655h8q4 0 6 -1t6 -1q8 0 8 9q-8 16 -22 16q-2 0 -3 -1t-3 -1v-21zM627 741q0 -4 4 -4q6 0 16 6q12 4 12 17q0 4 -1 6t-1 6q-8 -18 -30 -24v-7zM629 1208q0 -6 9 -10t19 -8q-2 2 -2 8q0 4 1 6t1 4q0 4 -8 4h-18 q-2 -2 -2 -4z" />
<glyph unicode="v" horiz-adv-x="790" d="M61 1339q0 10 6.5 20.5t18.5 10.5h27h53q29 0 50.5 -6t31.5 -29q10 -16 14 -34.5t4 -40.5q0 -31 -6 -58q-2 -8 -2 -16v-19q0 -16 1 -35.5t1 -35.5q0 -6 6 -12.5t13 -10.5q-4 -6 -5 -14q18 -26 18 -54v-7q-2 -32 7 -60q14 -45 16 -89t13 -91q4 -23 8 -44.5t8 -41.5 q14 -72 18.5 -137.5t18.5 -137.5v-6q0 -8 -2 -16t-2 -19q0 -4 4 -16q14 -14 29 -14q16 0 24 14q2 6 2 13v14q0 14 -1 27.5t-1 25.5q0 14 2 26.5t13 24.5v31q0 96 12 186t20 184q0 12 4 25.5t11 30.5q4 6 4 16q0 33 -37 33q14 6 21.5 21.5t17.5 25.5v-14q0 -8 3 -15.5 t13 -9.5q12 0 15.5 17.5t17.5 21.5q4 0 10 -4t14 -4q10 0 11 8q0 25 -13.5 48.5t-35.5 23.5h-9q0 55 2 110.5t2 108.5q0 10 2.5 25.5t16.5 19.5q12 4 24.5 4h24.5q25 0 50 -2t52 -2q10 -4 18.5 -14.5t8.5 -20.5q-4 -25 -9 -50.5t-7 -51.5q-23 -154 -43.5 -299.5t-40 -291 t-40 -291.5t-44.5 -302q-4 -16 -23.5 -26.5t-42.5 -10.5q-29 0 -56.5 -2t-55.5 -2q-23 0 -42.5 2t-39.5 10q-8 0 -14.5 12.5t-10.5 22.5q-14 96 -27.5 185t-26.5 177.5t-27.5 178.5t-31.5 186q-14 96 -27.5 185.5t-25.5 183.5q-4 51 -18.5 99t-14.5 99zM324 299 q0 -18 14 -18q2 0 10 4q8 10 9 20t5 21h-6q-12 0 -22 -7.5t-10 -19.5zM401 174q14 -6 28.5 -14t29.5 -19q10 0 10 15v18q-2 2 -6 2q-8 0 -16.5 -4t-18.5 -4q-6 4 -9 16.5t-13 12.5h-5v-23zM551 946q6 -6 12 -6t6 4q2 2 2 4q0 4 -5 3t-5 5q-4 -4 -7 -5t-3 -5z" />
<glyph unicode="w" horiz-adv-x="1298" d="M61 1339q0 10 7.5 20.5t17.5 10.5h27h53q29 0 52.5 -6t33.5 -29q10 -16 13 -34.5t3 -38.5q0 -33 -6 -60q-2 -8 -2 -16v-19q0 -16 1 -35.5t1 -35.5q0 -6 6 -12.5t11 -10.5q-2 -6 -3 -14q12 -16 16.5 -33.5t4.5 -36.5q0 -12 -1 -24.5t-1 -26.5q4 -4 7 -13.5t3 -13.5 q16 -61 20.5 -120.5t16.5 -118.5q16 -72 19.5 -137.5t21.5 -137.5q0 -4 -1 -11t-5 -17q-2 -2 -2 -9q0 -14 13 -24t28 -10q4 4 10 5t10 9q2 6 2 13v14q0 14 -1 27.5t-1 25.5q0 14 2 26.5t13 24.5v39v26q0 78 10 155q12 89 28 181q11 69 11 136v17q0 7 -1 15q0 68 13 140 q10 16 16.5 33.5t6.5 35.5q0 14 -2.5 27.5t-2.5 28.5q0 16 4.5 29.5t18.5 25.5q8 4 12 4q10 0 21.5 -3t21.5 -3t15 2q4 4 8 3t4 7q10 -4 18.5 -5t18.5 -1t20 1t21 1q16 0 27.5 -5t15.5 -22q16 -43 16 -86q0 -27 -6 -51q-2 -8 -2 -16v-19q0 -16 1 -35.5t1 -35.5q0 -6 6 -12.5 t12 -10.5q-2 -6 -2 -14q10 -16 14.5 -32.5t4.5 -33.5q0 -14 -1 -27.5t-1 -27.5q4 -4 7 -13.5t3 -13.5q14 -61 19.5 -120.5t21.5 -118.5q12 -72 17 -137.5t22 -137.5v-6q0 -8 -2 -15t-2 -18q0 -16 9 -24t21 -8q16 0 25 14q2 8 3 14t1 15q0 16 -2 29.5t-2 29.5q0 43 27 64 q6 10 9 24t17 19q4 0 12.5 -5.5t12.5 -5.5q10 4 10 17q0 10 -3 18t-7 14q-2 2 -8 2q-4 0 -11.5 -2t-13.5 -2q-10 0 -12 11.5t-2 17.5q0 10 4 31q0 4 -4 5t-4 5q4 59 10 115.5t12 115.5q4 25 11.5 46.5t13.5 44.5q6 26 6 52v13v10q0 26 8 54q0 4 2 12t2 12q4 51 5 99.5 t1 99.5q-2 4 -2 12q0 27 21 33q12 4 24.5 4h24.5q27 0 51 -2t51 -2q10 -4 19.5 -14.5t9.5 -20.5q-4 -25 -10 -50.5t-10 -51.5q-23 -154 -42.5 -299.5l-39 -291t-39 -291.5t-43.5 -302q-4 -16 -25.5 -26.5t-44.5 -10.5q-27 0 -54.5 -2t-56.5 -2q-20 0 -39.5 2t-41.5 10 q-6 0 -13.5 12.5t-11.5 22.5q-16 106 -25.5 198.5t-31.5 198.5q-8 35 -11.5 70t-6.5 68.5t-10 66.5t-22 66q-12 -23 -16 -47.5t-8 -49.5q-23 -152 -40 -287.5t-46 -289.5q-4 -23 -25.5 -30t-44.5 -7q-29 0 -56.5 -2t-55.5 -2q-23 0 -42.5 2t-39.5 10q-6 0 -12.5 12.5 t-10.5 22.5q-14 96 -27.5 185t-26.5 177.5t-26.5 178.5t-29.5 186t-31 185.5t-25 183.5q-4 51 -19.5 99t-15.5 99zM551 1212q0 -12 10 -16q20 -4 29.5 -13t25.5 -18h5h8q12 8 12 25q0 12 -6 18q-4 6 -10 6t-13.5 -3t-15.5 -3q-6 4 -11 14.5t-14 10.5h-4q-16 0 -16 -21z M588 1280l4 -4v10q-4 0 -4 -6zM821 307q0 -10 2 -10h4q8 0 7.5 9t9.5 9h19t14 11q0 4 -6.5 7t-12.5 3t-8 -2q-8 -6 -17.5 -11.5t-11.5 -15.5z" />
<glyph unicode="x" horiz-adv-x="802" d="M61 1343q4 4 5 15q16 8 30.5 10t30.5 2q27 0 52.5 -4t51.5 -4h13q4 0 12 -3t8 -11q2 -12 2 -23.5v-21.5q0 -23 -1 -46.5t-1 -48.5q4 -4 9.5 -7t9.5 -11v-14q6 -10 14 -12.5t8 -14.5q0 -8 -2 -15.5t-2 -17.5v-8q4 -8 9 -12t5 -11q10 -66 28.5 -123t33.5 -120 q4 -8 13 -13.5t20 -5.5q12 0 12 13q0 57 15.5 114.5t21.5 120.5q0 8 5 16.5t5 16.5q8 14 7 29.5t3 31.5q4 0 4 -10q-4 -4 -4 -8q0 -6 6 -6q4 0 6.5 4t2.5 8q0 6 -3.5 14.5t-3.5 14.5q0 12 10.5 17t10.5 13q0 16 1 30.5t1 31.5q0 31 -6 59q0 10 6 19.5t16 9.5q25 0 49.5 2 t51.5 2q20 0 39.5 -2t38.5 -10q0 -4 3 -7.5t3 -7.5t-2 -6q-29 -57 -35 -117.5t-27 -121.5q-16 -49 -25.5 -102.5t-23.5 -102.5q-8 -16 -7 -31.5t-3 -32.5q-6 -29 -14.5 -55.5t-8.5 -54.5v-15q0 -63 21 -123.5t37 -123.5q16 -45 28 -93q25 -86 45.5 -166.5t44.5 -168.5 q0 -10 -8 -19q-29 -6 -57 -6q-29 0 -57.5 3t-57.5 3q-4 0 -12 3t-8 11v31v55v24.5t-4 25.5q-4 14 -13.5 28.5t-19.5 32.5q-4 4 -4 8q0 6 2 13.5t2 15.5q0 10 -8.5 16t-12.5 15q-4 14 -3 28.5t-5 30.5q-16 31 -19 64.5t-14 66.5q-12 20 -9 44t-11 44q-2 2 -10 2t-16.5 -4 t-12.5 -14q-10 -66 -16.5 -126.5t-22.5 -123.5q-6 -20 -9 -45t-13 -49l-7 6q-14 -33 -15 -69t-9 -72q0 -8 4 -18.5t4 -20.5q0 -12 -8 -17.5t-12 -5.5h-17q-23 0 -44 -2t-44 -2q-20 0 -39.5 4t-38.5 14q39 117 60.5 233t50.5 232q8 43 18.5 82t14.5 82q0 12 10 29q0 2 1 4 t1 6q0 10 -8 12h-11q-10 29 -13 61t-13 60q-35 104 -59.5 205.5t-51.5 212.5q-8 25 -13 52.5t-22 51.5z" />
<glyph unicode="y" horiz-adv-x="749" d="M61 1348q0 14 11 14q18 6 37.5 8t40.5 2q20 0 39.5 -1t39.5 -3q4 -4 10.5 -8t10.5 -12q37 -76 54.5 -157t45.5 -163q8 -18 9 -41.5t16 -34.5q4 -4 12 -4t11 11.5t5 19.5q39 92 62.5 182t50.5 187q4 8 10.5 12t14.5 8q14 2 27.5 3t27.5 1q23 0 45.5 -5t40.5 -19 q6 -10 6 -21q0 -14 -6 -27q-27 -41 -39 -83.5t-22 -86.5q-23 -78 -42.5 -146.5t-37.5 -145.5q-2 -10 -9.5 -21.5t-7.5 -19.5q-10 -57 -26.5 -106.5t-20.5 -100.5q-2 -14 -2 -28.5v-29.5q0 -49 3 -98t3 -100v-41q0 -53 3 -107.5t8 -109.5q0 -23 6 -44.5t6 -43.5v-6 q-6 -8 -17 -9q-4 0 -6 1t-4 1q-14 12 -29.5 16.5t-31.5 4.5q-23 0 -44.5 -4t-43.5 -4q-10 0 -31 4q-4 0 -9 6t-9 10q0 4 -1.5 8t-1.5 9q0 20 6.5 39.5t6.5 39.5q6 98 6 199v69t-2 68q0 45 -1 91.5t-7 89.5q-10 92 -39 174t-51 170l-8.5 17t-4.5 15q-4 20 -10 35t-10 31 q-14 47 -26.5 96t-29.5 96q-12 25 -28.5 47.5t-16.5 45.5zM360 616q0 -23 6.5 -44t6.5 -44q0 -10 -2 -16q-4 -10 -4 -19.5v-19.5q0 -12 1 -25.5t1 -27.5q0 -6 -1 -11.5t-1 -11.5q2 -4 4 -6q4 -4 6 -4t4 2q16 10 30.5 12.5t22.5 20.5q10 35 10 59q0 16 -2 32.5t-4 33.5 q-4 10 -6 10q-4 0 -11 -5t-13 -5q-4 4 -9.5 11t-5.5 15q0 12 15 13q6 0 11 -5.5t9 -5.5q12 6 12 23q0 4 -2 6q-14 18 -12 34.5t-2 35.5q-4 8 -5 15t-11 7q-12 -8 -33 -8q-2 0 -6 -4t-4 -8t3 -8t3 -9v-2q-10 -16 -11 -41zM383 313q0 -10 2 -23.5t2 -23.5v-18.5t2 -16.5 q4 -8 12.5 -9t18.5 -1v25v16q0 23 -10.5 39t-20.5 33q-6 -6 -6 -21zM393 760l2 -4q0 -14 17 -15h8q-2 2 -2 7v8q0 4 -4 4t-8.5 1t-8.5 1t-4 -2zM395 104q6 -4 17.5 -4t21.5 -2q2 6 2 19q0 10 -1 19t-1 20q-4 -10 -6 -18.5t-8 -16.5q-4 -4 -14.5 -4t-10.5 -13zM414 39h10l7 7 t3 11q-20 -8 -20 -18z" />
<glyph unicode="z" horiz-adv-x="788" d="M61 1237q2 6 2 13v14q0 16 -1 31.5t-1 31.5v21q12 30 39 30h2q12 0 27 -10q4 -2 12 -2t16.5 3t16.5 3t7 -7t3 -7q31 8 62 8h13q13 -1 25 -1q25 0 50 3q6 2 20 2q10 0 19.5 -1t19.5 -1q8 0 16.5 -1t16.5 -1q20 0 38.5 1t37.5 1q20 0 39.5 -2t40.5 -8q14 16 39 16 q12 0 25 -2t28 -2q14 0 20 2q2 -27 5 -54.5t3 -55.5q0 -39 -8 -70q-29 -96 -72.5 -187.5t-76.5 -191.5q-10 -29 -23.5 -57.5t-23.5 -59.5q-4 -20 -14.5 -39.5t-22.5 -40.5q-16 -31 -26.5 -65.5t-26.5 -63.5q-23 -45 -39 -86v-18q-10 -18 -22.5 -36.5t-12.5 -41.5q0 -4 -5 -6 t-5 -6q0 -16 -8.5 -35.5t-20.5 -36.5q33 -6 65 -6h23.5t24.5 2q20 8 28 8q25 -2 46.5 -3t43.5 -1h34t34 4q12 4 28.5 5t32.5 1q12 0 28.5 8.5t33.5 8.5h6q-2 -4 -2 -15q0 -10 3 -16t3 -14v-4q-8 -23 -7 -42.5t-3 -41.5v-9q0 -12 2 -26t2 -27q0 -29 -23 -33 q-59 -8 -117.5 -12t-117.5 -4h-58.5t-60.5 4q-8 2 -27 2q-23 0 -44 -3t-44 -3q0 8 -7 10t-11 6q-22 -22 -54 -22h-3q-41 0 -62.5 24.5t-21.5 55.5q0 16 4 32.5t10 32.5q33 92 71 177.5t83 173.5q2 4 2 8t-1 8t-1 8v4q72 162 136 324t124 328q0 2 1 2t1 2q0 6 -12.5 11 t-16.5 15q-4 -4 -5 -8t-5 -4q-37 -2 -74 -2h-74q-59 0 -117.5 2t-115.5 6q-10 0 -14.5 13.5t-4.5 25.5z" />
<glyph unicode="{" horiz-adv-x="548" d="M61 682q0 31 8.5 55.5t24.5 24.5q10 0 10 2q-2 0 -2 2h4q2 0 6.5 1t10.5 1q37 31 49 78t12 102q0 51 -5 103.5t-5 99.5q0 25 2 46.5t8 37.5q14 41 40 80t59.5 68.5t74.5 47t86 17.5q10 0 18.5 -1t18.5 -3v-113q0 -12 2 -25.5t2 -23.5q0 -18 -8 -20q-23 -4 -49.5 -15.5 t-49 -29t-38.5 -41t-18 -52.5v-28q0 -47 5 -96.5t5 -96.5q0 -41 -7.5 -78t-27.5 -71q-31 -53 -31 -92t29 -78q23 -31 31 -67t8 -77q0 -47 -7.5 -98t-7.5 -98q0 -10 1.5 -18.5t1.5 -18.5q0 -27 14 -48.5t34.5 -35.5t46 -22.5t48.5 -8.5h12q10 -47 10 -90q0 -35 -10 -76 q-10 -2 -21.5 -3t-21.5 -1q-49 0 -93 18.5t-81 49t-62.5 72.5t-35.5 90q-2 10 -3 22t-1 23q0 55 12 114.5t12 116.5q0 43 -12 84t-47 76h-15.5t-3.5 2l2 2l-2 2q-4 4 -10 4q-16 0 -24.5 26.5t-8.5 57.5z" />
<glyph unicode="|" horiz-adv-x="315" d="M61 -33q0 16 4.5 29.5t4.5 32.5q4 88 5 183t1 194v193t4 183q0 49 -1 109.5t-2 123l-2 125t-1 113.5q-2 25 -2 47.5v45.5v44t2 44q0 2 6 6t10 4h8q23 0 41.5 3t36.5 3q14 0 26.5 -2t24.5 -12q27 -16 27 -52q0 -29 -10.5 -59.5t-10.5 -58.5q0 -137 1.5 -266.5t-3.5 -254.5 q0 -16 -2 -30.5t-2 -28.5q6 -29 6 -57v-13.5t-2 -13.5t-2 -16q0 -8 1 -15.5t1 -17.5q-2 -29 -2 -68v-79.5v-78.5t-2 -65v-67q0 -45 1 -89.5t1 -91.5v-33.5t-2 -33.5q-12 -14 -25.5 -18.5t-27.5 -4.5q-20 0 -40.5 5t-43.5 5q-4 0 -5 -1t-5 -1t-8 10.5t-11 18.5v6zM131 264 q0 -12 5 -26.5t7 -30.5q4 -6 11.5 -13.5t11.5 -17.5q4 4 9 5t5 5q0 2 -2 4q-6 8 -6 17q0 8 3 16t3 17q-4 8 -5 17t-7 19q-6 8 -16 9q-14 0 -16.5 -6.5t-2.5 -14.5zM154 860q0 -10 18 -10q8 0 7 5t-1 11q-2 -2 -10 -2h-10q-4 0 -4 -4z" />
<glyph unicode="}" horiz-adv-x="548" d="M61 2q0 51 9 90h12q23 0 48.5 8.5t46 22.5t34.5 35.5t14 48.5q2 10 2 18v19q0 47 -6 98t-6 98q0 41 7 77t30 67q29 39 29 78t-31 92q-20 35 -27.5 71.5t-7.5 77.5q0 47 6 96.5t6 96.5q0 8 -1 14t-1 14q-2 29 -18.5 52.5t-39 41t-49 28.5t-48.5 16q-8 2 -9 20 q0 10 2.5 23.5t2.5 25.5v113q10 2 18 3t18 1q45 0 86 -17.5t75 -47t59.5 -68.5t39.5 -80q12 -35 13 -84q0 -47 -5 -99.5t-5 -103.5q0 -55 11 -102t48 -78q6 0 9 -1t7 -1h4q0 -2 -2 -2q1 -2 11 -2q16 0 25 -24.5t9 -55.5t-8 -57.5t-24 -26.5q-6 0 -11 -4l-2 -2v-2q0 -2 -3 -2 h-15q-35 -35 -46 -76t-11 -84q0 -57 11 -116.5t11 -114.5q0 -10 -1 -22.5t-3 -22.5q-10 -47 -35.5 -89.5t-62.5 -73t-81 -49t-93 -18.5q-10 0 -21.5 1t-21.5 3q-4 18 -6.5 38t-2.5 38z" />
<glyph unicode="~" horiz-adv-x="733" d="M61 676v47q4 10 10.5 22.5t16.5 12.5q2 0 2 -1t2 -1q31 -14 62.5 -19.5t66.5 -5.5q43 0 88 7t88 14.5t83 14.5t77 7q25 0 47.5 -4t40.5 -14q18 0 16 -22.5t3 -41.5q4 -16 6 -23t2 -18q0 -12 -2 -18q0 -10 -5.5 -25.5t-19.5 -15.5q-29 12 -59.5 17t-63.5 5q-78 0 -162 -15 t-165 -15q-33 0 -64 4t-59 14q-6 0 -6 6q0 4 1 6t1 4q-4 16 -5.5 30t-1.5 28z" />
<glyph unicode="&#xa1;" horiz-adv-x="360" d="M61 57v18.5t2 18.5q2 6 3 19v22q0 18 4 29q8 35 7 66.5t3 66.5q4 33 2 61.5t2 59.5q2 8 2 22q0 12 -1 22.5t-1 24.5q0 55 7 107.5t7 105.5q4 53 8.5 101.5t8.5 101.5q0 16 -3 35.5t-3 36.5q0 39 24 53q25 12 57 12q25 0 50 -6q6 -78 7 -156.5t11 -158.5q2 -6 2 -17 q0 -14 -3 -28.5t-3 -30.5q0 -10 4 -27q0 -10 4 -22t4 -23q0 -131 14.5 -258t18.5 -258q0 -16 -4 -38.5t-27 -22.5h-4q-10 0 -20.5 -1t-20.5 -1t-21.5 2t-21.5 2q-16 0 -32.5 -3t-32.5 -3q-8 4 -17.5 4t-17.5 4q-10 12 -14.5 27.5t-4.5 31.5zM66 1262q0 14 1 26t3 25 q0 10 4 25.5t20 15.5q16 4 31.5 5t32.5 1q53 0 118 -17q8 0 9 -6q0 -4 -1 -6t-1 -4q4 -16 6 -33.5t2 -33.5t-1 -29.5t-1 -28.5q-4 -10 -12.5 -19t-18.5 -14q-16 -6 -31.5 -8t-31.5 -2q-27 0 -51.5 3t-49.5 7q-10 0 -13 11.5t-7 21.5q-8 27 -8 60zM164 680q0 -20 12 -21 q6 0 12.5 9.5t6.5 19.5q0 8 -7 12h-9t-9 -4q-6 -6 -6 -16z" />
<glyph unicode="&#xa2;" horiz-adv-x="657" d="M61 422v10q0 12 2.5 24.5t2.5 22.5q0 137 1 274.5t5 274.5q2 31 10 68t22.5 71.5t36 64.5t52.5 48q14 6 25 10t24 8q10 2 17 4.5t17 4.5v35.5t3 35.5q0 6 10 6q14 0 27.5 2.5t27.5 2.5q19 -1 33 -9t14 -28q0 -10 -2 -21.5t-6 -23.5q39 -4 78 -17.5t61 -54.5 q10 -16 19.5 -29.5t13.5 -31.5q6 -33 13 -64t7 -63q0 -20 -2 -31q-2 -4 -3 -10.5t-7 -6.5q-61 -6 -117 -6q-4 0 -5 3t-9 3q4 10 4 19.5v19.5q0 23 -4 44.5t-8 43.5q-4 14 -15.5 27.5t-27.5 22.5v-13v-69.5t-2 -69.5q0 -10 -1 -18.5t-1 -16.5q4 -20 4 -31q0 -6 -1 -13t-1 -13 v-19q-2 -33 -1 -65.5t-1 -65.5v-452q8 4 14 6q29 25 39 45q12 18 11 38.5t5 43.5q2 4 3 10q0 10 -3.5 20.5t-3.5 20.5q0 12 9 14q12 12 36 13q14 0 28.5 -4.5t31.5 -8.5h26h15q2 0 2 -2t-1 -3t-1 -3q8 -27 8 -61q0 -29 -5 -54.5t-13 -54.5q-4 -23 -12.5 -45t-26.5 -43 q-16 -16 -36 -29.5t-40 -23.5q-20 -8 -42 -10t-44 -2v-64q-12 -12 -35 -12q-14 0 -28.5 3t-28.5 3h-2q-4 0 -7.5 9t-3.5 11q0 8 2 15.5t2 17.5v13q-8 2 -16 3t-16 3q-23 10 -44.5 18t-45.5 19q-23 10 -34 33.5t-24 45.5q-10 23 -19 49.5t-16 57.5zM135 778q0 -12 12 -20h7 h12q14 0 16 -6q4 8 4 12q0 14 -10 21.5t-16 7.5q-8 0 -16.5 -4.5t-8.5 -10.5zM137 436h10q7 0 7 2t1 2t1 2q0 12 -15 13l-4 -2v-17zM139 522q0 -6 1 -14t7 -8q2 0 2.5 1t2.5 1q10 12 17 20t7 23q-10 -4 -18 -13q-4 -4 -11.5 -5t-7.5 -5zM145 1004q0 -8 2 -9q2 0 5 2l2 2 q0 8 4 9q0 4 -6 4q-4 -4 -7 -8zM223 428q0 -27 12.5 -50.5t36.5 -33.5q2 -2 3 -2t4 -2v188.5v208t1 185.5t3 122v19q0 29 -1 57.5t-3 57.5q-10 -6 -18.5 -14.5t-14.5 -20.5q-6 -16 -8 -36t-9 -38q-2 -10 -3 -18.5t-1 -18.5q0 -20 2 -38.5t2 -39.5v-16q-4 -123 -4 -246v-248 q0 -4 -1 -8t-1 -8zM244 1210q10 0 10 4l-2 3h-8v-7z" />
<glyph unicode="&#xa3;" horiz-adv-x="714" d="M61 700q0 25 20.5 23t37.5 6l24 10q6 2 23 11q2 41 3 66.5t1 39.5q0 23 -2 27h-2q0 35 1 71.5t3 73.5q2 31 10 68t22.5 71.5t36 64.5t52.5 48q78 33 133 33q16 0 33.5 -4t38.5 -9q29 -6 54 -20t42 -43q10 -16 19.5 -29.5t13.5 -31.5q6 -33 13 -64t7 -63q0 -20 -2 -31 q-2 -4 -3 -10.5t-7 -6.5q-61 -6 -117 -6q-4 0 -5 3t-9 3q4 10 4 19.5v19.5q0 23 -4 44.5t-8 43.5q-4 16 -16.5 29.5t-28.5 22.5q-25 10 -41 10q-33 0 -60 -47q-20 -51 -25.5 -79t-5.5 -65v-118h-2v-2h2v-68l56 25l21 9t13.5 6t13.5 6l21 9q20 -14 30.5 -49t21.5 -57 q2 0 2 -4t-7 -11q-6 -4 -12 -3t-12 -3q-47 -16 -79 -30.5t-69 -30.5v-49q0 -45 -3 -89t-3 -89t6 -89q4 -4 8.5 -9t12.5 -5h2q10 2 17.5 3t15.5 1q10 0 19 -1t20 -1q16 0 26 2q2 2 15 2q10 0 21 -1t15 -1q27 0 50.5 -1t48.5 -1h24.5t24.5 2q12 0 12 -14v-4q0 -20 2 -37.5 t2 -36.5v-13t-2 -14q0 -16 -10 -24q-74 -12 -158 -12q-33 0 -63.5 1t-59.5 3q-29 0 -60.5 -2t-63.5 -2h-33t-33 4q-6 4 -9 9t-3 7q4 35 4 67.5v65.5v144v84q6 6 6 16q0 4 -2 4q-2 2 -2 10q-25 -14 -51 -20q-4 0 -9 8q-10 20 -25.5 50.5t-17.5 53.5zM209 418q0 -12 8 -12h4 q10 0 11 13t4 19q0 2 -3.5 6.5t-7.5 4.5q-6 0 -8 -7q-6 -4 -6 -14q0 -4 -1 -5t-1 -5z" />
<glyph unicode="&#xa5;" horiz-adv-x="624" d="M61 1284q0 10 9 10q27 8 61 9q16 0 32.5 -1.5t33.5 -3.5q2 -4 7 -7t9 -9q29 -59 43 -123.5t37 -130.5q6 -16 6 -34.5t12 -26.5l8 -4q8 0 11.5 9t5.5 15q31 74 49 146.5t41 148.5q2 8 18 16q10 2 22.5 3.5t22.5 1.5q18 0 35 -4.5t33 -16.5q6 -6 6 -16q0 -12 -6 -21 q-20 -33 -29.5 -66.5t-19.5 -68.5q-16 -61 -31.5 -117.5t-32.5 -118.5q-2 -8 -7 -17t-5 -15q-4 -16 -8 -32.5t-8 -33.5h30q20 0 28.5 1t19.5 1q6 0 12 -1t16 -1q8 -14 8 -43q0 -20 -2 -39.5t-2 -34.5v-2q0 -10 -14 -10q-4 0 -9 2t-11 2q-29 2 -53.5 2h-47.5v-41h55 q20 0 28.5 1t19.5 1q6 0 12 -1t16 -1q8 -14 8 -43q0 -20 -2 -39.5t-2 -33.5v-2q0 -10 -14 -11q-4 0 -9 2t-11 2q-29 2 -50.5 2h-44.5v-18v-39q0 -41 3 -82t6 -84q0 -18 5 -34.5t5 -34.5v-7q-4 -6 -12.5 -6h-10.5q-10 10 -22.5 13.5t-26.5 3.5q-16 0 -34.5 -3t-35.5 -3 q-8 0 -24 4q-4 0 -7 5t-7 7q0 4 -1.5 7t-1.5 7q0 16 5.5 31.5t5.5 32.5q6 74 6 149q0 14 -1 27.5t-1 28.5q-23 -2 -32 -3.5t-40 -1.5q-10 0 -18 -1t-17 -1q-10 0 -17 1t-15 1q-4 0 -5 11q0 14 -1 33.5t-1 37.5q0 25 5.5 40.5t17.5 15.5q10 0 22.5 -5.5t22.5 -5.5h76 q0 10 -1 20.5t-1 20.5q-20 -2 -29.5 -3t-38.5 -1q-10 0 -18 -1t-17 -1q-10 0 -17 1t-15 1q-4 0 -5 11q0 14 -1 33.5t-1 37.5v22.5t4 18.5q4 14 19 15q10 0 22.5 -5.5t22.5 -5.5h55q-12 49 -28.5 97.5t-28.5 99.5q-4 6 -7 13t-3 14q-4 16 -8.5 26t-8.5 25q-10 37 -20 76.5 t-23 76.5q-10 23 -23.5 41.5t-13.5 34.5zM301 698q0 -16 5 -34.5t5 -34.5q0 -10 -2 -15q-2 -8 -3 -15t-1 -17t1 -18.5t1 -18.5q0 -14 -2 -23q0 -2 2 -4t8 -2h2q12 8 24.5 9.5t18.5 17.5q6 25 7 47q0 14 -1 27.5t-4 25.5q0 8 -4 8t-10 -4t-10 -4q-10 10 -10 23q0 8 10 8 q4 0 9 -4t7 -4q10 6 11 16q0 4 -3 6q-8 12 -9 23.5t-1 21.5q0 8 -2 18.5t-12 10.5q-6 -6 -27 -6l-4 -4q-2 -2 -2 -7q0 -4 2 -7t2 -5v-2q-8 -14 -8 -33zM317 457q0 -10 2.5 -19.5t2.5 -19.5q0 -21 2 -29q4 -8 24 -8v20v15q0 18 -8 30.5t-16 24.5q-6 -4 -7 -14zM328 289 q4 -4 15 -4t17 -2q0 4 1 8t1 8q0 8 -1 15.5t-1 15.5q-4 -8 -6 -15.5t-6 -13.5q-4 -4 -12 -3t-8 -9zM328 809q0 -12 12 -12q2 0 4 1t4 1v2v8q0 4 -4 4t-6 1t-6 1t-4 -4v-2zM344 236h8q2 4 5 6t3 8q-16 -4 -16 -14z" />
<glyph unicode="&#xa7;" horiz-adv-x="571" d="M61 328q0 10 11 16v-2q12 14 30.5 30.5t40.5 16.5q18 0 25.5 -9t15.5 -26h-2q2 -6 10.5 -16t17.5 -20.5t19.5 -17.5t16.5 -7h-2q4 -2 9 -4t13 -2q35 0 49.5 20.5t14.5 46.5q0 23 -11 47q2 -2 3 -4l-3 -2q-10 8 -13 13.5t-10 15.5t-24.5 29.5t-56.5 56.5l2 -2 q-20 8 -61 50t-68 91h-2q-4 6 -8 20.5t-7 32t-6.5 33t-3.5 21.5q4 10 5.5 12t1.5 4v23q10 47 36.5 91t85.5 62l-4 2q-23 20 -29.5 37t-21.5 53h2l-6 13q-18 33 -18 73q0 45 22 82h-2q45 102 184 103q66 0 119 -47q8 -8 20.5 -22.5t25 -30t20.5 -31t8 -25.5t-10 -20v2 q-12 -14 -29.5 -30.5t-40.5 -16.5q-16 0 -23.5 10t-15.5 25.5t-20.5 32t-36.5 28.5v-2q-8 4 -15.5 7t-15.5 3q-33 0 -47 -22.5t-14 -45.5q0 -18 8 -33.5t12 -21.5v2q4 -4 25.5 -34.5t70.5 -69.5h-2q39 -23 70 -53.5t63 -96.5q0 -6 3.5 -19.5t7.5 -27.5t7 -27.5t3 -19.5 q-4 -10 -5 -13t-1 -5v-21q-8 -35 -19.5 -61.5t-38.5 -51.5h3q-31 -31 -66 -41q10 -10 21.5 -18t17.5 -33q2 -12 9 -23.5t13.5 -24.5t11.5 -32.5t5 -48.5q0 -43 -23 -82h2q-10 -25 -31.5 -51t-56.5 -31q-20 0 -44.5 -9t-47.5 -9q-31 0 -64.5 11.5t-60.5 33.5h2 q-29 25 -52.5 62.5t-23.5 50.5zM195 774q0 -74 73 -133h8q16 -4 27 -4q43 0 70 37v-2q8 16 8 35q0 23 -14 55l2 -2q-16 23 -33 46t-41 36l-2 -2q-16 4 -25 4q-47 0 -69 -37l2 2q-6 -18 -6 -35zM489 819q1 -2 3 -4q-2 0 -3 6v-2z" />
<glyph unicode="&#xa8;" horiz-adv-x="509" d="M63 1604q4 8 9.5 14t13.5 10q18 8 45 8q18 0 37 -3t37 -5q14 0 12 -16.5t2 -30.5q6 -23 6 -43q0 -4 -2 -23.5t-18 -19.5q-12 -4 -23.5 -4h-23.5q-23 0 -43.5 3t-42.5 7q-4 0 -4 4v4q0 2 2 4q-6 23 -6.5 45.5t-0.5 45.5zM287 1540.5v28.5v35q8 18 22 24q18 8 45 8 q18 0 37 -3t37 -5q12 0 12 -20v-19v-8q4 -10 6.5 -21.5t2.5 -21.5q0 -4 -3.5 -23.5t-17.5 -19.5q-12 -4 -24.5 -4h-24.5q-20 0 -41 3t-43 7q-4 0 -4 6v6q-4 14 -4 27.5z" />
<glyph unicode="&#xa9;" horiz-adv-x="1511" d="M43 686q0 170 56.5 303t151.5 227.5t222 146.5t270 62q39 0 67 -1t52.5 -4t49 -7t61.5 -10q86 -33 158.5 -73t132.5 -116l-9 5q-6 -4 -6 -11q0 -16 15 -26q8 0 13 1t5 11q10 -18 25.5 -34.5t30 -34t24.5 -35t10 -35.5q6 -31 13.5 -47.5t23.5 -38.5q-4 0 -4 -6.5v-12.5 q31 -51 43 -115.5t12 -123.5q0 -154 -47 -291t-138 -239.5t-222 -162t-297 -59.5q-139 0 -278.5 53.5t-248.5 151.5q-96 100 -141 241.5t-45 280.5zM151.5 720q-4.5 -56 12.5 -104q-4 -14 -8 -14q10 -23 12 -37t0 -41q-4 -16 0 -32.5t12 -34t17.5 -33.5t13.5 -33q2 10 18 6 q4 -4 6.5 -12t0.5 -12q0 -6 -9 -6l-4 6q33 -76 84.5 -124t114.5 -93q27 -12 47 -20.5t38.5 -16.5t41 -14.5t55.5 -14.5q119 -23 233.5 -6.5t212 74t171 154t108.5 235.5q29 115 23 238.5t-66 228.5q-68 102 -170 175t-217 101q-135 35 -255 13.5t-215 -86t-161.5 -167 t-99.5 -227.5q-12 -47 -16.5 -103zM319 614q6 14 3 27.5t16 24.5v16q2 -10 5 -16.5t3 -14.5q0 -6 -6 -12q8 -4 10 -12.5t8 -12.5q10 0 11.5 12.5t1.5 22.5q0 16 -1 37t-1 39q0 23 5 49.5t5 48.5q4 10 7 19.5t3 13.5q0 10 -10 25q12 4 16 19t13 15q4 0 9 -3t11 -3t9 5.5 t3 7.5q0 6 -8 12t-8 16q0 2 4 6q41 76 125 122t182 46q49 0 101.5 -7t98.5 -26.5t84 -53t62 -87.5q16 -35 25.5 -63.5t13.5 -63.5q-49 -10 -95 -7t-97 -5q-35 53 -71 92t-103 39q-72 0 -118 -52t-50 -122q-2 -20 -3 -38.5t-1 -37.5q0 -33 4 -75t21.5 -79.5t52 -64.5 t98.5 -27q72 0 110.5 43t61.5 99q43 4 93 2t97 -12v-15v4q-6 8 -14 8q-4 0 -16.5 -9t-12.5 -17q0 -12 15 -12q4 0 5 2t5 2q2 0 2 -2q6 8 11 13t5 11q2 -82 -44 -148.5t-118 -101.5q-37 -16 -77.5 -29.5t-85.5 -13.5q-39 0 -75 1t-77 12q-59 10 -107.5 39.5t-95.5 68.5 q6 0 6 6q0 4 -21.5 19.5t-27.5 27.5q-14 41 -28.5 82t-30.5 82q-4 4 -11.5 3t-7.5 3z" />
<glyph unicode="&#xab;" horiz-adv-x="849" d="M61 702q0 2 3.5 4.5t3.5 4.5q0 4 4 12q4 10 26.5 35.5t54 57.5t67.5 65.5t69 64.5t57.5 53.5t34.5 28.5q2 4 8 4q10 0 19.5 -11t19.5 -20q16 -10 22.5 -14t16.5 -18q14 -10 14 -27q0 -8 -4 -12q-6 -12 -29.5 -37t-55.5 -56.5t-68.5 -66.5t-69.5 -65q33 -31 68.5 -68 t66.5 -71t54.5 -60.5t31.5 -34.5q2 -2 2 -6q0 -10 -11 -21.5t-20 -21.5q-10 -16 -14 -21.5t-16 -15.5q-14 -14 -29 -14q-8 0 -12 2q-16 10 -56 49t-86.5 87t-90.5 95t-66 76q0 2 -1 2t-1 2q-2 2 -8 12q-2 4 -5 6zM369 702q0 2 3 4.5t3 4.5q0 4 4 12q4 10 26.5 35.5 t54.5 57.5t67.5 65.5t68.5 64.5t57.5 53.5t34.5 28.5q2 4 8 4q10 0 19.5 -11t19.5 -20q16 -10 22.5 -14t16.5 -18q14 -10 14 -27q0 -8 -4 -12q-6 -12 -29.5 -37t-55 -56.5t-68.5 -66.5t-70 -65q33 -31 69 -68t66.5 -71t54 -60.5t31.5 -34.5q2 -2 2 -6q0 -10 -11 -21.5 t-19 -21.5q-10 -16 -14.5 -21.5t-16.5 -15.5q-14 -14 -29 -14q-8 0 -12 2q-16 10 -56 49t-86 87t-90 95t-67 76q0 2 -1 2t-1 2q-2 2 -8 12q-2 4 -4 6z" />
<glyph unicode="&#xad;" horiz-adv-x="610" d="M61 676v47q4 10 12.5 19.5t18.5 13.5q16 6 57 8t95 2q41 0 85 -1t83 -3t68.5 -3t41.5 -3q18 0 16.5 -22.5t2.5 -41.5q4 -16 6 -23t2 -18q0 -12 -2 -18q0 -10 -5 -25.5t-20 -15.5q-16 -4 -52 -5t-81 -1t-94 1t-93 4t-79 5t-51 6q-6 0 -6 6q0 4 1 6t1 4q-4 16 -5.5 30 t-1.5 28z" />
<glyph unicode="&#xae;" horiz-adv-x="1511" d="M43 686q0 170 56.5 303t151.5 227.5t222 146.5t270 62q39 0 67 -1t52.5 -4t49 -7t61.5 -10q86 -33 158.5 -73t132.5 -116l-9 5q-6 -4 -6 -11q0 -16 15 -26q8 0 13 1t5 11q10 -18 25.5 -34.5t30 -34t24.5 -35t10 -35.5q6 -31 13.5 -47.5t23.5 -38.5q-4 0 -4 -6.5v-12.5 q31 -51 43 -115.5t12 -123.5q0 -154 -47 -291t-138 -239.5t-222 -162t-297 -59.5q-139 0 -278.5 53.5t-248.5 151.5q-96 100 -141 241.5t-45 280.5zM151.5 720q-4.5 -56 12.5 -104q-4 -14 -8 -14q10 -23 12 -37t0 -41q-4 -16 0 -32.5t12 -34t17.5 -33.5t13.5 -33q2 10 18 6 q4 -4 6.5 -12t0.5 -12q0 -6 -9 -6l-4 6q33 -76 84.5 -124t114.5 -93q27 -12 47 -20.5t38.5 -16.5t41 -14.5t55.5 -14.5q119 -23 233.5 -6.5t212 74t171 154t108.5 235.5q29 115 23 238.5t-66 228.5q-68 102 -170 175t-217 101q-135 35 -255 13.5t-215 -86t-161.5 -167 t-99.5 -227.5q-12 -47 -16.5 -103zM393 370.5v32.5q4 141 2 280.5t2 283.5q0 4 -1 8t-1 8q0 6 6.5 11t6.5 10q0 6 -13 6q6 20 6 45.5t17 38.5q16 10 31.5 12t33.5 2h23q23 4 46 4t46 2q4 0 5 -2t5 -6q10 0 10 4q4 -6 5.5 -16.5t11.5 -10.5q12 0 12 11q0 4 -1 8t-1 8 q35 2 51.5 -6t42.5 -8q8 0 16.5 5t18.5 5q4 0 9 -2t10 -2q8 0 10 4q25 6 51 6q14 0 29.5 -1t29.5 -5q12 -4 20.5 -12.5t24.5 -6.5q4 0 5 -4q0 -6 -5 -10q2 -2 5 -2h6q12 6 24 6q20 0 41 -14t35 -25q37 -23 50.5 -58.5t15.5 -76.5q0 -20 -2.5 -39t-6.5 -37q-6 -25 -18 -44 t-26.5 -36.5t-30 -34t-25.5 -36.5q-2 0 -2 -4q0 -16 9 -27.5t21.5 -21t26 -18.5t21.5 -21q27 -39 31 -89.5t4 -97.5q2 -25 2 -57.5t-15 -32.5l-88 -2q-4 0 -4 -10q-12 0 -26.5 -1t-26.5 -1q-45 -2 -61.5 25.5t-16.5 58.5q-2 16 0 34.5t2 37.5q0 14 -2 26t-6 25 q-16 41 -66.5 64.5t-105.5 21.5q-57 -2 -76.5 -48t-17.5 -96v-36.5t2 -34.5q0 -37 -10 -66q-47 -18 -99 -18q-41 0 -92 10q-16 0 -23.5 10t-10.5 27.5t-3 36zM633 850q0 -10 1 -19.5t1 -19.5v-18h12q16 2 31.5 -6.5t32.5 -16.5q-14 -4 -16.5 -13t-12.5 -9t-16.5 12t-20.5 12 q8 0 10 -4t2 -9t2.5 -9.5t8.5 -4.5q18 -6 38.5 -10t41.5 -2q8 0 11 -7t9 -7q4 0 5 7t5 7q12 0 24.5 2t22.5 2q8 0 13.5 -1t11.5 -1q2 18 13 18.5t22 14.5q12 14 20 32.5t8 35.5v10q-8 29 -27.5 47t-44 28.5t-53 14.5t-57.5 4q-37 0 -67.5 -20.5t-30.5 -69.5z" />
<glyph unicode="&#xaf;" horiz-adv-x="485" d="M61 1563q0 18 6.5 32.5t24.5 20.5q16 6 46 8t65 2q57 0 114 -3t82 -7q10 -10 17.5 -32.5t7.5 -43.5q0 -37 -25 -47q-31 -6 -100 -6q-61 0 -128 5t-99 11q-4 10 -7.5 26.5t-3.5 33.5z" />
<glyph unicode="&#xb0;" horiz-adv-x="518" d="M61 1145q0 25 8.5 49.5t24.5 44.5q33 37 68 65.5t76 49.5q25 12 55 12q29 2 57.5 -11.5t50.5 -35.5q23 -23 36.5 -49.5t15.5 -55.5q4 -20 4 -30q0 -31 -17 -58q-37 -63 -94 -106q-27 -18 -52.5 -33.5t-53.5 -15.5q-59 0 -104.5 34.5t-65.5 90.5q-8 23 -9 49zM154 1223 q0 -47 28 -93q25 -29 57.5 -51t71.5 -22q4 0 9.5 1t9.5 1q20 4 27.5 19.5t7.5 35.5q0 35 -13 57v15q-4 6 -6 13t-8 11q-12 10 -20.5 23.5t-24.5 26.5q-33 23 -72 22q-6 0 -12 -1t-14 -3q-23 -2 -32 -18.5t-9 -36.5z" />
<glyph unicode="&#xb1;" horiz-adv-x="733" d="M61 184v47q4 10 12.5 19.5t18.5 13.5q16 6 69.5 8t123.5 2q55 0 113.5 -1t109.5 -3t88 -3t49 -3q18 0 16 -22.5t3 -40.5q4 -16 6 -23.5t2 -17.5q0 -12 -2 -19q0 -10 -5.5 -25.5t-19.5 -15.5q-16 -4 -61 -5t-105 -1q-59 0 -123.5 1t-122 4t-101.5 5t-60 7q-6 0 -6 6 q0 4 1 6t1 4q-4 16 -5.5 29.5t-1.5 27.5zM61 676v47q4 10 12.5 19.5t18.5 13.5q16 6 68.5 8t120.5 2q2 63 4 110.5t4 63.5q0 18 22.5 16t40.5 2q16 4 24.5 6.5t18.5 2.5t17 -2q10 0 25.5 -5.5t15.5 -19.5q4 -16 5 -65.5t1 -110.5q68 -2 119 -4t67 -4q18 0 16 -22.5t3 -41.5 q4 -16 6 -23t2 -18q0 -12 -2 -18q0 -10 -5.5 -25.5t-19.5 -15.5q-18 -4 -70.5 -6t-117.5 -2q-4 -76 -7.5 -136.5t-7.5 -80.5q0 -6 -6 -7q-2 0 -5 1t-5 1q-16 -4 -29.5 -5t-27.5 -1h-47q-10 4 -19.5 12.5t-13.5 18.5q-6 16 -8 72.5t-2 128.5q-72 2 -130.5 6t-76.5 8 q-6 0 -6 6q0 4 1 6t1 4q-4 16 -5.5 30t-1.5 28z" />
<glyph unicode="&#xb4;" horiz-adv-x="407" d="M63 1487q-2 2 22 40t53.5 81t56 78.5t32.5 37.5q8 4 11.5 10.5t7.5 6.5h4q33 -6 53.5 -27.5t38.5 -44.5q4 -2 4 -8q0 -8 -10 -20.5t-19 -24.5q-4 -8 -26.5 -31.5t-49 -49.5t-49 -47.5t-28.5 -27.5q-4 -6 -11.5 -12t-15.5 -6q-6 0 -8 2q-4 2 -14.5 8t-20.5 13.5t-19 13.5z " />
<glyph unicode="&#xb6;" horiz-adv-x="933" d="M61 999q0 92 31 174.5t94 133.5q10 10 26.5 17t33.5 15q33 20 65 21q14 0 21 -2q29 0 48 1t44 5h238q47 4 91 5t91 5q16 0 21 -14t5 -25v-30q0 -25 1 -49.5t1 -49.5v-20t-2 -21q-2 -23 -3 -44t-1 -44v-32.5t4 -32.5q0 -23 -2 -45.5t-2 -38.5v-49v-35q0 -41 -2 -81t-2 -81 q0 -18 1 -36.5t3 -37.5q2 -10 2 -30q0 -14 -1 -26.5t-1 -27.5q0 -12 1 -23.5t3 -23.5q0 -8 -2 -18t-2 -21v-10v-74q4 -23 4 -46v-46v-117v-49q0 -16 -4 -32.5t-4 -32.5q-4 -8 -10 -16.5t-10 -8.5h-4q-4 0 -7.5 1t-7.5 1q-23 0 -44 -6t-44 -6q-10 0 -19 2t-20 8q-6 45 -6 92 q0 29 1 55.5t1 55.5q0 37 -6 71.5t-6 69.5q0 29 1 54.5t1 52.5v21t-2 22q0 12 2 27.5t2 29.5q0 16 -5 28.5t-20 12.5h-20h-25q0 -33 -2 -66.5t-2 -66.5v-33v-43q0 -55 2 -110.5t2 -110.5q0 -37 -2 -74t-6 -74q0 -8 -5 -7t-5 -9q-10 4 -19.5 4h-19.5q-23 0 -42 -3t-42 -3 q-6 0 -11 1t-11 1q-8 4 -16.5 14.5t-8.5 16.5q2 16 2 33.5v33.5q0 33 -1 66t-1 65q0 53 4 104.5t4 104.5q0 16 -1 35t-3 35q-2 23 -2 45.5v44.5q-78 12 -122 14t-64 27q-45 23 -79 60.5t-56.5 85t-34 101.5t-11.5 109zM256 971q0 -37 14 -82t47 -68q16 -10 38 -14t73 -10 q0 29 1 57.5t1 56.5q4 72 3 139.5t5 139.5q-10 2 -17 2h-15q-51 0 -80 -19.5t-43.5 -50t-19.5 -70.5t-7 -81zM616 999q0 -70 7 -139q0 -12 1 -23.5t1 -21.5q0 -14 -2 -22q18 0 27 1t13.5 3t7.5 5l9 9q0 29 3 60.5t3 60.5v135q0 14 -1 31.5t-1 36.5v18t2 16q-10 0 -11 10.5 t-9 10.5h-45q0 -47 -2.5 -95t-2.5 -96z" />
<glyph unicode="&#xb7;" horiz-adv-x="344" d="M61 729v55q4 10 12.5 19.5t18.5 13.5q16 6 31.5 8t32.5 2q25 0 50 -3t50 -7q18 0 16 -22.5t2 -40.5q4 -16 6.5 -30.5t2.5 -29.5q0 -14 -2 -20q0 -10 -5.5 -25.5t-19.5 -15.5q-31 -6 -61 -6q-31 0 -61 5t-62 11q-6 0 -6 6q0 4 1 6t1 4q-4 16 -5.5 34t-1.5 36z" />
<glyph unicode="&#xb8;" horiz-adv-x="403" d="M61 -287q0 8 19 8q23 0 43 -10q6 -2 14 -2q47 0 74 41t27 84q0 35 -14.5 58.5t-38 42t-53.5 34t-58 35.5v4q0 8 6 12q12 8 21.5 20.5t19.5 25t21.5 20.5t23.5 8q6 0 10 -2q29 -6 50.5 -18.5t43.5 -30.5v-8q-8 -8 -20 -13.5t-24.5 -10.5t-24 -12t-15.5 -17 q20 -29 47 -49.5t51.5 -41t41 -46t16.5 -62.5q0 -51 -23.5 -87t-64.5 -56q-29 -14 -55 -15q-20 0 -39 13q-18 16 -38 26t-36 27q-25 14 -25 22z" />
<glyph unicode="&#xbb;" horiz-adv-x="849" d="M61 430q0 8 5 12q6 12 29.5 37t55 56.5t67.5 66.5t71 66q-33 31 -69 67.5t-66.5 70.5t-54 59.5t-31.5 35.5q-2 2 -2 6q0 10 11 21.5t19 21.5q10 16 14.5 21.5t16.5 15.5q14 14 29 14q8 0 12 -2q14 -10 55 -49t87 -87t90 -96t67 -75q0 -2 1 -2t1 -2q2 -4 4 -6t4 -6t4 -6 q0 -2 -3 -4t-3 -4q0 -4 -4 -13q-4 -10 -26.5 -35.5t-54.5 -57.5t-67.5 -65.5t-68.5 -64.5t-58.5 -53.5t-33.5 -28.5q-2 -4 -8 -4q-10 0 -19.5 11t-19.5 20q-16 10 -22.5 14t-16.5 18q-14 10 -15 27zM369 430q0 8 4 12q6 12 29.5 37t55 56.5t67.5 66.5t71 66 q-33 31 -68.5 67.5t-66.5 70.5t-54.5 59.5t-31.5 35.5q-2 2 -2 6q0 10 11 21.5t19 21.5q10 16 14.5 21.5t16.5 15.5q14 14 29 14q8 0 12 -2q14 -10 55 -49t87.5 -87t90.5 -96t66 -75q0 -2 1 -2t1 -2q2 -4 4 -6t4 -6t4 -6q0 -2 -3 -4t-3 -4q0 -4 -4 -13q-4 -10 -26.5 -35.5 t-54 -57.5t-67.5 -65.5t-69 -64.5t-58.5 -53.5t-33.5 -28.5q-2 -4 -8 -4q-10 0 -19.5 11t-19.5 20q-16 10 -22.5 14t-16.5 18q-14 10 -14 27z" />
<glyph unicode="&#xbf;" horiz-adv-x="718" d="M61 291q0 104 38 183t86 155t93.5 157.5t59.5 190.5q2 12 8 27.5t23 15.5q29 0 51 -1t22 -13v-41q0 -92 -33.5 -182.5t-73.5 -173.5t-73 -155.5t-33 -129.5q0 -47 32 -85t110 -67q29 12 50 31.5t39.5 44t34 51.5t31.5 49q2 2 13 2q12 0 16 -2q14 -10 32.5 -19.5t34 -19.5 t25.5 -22.5t10 -30.5q0 -47 -29.5 -95t-74.5 -86t-99.5 -62.5t-103.5 -24.5q-70 0 -123 25.5t-90 68.5t-56.5 97t-19.5 112zM281 1253q0 39 6 58.5t18 29t29.5 10.5t40.5 1q10 0 30.5 -2t42 -5.5t38 -7.5t16.5 -8t-1 -6t-1 -4q4 -16 5 -33.5t1 -36.5v-55q-12 -31 -41 -37 t-53 -6q-27 0 -51.5 3t-49.5 7q-6 0 -12 10.5t-10 24.5t-6 30.5t-2 26.5zM315 125q0 -18 13 -19q4 0 11 9.5t7 19.5q0 6 -6 12h-9t-9 -4q-6 -6 -7 -18z" />
<glyph unicode="&#xc0;" d="M70 29q2 53 13 109.5t21 109.5q0 35 5.5 63.5t9.5 63.5q2 92 15 185t28 188q16 129 35.5 249.5t31.5 247.5q4 25 11.5 50.5t17.5 47.5q4 6 12.5 15.5t18.5 13.5q4 2 10 2q18 0 34.5 -4t33.5 -8q10 -2 30 -2q18 0 38 3t38 3q6 0 11 -1t12 1q18 -4 24 -16.5t6 -28.5 q0 -14 -2 -27.5t0 -25.5q10 -43 19.5 -83t11.5 -81v-24.5t-2 -24.5q-2 -4 -11.5 -9.5t-13.5 -13.5q2 -12 11.5 -28.5t25.5 -20.5q-2 0 6 8q16 -102 24.5 -201.5t29.5 -203.5q10 -51 15 -99.5t22 -97.5q6 -35 6 -67.5t4 -67.5q10 -53 22.5 -105.5t14.5 -105.5v-18 q-4 -12 -12.5 -20.5t-16.5 -12.5q-6 -2 -21 -2q-20 0 -42.5 3t-43.5 3q-16 -2 -35.5 2t-19.5 27q-4 35 -5 69.5t-11 67.5q-4 12 -15.5 25.5t-25.5 13.5q-23 2 -44.5 4t-43.5 2q-25 -2 -47.5 -6t-42.5 -19q-23 -12 -25 -36.5t-6 -47.5q-8 -14 -4 -34.5t-8 -30.5 q-35 -29 -82 -29q-47 -4 -88 25zM156 129q0 -4 15 -4h22q10 10 14 26.5t12 30.5q6 8 2 19q0 25 -24 37q-4 -2 -10.5 -3.5t-6.5 -5.5q-2 -8 1 -14t3 -10v-6q2 -16 -7 -32.5t-19 -35.5q-2 0 -2 -2zM188 86q8 0 9 4l-4 2v4q-2 -2 0 -4q0 -2 -3 -4zM199 373q0 -6 12 -6 q12 18 35 22q4 2 3 10.5t1 12.5q-2 -10 -9.5 -14.5t-15.5 -7.5l-16 -6t-10 -11zM242 793q0 -4 3 -5.5t3 -5.5q0 4 1 4t1 2q0 4 -8 5zM260 682l4 2q2 2 5 3t3 5l-2 2q-2 0 -4 2v-10l-2 -2q-2 0 -4 -2zM278 1677q0 2 1 2t1 2q14 29 41 44.5t52 27.5q4 4 6 4q10 0 19 -14.5 t20 -26.5q8 -6 24.5 -32.5t35 -58.5t34.5 -59.5t20 -35.5q12 -12 13 -27q0 -8 -4 -10l-12.5 -12.5t-17.5 -16.5t-18.5 -15t-11.5 -9t-31.5 29.5t-64.5 70.5t-64.5 73.5t-29.5 41.5q-2 8 -7.5 13t-5.5 9zM299 1149q0 -10 4 -19.5t14 -13.5q6 0 13.5 -2t13.5 0q10 0 16.5 10.5 t14.5 14.5q16 4 34.5 9t16.5 26v4q-4 -4 -12 -4q-10 0 -19.5 6t-19.5 6q-4 2 -17 2q-10 0 -24.5 -4t-24.5 -8q-10 -6 -10 -27zM305 416q0 -8 10 -19q18 -4 38 -6t38 -4q16 2 32.5 7t27.5 18v16q-4 66 -15.5 132.5t-13.5 135.5q-2 41 -5 80t-14 80q-6 35 -7 68.5t-21 66.5 q-10 -88 -21.5 -174t-23.5 -176q-4 -45 -9.5 -88t-9.5 -88q2 -10 -1 -20.5t-3 -20.5q-2 -2 -2 -8zM361 1255.5q-1 -6.5 4 -6.5q8 0 8 11l-2 2q-2 0 -4.5 1t-4.5 1q0 -2 -1 -8.5zM514 412q2 -6 6 -16.5t10 -12.5q14 0 11 18v27q0 4 -11 4q-16 -2 -16 -20zM578 207 q0 -2 3 -9.5t7 -7.5t7 8.5t9 10.5h17q4 4 5 7t3 7q0 20 -17 21q-10 -2 -21 -13.5t-13 -23.5z" />
<glyph unicode="&#xc1;" d="M70 29q2 53 13 109.5t21 109.5q0 35 5.5 63.5t9.5 63.5q2 92 15 185t28 188q16 129 35.5 249.5t31.5 247.5q4 25 11.5 50.5t17.5 47.5q4 6 12.5 15.5t18.5 13.5q4 2 10 2q18 0 34.5 -4t33.5 -8q10 -2 30 -2q18 0 38 3t38 3q6 0 11 -1t12 1q18 -4 24 -16.5t6 -28.5 q0 -14 -2 -27.5t0 -25.5q10 -43 19.5 -83t11.5 -81v-24.5t-2 -24.5q-2 -4 -11.5 -9.5t-13.5 -13.5q2 -12 11.5 -28.5t25.5 -20.5q-2 0 6 8q16 -102 24.5 -201.5t29.5 -203.5q10 -51 15 -99.5t22 -97.5q6 -35 6 -67.5t4 -67.5q10 -53 22.5 -105.5t14.5 -105.5v-18 q-4 -12 -12.5 -20.5t-16.5 -12.5q-6 -2 -21 -2q-20 0 -42.5 3t-43.5 3q-16 -2 -35.5 2t-19.5 27q-4 35 -5 69.5t-11 67.5q-4 12 -15.5 25.5t-25.5 13.5q-23 2 -44.5 4t-43.5 2q-25 -2 -47.5 -6t-42.5 -19q-23 -12 -25 -36.5t-6 -47.5q-8 -14 -4 -34.5t-8 -30.5 q-35 -29 -82 -29q-47 -4 -88 25zM156 129q0 -4 15 -4h22q10 10 14 26.5t12 30.5q6 8 2 19q0 25 -24 37q-4 -2 -10.5 -3.5t-6.5 -5.5q-2 -8 1 -14t3 -10v-6q2 -16 -7 -32.5t-19 -35.5q-2 0 -2 -2zM188 86q8 0 9 4l-4 2v4q-2 -2 0 -4q0 -2 -3 -4zM199 373q0 -6 12 -6 q12 18 35 22q4 2 3 10.5t1 12.5q-2 -10 -9.5 -14.5t-15.5 -7.5l-16 -6t-10 -11zM242 793q0 -4 3 -5.5t3 -5.5q0 4 1 4t1 2q0 4 -8 5zM260 682l4 2q2 2 5 3t3 5l-2 2q-2 0 -4 2v-10l-2 -2q-2 0 -4 -2zM260 1493q-2 2 22 40t53.5 81t56 78.5t32.5 37.5q8 4 11.5 10.5t7.5 6.5 h4q33 -6 53.5 -27.5t38.5 -44.5q4 -2 4 -8q0 -8 -10 -20.5t-19 -24.5q-4 -8 -26.5 -31.5t-49 -49.5t-49 -47.5t-28.5 -27.5q-4 -6 -11.5 -12t-15.5 -6q-6 0 -8 2q-4 2 -14.5 8t-20.5 13.5t-19 13.5zM299 1149q0 -10 4 -19.5t14 -13.5q6 0 13.5 -2t13.5 0q10 0 16.5 10.5 t14.5 14.5q16 4 34.5 9t16.5 26v4q-4 -4 -12 -4q-10 0 -19.5 6t-19.5 6q-4 2 -17 2q-10 0 -24.5 -4t-24.5 -8q-10 -6 -10 -27zM305 416q0 -8 10 -19q18 -4 38 -6t38 -4q16 2 32.5 7t27.5 18v16q-4 66 -15.5 132.5t-13.5 135.5q-2 41 -5 80t-14 80q-6 35 -7 68.5t-21 66.5 q-10 -88 -21.5 -174t-23.5 -176q-4 -45 -9.5 -88t-9.5 -88q2 -10 -1 -20.5t-3 -20.5q-2 -2 -2 -8zM361 1255.5q-1 -6.5 4 -6.5q8 0 8 11l-2 2q-2 0 -4.5 1t-4.5 1q0 -2 -1 -8.5zM514 412q2 -6 6 -16.5t10 -12.5q14 0 11 18v27q0 4 -11 4q-16 -2 -16 -20zM578 207 q0 -2 3 -9.5t7 -7.5t7 8.5t9 10.5h17q4 4 5 7t3 7q0 20 -17 21q-10 -2 -21 -13.5t-13 -23.5z" />
<glyph unicode="&#xc2;" d="M70 29q2 53 13 109.5t21 109.5q0 35 5.5 63.5t9.5 63.5q2 92 15 185t28 188q16 129 35.5 249.5t31.5 247.5q4 25 11.5 50.5t17.5 47.5q4 6 12.5 15.5t18.5 13.5q4 2 10 2q18 0 34.5 -4t33.5 -8q10 -2 30 -2q18 0 38 3t38 3q6 0 11 -1t12 1q18 -4 24 -16.5t6 -28.5 q0 -14 -2 -27.5t0 -25.5q10 -43 19.5 -83t11.5 -81v-24.5t-2 -24.5q-2 -4 -11.5 -9.5t-13.5 -13.5q2 -12 11.5 -28.5t25.5 -20.5q-2 0 6 8q16 -102 24.5 -201.5t29.5 -203.5q10 -51 15 -99.5t22 -97.5q6 -35 6 -67.5t4 -67.5q10 -53 22.5 -105.5t14.5 -105.5v-18 q-4 -12 -12.5 -20.5t-16.5 -12.5q-6 -2 -21 -2q-20 0 -42.5 3t-43.5 3q-16 -2 -35.5 2t-19.5 27q-4 35 -5 69.5t-11 67.5q-4 12 -15.5 25.5t-25.5 13.5q-23 2 -44.5 4t-43.5 2q-25 -2 -47.5 -6t-42.5 -19q-23 -12 -25 -36.5t-6 -47.5q-8 -14 -4 -34.5t-8 -30.5 q-35 -29 -82 -29q-47 -4 -88 25zM156 129q0 -4 15 -4h22q10 10 14 26.5t12 30.5q6 8 2 19q0 25 -24 37q-4 -2 -10.5 -3.5t-6.5 -5.5q-2 -8 1 -14t3 -10v-6q2 -16 -7 -32.5t-19 -35.5q-2 0 -2 -2zM188 86q8 0 9 4l-4 2v4q-2 -2 0 -4q0 -2 -3 -4zM192 1513q0 6 7 12 q6 8 29.5 33t54 54.5t61.5 57t51 42.5q8 8 19 8q10 0 20 -8l-2 2q10 -4 39 -32t61.5 -60.5t59 -62.5t33.5 -36v2q6 -6 6 -14q0 -10 -9.5 -15.5t-13.5 -9.5q-6 -10 -10 -11t-8 -3h4q-2 -2 -4 -2t-6 -4v2q-8 -12 -23 -12q-6 0 -14 4l2 -2q-6 2 -19.5 13t-33 26.5t-42 34 t-44.5 36.5q-31 -29 -67 -53.5t-62 -50.5q-10 -6 -19 -6q-12 0 -22 10h4q-4 2 -11 8q-2 2 -10 2l-9 6t-13 13v-2q-8 12 -9 18zM199 373q0 -6 12 -6q12 18 35 22q4 2 3 10.5t1 12.5q-2 -10 -9.5 -14.5t-15.5 -7.5l-16 -6t-10 -11zM242 793q0 -4 3 -5.5t3 -5.5q0 4 1 4t1 2 q0 4 -8 5zM260 682l4 2q2 2 5 3t3 5l-2 2q-2 0 -4 2v-10l-2 -2q-2 0 -4 -2zM299 1149q0 -10 4 -19.5t14 -13.5q6 0 13.5 -2t13.5 0q10 0 16.5 10.5t14.5 14.5q16 4 34.5 9t16.5 26v4q-4 -4 -12 -4q-10 0 -19.5 6t-19.5 6q-4 2 -17 2q-10 0 -24.5 -4t-24.5 -8q-10 -6 -10 -27 zM305 416q0 -8 10 -19q18 -4 38 -6t38 -4q16 2 32.5 7t27.5 18v16q-4 66 -15.5 132.5t-13.5 135.5q-2 41 -5 80t-14 80q-6 35 -7 68.5t-21 66.5q-10 -88 -21.5 -174t-23.5 -176q-4 -45 -9.5 -88t-9.5 -88q2 -10 -1 -20.5t-3 -20.5q-2 -2 -2 -8zM361 1255.5q-1 -6.5 4 -6.5 q8 0 8 11l-2 2q-2 0 -4.5 1t-4.5 1q0 -2 -1 -8.5zM514 412q2 -6 6 -16.5t10 -12.5q14 0 11 18v27q0 4 -11 4q-16 -2 -16 -20zM578 207q0 -2 3 -9.5t7 -7.5t7 8.5t9 10.5h17q4 4 5 7t3 7q0 20 -17 21q-10 -2 -21 -13.5t-13 -23.5z" />
<glyph unicode="&#xc3;" d="M70 29q2 53 13 109.5t21 109.5q0 35 5.5 63.5t9.5 63.5q2 92 15 185t28 188q16 129 35.5 249.5t31.5 247.5q4 25 11.5 50.5t17.5 47.5q4 6 12.5 15.5t18.5 13.5q4 2 10 2q18 0 34.5 -4t33.5 -8q10 -2 30 -2q18 0 38 3t38 3q6 0 11 -1t12 1q18 -4 24 -16.5t6 -28.5 q0 -14 -2 -27.5t0 -25.5q10 -43 19.5 -83t11.5 -81v-24.5t-2 -24.5q-2 -4 -11.5 -9.5t-13.5 -13.5q2 -12 11.5 -28.5t25.5 -20.5q-2 0 6 8q16 -102 24.5 -201.5t29.5 -203.5q10 -51 15 -99.5t22 -97.5q6 -35 6 -67.5t4 -67.5q10 -53 22.5 -105.5t14.5 -105.5v-18 q-4 -12 -12.5 -20.5t-16.5 -12.5q-6 -2 -21 -2q-20 0 -42.5 3t-43.5 3q-16 -2 -35.5 2t-19.5 27q-4 35 -5 69.5t-11 67.5q-4 12 -15.5 25.5t-25.5 13.5q-23 2 -44.5 4t-43.5 2q-25 -2 -47.5 -6t-42.5 -19q-23 -12 -25 -36.5t-6 -47.5q-8 -14 -4 -34.5t-8 -30.5 q-35 -29 -82 -29q-47 -4 -88 25zM156 129q0 -4 15 -4h22q10 10 14 26.5t12 30.5q6 8 2 19q0 25 -24 37q-4 -2 -10.5 -3.5t-6.5 -5.5q-2 -8 1 -14t3 -10v-6q2 -16 -7 -32.5t-19 -35.5q-2 0 -2 -2zM188 86q8 0 9 4l-4 2v4q-2 -2 0 -4q0 -2 -3 -4zM199 373q0 -6 12 -6 q12 18 35 22q4 2 3 10.5t1 12.5q-2 -10 -9.5 -14.5t-15.5 -7.5l-16 -6t-10 -11zM229 1509v6q0 2 2 4v29v29.5t3 34.5q4 8 8 18t8 10t4 -2q23 -16 46.5 -22t47.5 -6q45 0 90 11t84 11q41 1 64 -22q8 0 8 -17q0 -8 -1 -16t-1 -19v-6q2 -10 3 -17t1 -16q0 -12 -2 -22 q0 -6 -4 -19.5t-12 -13.5q-20 16 -44 21.5t-51 5.5q-39 0 -77.5 -6t-77.5 -6q-25 0 -48.5 5t-45.5 19q-4 0 -5 6zM242 793q0 -4 3 -5.5t3 -5.5q0 4 1 4t1 2q0 4 -8 5zM260 682l4 2q2 2 5 3t3 5l-2 2q-2 0 -4 2v-10l-2 -2q-2 0 -4 -2zM299 1149q0 -10 4 -19.5t14 -13.5 q6 0 13.5 -2t13.5 0q10 0 16.5 10.5t14.5 14.5q16 4 34.5 9t16.5 26v4q-4 -4 -12 -4q-10 0 -19.5 6t-19.5 6q-4 2 -17 2q-10 0 -24.5 -4t-24.5 -8q-10 -6 -10 -27zM305 416q0 -8 10 -19q18 -4 38 -6t38 -4q16 2 32.5 7t27.5 18v16q-4 66 -15.5 132.5t-13.5 135.5 q-2 41 -5 80t-14 80q-6 35 -7 68.5t-21 66.5q-10 -88 -21.5 -174t-23.5 -176q-4 -45 -9.5 -88t-9.5 -88q2 -10 -1 -20.5t-3 -20.5q-2 -2 -2 -8zM361 1255.5q-1 -6.5 4 -6.5q8 0 8 11l-2 2q-2 0 -4.5 1t-4.5 1q0 -2 -1 -8.5zM514 412q2 -6 6 -16.5t10 -12.5q14 0 11 18v27 q0 4 -11 4q-16 -2 -16 -20zM578 207q0 -2 3 -9.5t7 -7.5t7 8.5t9 10.5h17q4 4 5 7t3 7q0 20 -17 21q-10 -2 -21 -13.5t-13 -23.5z" />
<glyph unicode="&#xc4;" d="M70 29q2 53 13 109.5t21 109.5q0 35 5.5 63.5t9.5 63.5q2 92 15 185t28 188q16 129 35.5 249.5t31.5 247.5q4 25 11.5 50.5t17.5 47.5q4 6 12.5 15.5t18.5 13.5q4 2 10 2q18 0 34.5 -4t33.5 -8q10 -2 30 -2q18 0 38 3t38 3q6 0 11 -1t12 1q18 -4 24 -16.5t6 -28.5 q0 -14 -2 -27.5t0 -25.5q10 -43 19.5 -83t11.5 -81v-24.5t-2 -24.5q-2 -4 -11.5 -9.5t-13.5 -13.5q2 -12 11.5 -28.5t25.5 -20.5q-2 0 6 8q16 -102 24.5 -201.5t29.5 -203.5q10 -51 15 -99.5t22 -97.5q6 -35 6 -67.5t4 -67.5q10 -53 22.5 -105.5t14.5 -105.5v-18 q-4 -12 -12.5 -20.5t-16.5 -12.5q-6 -2 -21 -2q-20 0 -42.5 3t-43.5 3q-16 -2 -35.5 2t-19.5 27q-4 35 -5 69.5t-11 67.5q-4 12 -15.5 25.5t-25.5 13.5q-23 2 -44.5 4t-43.5 2q-25 -2 -47.5 -6t-42.5 -19q-23 -12 -25 -36.5t-6 -47.5q-8 -14 -4 -34.5t-8 -30.5 q-35 -29 -82 -29q-47 -4 -88 25zM156 129q0 -4 15 -4h22q10 10 14 26.5t12 30.5q6 8 2 19q0 25 -24 37q-4 -2 -10.5 -3.5t-6.5 -5.5q-2 -8 1 -14t3 -10v-6q2 -16 -7 -32.5t-19 -35.5q-2 0 -2 -2zM188 86q8 0 9 4l-4 2v4q-2 -2 0 -4q0 -2 -3 -4zM199 373q0 -6 12 -6 q12 18 35 22q4 2 3 10.5t1 12.5q-2 -10 -9.5 -14.5t-15.5 -7.5l-16 -6t-10 -11zM221 1604q4 8 9.5 14t13.5 10q18 8 45 8q18 0 37 -3t37 -5q14 0 12 -16.5t2 -30.5q6 -23 6 -43q0 -4 -2 -23.5t-18 -19.5q-12 -4 -23.5 -4h-23.5q-23 0 -43.5 3t-42.5 7q-4 0 -4 4v4q0 2 2 4 q-6 23 -6.5 45.5t-0.5 45.5zM242 793q0 -4 3 -5.5t3 -5.5q0 4 1 4t1 2q0 4 -8 5zM260 682l4 2q2 2 5 3t3 5l-2 2q-2 0 -4 2v-10l-2 -2q-2 0 -4 -2zM299 1149q0 -10 4 -19.5t14 -13.5q6 0 13.5 -2t13.5 0q10 0 16.5 10.5t14.5 14.5q16 4 34.5 9t16.5 26v4q-4 -4 -12 -4 q-10 0 -19.5 6t-19.5 6q-4 2 -17 2q-10 0 -24.5 -4t-24.5 -8q-10 -6 -10 -27zM305 416q0 -8 10 -19q18 -4 38 -6t38 -4q16 2 32.5 7t27.5 18v16q-4 66 -15.5 132.5t-13.5 135.5q-2 41 -5 80t-14 80q-6 35 -7 68.5t-21 66.5q-10 -88 -21.5 -174t-23.5 -176q-4 -45 -9.5 -88 t-9.5 -88q2 -10 -1 -20.5t-3 -20.5q-2 -2 -2 -8zM361 1255.5q-1 -6.5 4 -6.5q8 0 8 11l-2 2q-2 0 -4.5 1t-4.5 1q0 -2 -1 -8.5zM445 1540.5v28.5v35q8 18 22 24q18 8 45 8q18 0 37 -3t37 -5q12 0 12 -20v-19v-8q4 -10 6.5 -21.5t2.5 -21.5q0 -4 -3.5 -23.5t-17.5 -19.5 q-12 -4 -24.5 -4h-24.5q-20 0 -41 3t-43 7q-4 0 -4 6v6q-4 14 -4 27.5zM514 412q2 -6 6 -16.5t10 -12.5q14 0 11 18v27q0 4 -11 4q-16 -2 -16 -20zM578 207q0 -2 3 -9.5t7 -7.5t7 8.5t9 10.5h17q4 4 5 7t3 7q0 20 -17 21q-10 -2 -21 -13.5t-13 -23.5z" />
<glyph unicode="&#xc5;" d="M70 29q2 53 13 109.5t21 109.5q0 35 5.5 63.5t9.5 63.5q2 92 15 185t28 188q16 129 35.5 249.5t31.5 247.5q4 25 11.5 50.5t17.5 47.5q4 6 12.5 15.5t18.5 13.5q4 2 10 2q18 0 34.5 -4t33.5 -8q10 -2 30 -2q18 0 38 3t38 3q6 0 11 -1t12 1q18 -4 24 -16.5t6 -28.5 q0 -14 -2 -27.5t0 -25.5q10 -43 19.5 -83t11.5 -81v-24.5t-2 -24.5q-2 -4 -11.5 -9.5t-13.5 -13.5q2 -12 11.5 -28.5t25.5 -20.5q-2 0 6 8q16 -102 24.5 -201.5t29.5 -203.5q10 -51 15 -99.5t22 -97.5q6 -35 6 -67.5t4 -67.5q10 -53 22.5 -105.5t14.5 -105.5v-18 q-4 -12 -12.5 -20.5t-16.5 -12.5q-6 -2 -21 -2q-20 0 -42.5 3t-43.5 3q-16 -2 -35.5 2t-19.5 27q-4 35 -5 69.5t-11 67.5q-4 12 -15.5 25.5t-25.5 13.5q-23 2 -44.5 4t-43.5 2q-25 -2 -47.5 -6t-42.5 -19q-23 -12 -25 -36.5t-6 -47.5q-8 -14 -4 -34.5t-8 -30.5 q-35 -29 -82 -29q-47 -4 -88 25zM156 129q0 -4 15 -4h22q10 10 14 26.5t12 30.5q6 8 2 19q0 25 -24 37q-4 -2 -10.5 -3.5t-6.5 -5.5q-2 -8 1 -14t3 -10v-6q2 -16 -7 -32.5t-19 -35.5q-2 0 -2 -2zM188 86q8 0 9 4l-4 2v4q-2 -2 0 -4q0 -2 -3 -4zM199 373q0 -6 12 -6 q12 18 35 22q4 2 3 10.5t1 12.5q-2 -10 -9.5 -14.5t-15.5 -7.5l-16 -6t-10 -11zM242 793q0 -4 3 -5.5t3 -5.5q0 4 1 4t1 2q0 4 -8 5zM260 682l4 2q2 2 5 3t3 5l-2 2q-2 0 -4 2v-10l-2 -2q-2 0 -4 -2zM262 1573q0 39 25 69q51 57 109 87q20 10 41 10q51 0 83 -37 q16 -16 26.5 -35.5t12.5 -42.5q2 -8 2 -22q0 -27 -12 -46q-29 -51 -72 -79q-18 -14 -36.5 -25.5t-40.5 -11.5h-9q-49 0 -89 40t-40 93zM299 1149q0 -10 4 -19.5t14 -13.5q6 0 13.5 -2t13.5 0q10 0 16.5 10.5t14.5 14.5q16 4 34.5 9t16.5 26v4q-4 -4 -12 -4q-10 0 -19.5 6 t-19.5 6q-4 2 -17 2q-10 0 -24.5 -4t-24.5 -8q-10 -6 -10 -27zM305 416q0 -8 10 -19q18 -4 38 -6t38 -4q16 2 32.5 7t27.5 18v16q-4 66 -15.5 132.5t-13.5 135.5q-2 41 -5 80t-14 80q-6 35 -7 68.5t-21 66.5q-10 -88 -21.5 -174t-23.5 -176q-4 -45 -9.5 -88t-9.5 -88 q2 -10 -1 -20.5t-3 -20.5q-2 -2 -2 -8zM332 1630q0 -37 23 -69q18 -23 42.5 -40.5t53.5 -17.5q4 0 7 1t7 1q27 6 27 45q0 27 -8 41v11q-4 4 -6.5 10t-6.5 8q-10 8 -16 17.5t-16 19.5q-27 16 -56 16q-12 0 -20 -2q-16 -2 -23.5 -13t-7.5 -28zM361 1255.5q-1 -6.5 4 -6.5 q8 0 8 11l-2 2q-2 0 -4.5 1t-4.5 1q0 -2 -1 -8.5zM514 412q2 -6 6 -16.5t10 -12.5q14 0 11 18v27q0 4 -11 4q-16 -2 -16 -20zM578 207q0 -2 3 -9.5t7 -7.5t7 8.5t9 10.5h17q4 4 5 7t3 7q0 20 -17 21q-10 -2 -21 -13.5t-13 -23.5z" />
<glyph unicode="&#xc7;" horiz-adv-x="792" d="M61 272v11q0 16 3.5 31.5t3.5 27.5q0 174 1 344t7 342q4 57 20.5 117.5t48.5 116.5q33 53 80 81q16 8 30.5 14.5t31.5 10.5q55 14 116 14q63 0 115 -14q35 -8 66.5 -26.5t54.5 -53.5q12 -20 24.5 -37.5t16.5 -40.5q8 -41 16.5 -78.5t8.5 -78.5v-19.5t-3 -19.5 q-4 -4 -5 -12.5t-9 -8.5q-37 -4 -73.5 -6t-71.5 -2q-4 0 -5 4t-12 4q6 25 6 47q0 29 -5 56.5t-11 56.5q-4 18 -19.5 35.5t-37.5 28.5q-31 12 -66 12q-29 0 -56.5 -12.5t-43.5 -42.5q-8 -23 -10 -46.5t-11 -46.5q-4 -12 -4 -23v-24q0 -25 2 -49t2 -49v-21q-4 -154 -5 -307 t-1 -309v-18q0 -33 13.5 -64t46.5 -43q20 -10 38.5 -20.5t41.5 -10.5h10q16 4 29.5 9.5t29.5 11.5q14 14 28.5 29.5t18.5 27.5q16 23 14.5 48.5t6.5 52.5q2 4 2 14q0 12 -3 25.5t-3 23.5q0 14 10 21q20 14 45 14q27 0 52.5 -8.5t53.5 -8.5q12 0 19 3q4 0 4 -3q0 -4 -1 -6 t-1 -4q8 -33 8 -74q2 -35 -5 -68.5t-17 -68.5q-6 -29 -15.5 -57.5t-32.5 -52.5q-23 -23 -47 -38.5t-49 -29.5q-29 -10 -57.5 -12t-59.5 -2h-51q-4 -4 -4 -8q20 -29 47 -49.5t51.5 -41t41 -46t16.5 -62.5q0 -51 -23.5 -87t-64.5 -56q-29 -14 -56 -15q-20 0 -38 13 q-18 16 -38 26t-36 27q-25 14 -25 22t19 8q23 0 43 -10q6 -2 14 -2q47 0 73.5 41t26.5 84q0 31 -12 53.5t-32.5 40t-46 31.5t-52.5 31q-2 2 -8 2q-29 12 -55.5 22.5t-57.5 24.5q-29 14 -43 42t-29 56q-14 29 -25 62.5t-20 72.5zM154 717q0 -8 6 -14.5t10 -10.5h10h18.5 t14.5 -8q6 8 6 16q0 14 -10 21q-10 12 -25 12q-6 0 -12 -2l-12 -4q-6 -4 -6 -10zM155 303q1 -8 1 -14h12q8 0 10 4v4q0 14 -16 14q-8 0 -7 -8zM160 395q0 -6 1 -16t7 -10q4 0 6 2q10 12 20.5 22t10.5 27v6q-4 -4 -11.5 -8t-11.5 -8t-13 -7.5t-9 -7.5zM166 997q0 -8 4 -8t6 2 q2 0 2 2q0 10 4 11q0 4 -8 4q-4 -4 -8 -11z" />
<glyph unicode="&#xc8;" horiz-adv-x="774" d="M61 1294q0 16 11.5 35t33.5 19q92 4 184.5 7t186.5 7q31 2 61.5 6t59.5 4q16 0 30.5 -2t26.5 -8q23 -12 29 -37t6 -53q0 -16 -1 -31.5t-1 -30.5q0 -8 -7 -14t-15 -8q-33 -4 -65 -4h-66q-41 0 -83 1t-85 1q-16 0 -34 -1t-34 -1q-18 -4 -26.5 -19.5t-8.5 -31.5 q0 -47 -1 -95.5t-1 -95.5q0 -74 6 -143q8 -18 23 -23q29 -14 61 -14q18 0 38 2t38 2q10 0 20.5 -1t20.5 -1q23 0 43 3t43 3q8 0 16.5 -1t18.5 -3q2 -29 6 -55.5t4 -55.5q0 -25 -6 -51q-4 -6 -9 -8t-7 -6q-37 -6 -72 -6t-70 3t-69 3q-16 0 -34 -1t-34 -5q-16 0 -20.5 -13.5 t-4.5 -23.5q-2 -41 -3 -84t-1 -84q0 -43 1 -85t3 -83q4 -8 6.5 -18.5t12.5 -14.5q47 -2 92 -4t90 -2q98 0 201 12q4 0 11 -4t9 -8q6 -23 11.5 -45.5t5.5 -44.5q0 -35 -19 -74q-2 -4 -4 -6q-4 -4 -8 -4q-14 -2 -27.5 -2h-27.5q-47 0 -96.5 4t-96.5 4q-53 0 -108.5 -4 t-110.5 -4h-28.5t-28.5 2q-16 0 -40 3t-28 26q-8 47 -10 90t-2 86q0 57 2 112.5t2 114.5q0 45 -3 91t-3 93q0 29 1 56.5t1 54.5v30.5t-2 30.5q0 41 -2 84t-2 84q4 43 4 85v85q-4 45 -9.5 85t-5.5 85zM190 557q0 -2 3.5 -2t3.5 -4q0 2 2 2q0 4 -3 2t-3 6q-2 -2 -3 -4z M243 1673q0 2 1 2t1 2q14 29 41 44.5t52 27.5q4 4 6 4q10 0 19 -14.5t20 -26.5q8 -6 24.5 -32.5t35 -58.5t34.5 -59.5t20 -35.5q12 -12 13 -27q0 -8 -4 -10l-12.5 -12.5t-17.5 -16.5t-18.5 -15t-11.5 -9t-31.5 29.5t-64.5 70.5t-64.5 73.5t-29.5 41.5q-2 8 -7.5 13t-5.5 9z M449 1245q2 -6 10 -6q4 0 8 1t8 1q0 12 -2 12t-2 -6q0 -4 -2 -6q-6 4 -20 4zM467 94q0 -14 10 -28h15q12 0 21 11t9 19v4q-10 18 -28 19q-17 -1 -25 -15q-2 -4 -2 -10z" />
<glyph unicode="&#xc9;" horiz-adv-x="774" d="M61 1294q0 16 11.5 35t33.5 19q92 4 184.5 7t186.5 7q31 2 61.5 6t59.5 4q16 0 30.5 -2t26.5 -8q23 -12 29 -37t6 -53q0 -16 -1 -31.5t-1 -30.5q0 -8 -7 -14t-15 -8q-33 -4 -65 -4h-66q-41 0 -83 1t-85 1q-16 0 -34 -1t-34 -1q-18 -4 -26.5 -19.5t-8.5 -31.5 q0 -47 -1 -95.5t-1 -95.5q0 -74 6 -143q8 -18 23 -23q29 -14 61 -14q18 0 38 2t38 2q10 0 20.5 -1t20.5 -1q23 0 43 3t43 3q8 0 16.5 -1t18.5 -3q2 -29 6 -55.5t4 -55.5q0 -25 -6 -51q-4 -6 -9 -8t-7 -6q-37 -6 -72 -6t-70 3t-69 3q-16 0 -34 -1t-34 -5q-16 0 -20.5 -13.5 t-4.5 -23.5q-2 -41 -3 -84t-1 -84q0 -43 1 -85t3 -83q4 -8 6.5 -18.5t12.5 -14.5q47 -2 92 -4t90 -2q98 0 201 12q4 0 11 -4t9 -8q6 -23 11.5 -45.5t5.5 -44.5q0 -35 -19 -74q-2 -4 -4 -6q-4 -4 -8 -4q-14 -2 -27.5 -2h-27.5q-47 0 -96.5 4t-96.5 4q-53 0 -108.5 -4 t-110.5 -4h-28.5t-28.5 2q-16 0 -40 3t-28 26q-8 47 -10 90t-2 86q0 57 2 112.5t2 114.5q0 45 -3 91t-3 93q0 29 1 56.5t1 54.5v30.5t-2 30.5q0 41 -2 84t-2 84q4 43 4 85v85q-4 45 -9.5 85t-5.5 85zM190 557q0 -2 3.5 -2t3.5 -4q0 2 2 2q0 4 -3 2t-3 6q-2 -2 -3 -4z M262 1487q-2 2 22 40t53.5 81t56 78.5t32.5 37.5q8 4 11.5 10.5t7.5 6.5h4q33 -6 53.5 -27.5t38.5 -44.5q4 -2 4 -8q0 -8 -10 -20.5t-19 -24.5q-4 -8 -26.5 -31.5t-49 -49.5t-49 -47.5t-28.5 -27.5q-4 -6 -11.5 -12t-15.5 -6q-6 0 -8 2q-4 2 -14.5 8t-20.5 13.5t-19 13.5z M449 1245q2 -6 10 -6q4 0 8 1t8 1q0 12 -2 12t-2 -6q0 -4 -2 -6q-6 4 -20 4zM467 94q0 -14 10 -28h15q12 0 21 11t9 19v4q-10 18 -28 19q-17 -1 -25 -15q-2 -4 -2 -10z" />
<glyph unicode="&#xca;" horiz-adv-x="774" d="M61 1294q0 16 11.5 35t33.5 19q92 4 184.5 7t186.5 7q31 2 61.5 6t59.5 4q16 0 30.5 -2t26.5 -8q23 -12 29 -37t6 -53q0 -16 -1 -31.5t-1 -30.5q0 -8 -7 -14t-15 -8q-33 -4 -65 -4h-66q-41 0 -83 1t-85 1q-16 0 -34 -1t-34 -1q-18 -4 -26.5 -19.5t-8.5 -31.5 q0 -47 -1 -95.5t-1 -95.5q0 -74 6 -143q8 -18 23 -23q29 -14 61 -14q18 0 38 2t38 2q10 0 20.5 -1t20.5 -1q23 0 43 3t43 3q8 0 16.5 -1t18.5 -3q2 -29 6 -55.5t4 -55.5q0 -25 -6 -51q-4 -6 -9 -8t-7 -6q-37 -6 -72 -6t-70 3t-69 3q-16 0 -34 -1t-34 -5q-16 0 -20.5 -13.5 t-4.5 -23.5q-2 -41 -3 -84t-1 -84q0 -43 1 -85t3 -83q4 -8 6.5 -18.5t12.5 -14.5q47 -2 92 -4t90 -2q98 0 201 12q4 0 11 -4t9 -8q6 -23 11.5 -45.5t5.5 -44.5q0 -35 -19 -74q-2 -4 -4 -6q-4 -4 -8 -4q-14 -2 -27.5 -2h-27.5q-47 0 -96.5 4t-96.5 4q-53 0 -108.5 -4 t-110.5 -4h-28.5t-28.5 2q-16 0 -40 3t-28 26q-8 47 -10 90t-2 86q0 57 2 112.5t2 114.5q0 45 -3 91t-3 93q0 29 1 56.5t1 54.5v30.5t-2 30.5q0 41 -2 84t-2 84q4 43 4 85v85q-4 45 -9.5 85t-5.5 85zM161 1509q0 6 7 12q6 8 29.5 33t54 54.5t61.5 57t51 42.5q8 8 19 8 q10 0 20 -8l-2 2q10 -4 39 -32t61.5 -60.5t59 -62.5t33.5 -36v2q6 -6 6 -14q0 -10 -9.5 -15.5t-13.5 -9.5q-6 -10 -10 -11t-8 -3h4q-2 -2 -4 -2t-6 -4v2q-8 -12 -23 -12q-6 0 -14 4l2 -2q-6 2 -19.5 13t-33 26.5t-42 34t-44.5 36.5q-31 -29 -67 -53.5t-62 -50.5 q-10 -6 -19 -6q-12 0 -22 10h4q-4 2 -11 8q-2 2 -10 2l-9 6t-13 13v-2q-8 12 -9 18zM190 557q0 -2 3.5 -2t3.5 -4q0 2 2 2q0 4 -3 2t-3 6q-2 -2 -3 -4zM449 1245q2 -6 10 -6q4 0 8 1t8 1q0 12 -2 12t-2 -6q0 -4 -2 -6q-6 4 -20 4zM467 94q0 -14 10 -28h15q12 0 21 11t9 19v4 q-10 18 -28 19q-17 -1 -25 -15q-2 -4 -2 -10z" />
<glyph unicode="&#xcb;" horiz-adv-x="774" d="M61 1294q0 16 11.5 35t33.5 19q92 4 184.5 7t186.5 7q31 2 61.5 6t59.5 4q16 0 30.5 -2t26.5 -8q23 -12 29 -37t6 -53q0 -16 -1 -31.5t-1 -30.5q0 -8 -7 -14t-15 -8q-33 -4 -65 -4h-66q-41 0 -83 1t-85 1q-16 0 -34 -1t-34 -1q-18 -4 -26.5 -19.5t-8.5 -31.5 q0 -47 -1 -95.5t-1 -95.5q0 -74 6 -143q8 -18 23 -23q29 -14 61 -14q18 0 38 2t38 2q10 0 20.5 -1t20.5 -1q23 0 43 3t43 3q8 0 16.5 -1t18.5 -3q2 -29 6 -55.5t4 -55.5q0 -25 -6 -51q-4 -6 -9 -8t-7 -6q-37 -6 -72 -6t-70 3t-69 3q-16 0 -34 -1t-34 -5q-16 0 -20.5 -13.5 t-4.5 -23.5q-2 -41 -3 -84t-1 -84q0 -43 1 -85t3 -83q4 -8 6.5 -18.5t12.5 -14.5q47 -2 92 -4t90 -2q98 0 201 12q4 0 11 -4t9 -8q6 -23 11.5 -45.5t5.5 -44.5q0 -35 -19 -74q-2 -4 -4 -6q-4 -4 -8 -4q-14 -2 -27.5 -2h-27.5q-47 0 -96.5 4t-96.5 4q-53 0 -108.5 -4 t-110.5 -4h-28.5t-28.5 2q-16 0 -40 3t-28 26q-8 47 -10 90t-2 86q0 57 2 112.5t2 114.5q0 45 -3 91t-3 93q0 29 1 56.5t1 54.5v30.5t-2 30.5q0 41 -2 84t-2 84q4 43 4 85v85q-4 45 -9.5 85t-5.5 85zM188 1596q4 8 9.5 14t13.5 10q18 8 45 8q18 0 37 -3t37 -5q14 0 12 -16.5 t2 -30.5q6 -23 6 -43q0 -4 -2 -23.5t-18 -19.5q-12 -4 -23.5 -4h-23.5q-23 0 -43.5 3t-42.5 7q-4 0 -4 4v4q0 2 2 4q-6 23 -6.5 45.5t-0.5 45.5zM190 557q0 -2 3.5 -2t3.5 -4q0 2 2 2q0 4 -3 2t-3 6q-2 -2 -3 -4zM412 1532.5v28.5v35q8 18 22 24q18 8 45 8q18 0 37 -3t37 -5 q12 0 12 -20v-19v-8q4 -10 6.5 -21.5t2.5 -21.5q0 -4 -3.5 -23.5t-17.5 -19.5q-12 -4 -24.5 -4h-24.5q-20 0 -41 3t-43 7q-4 0 -4 6v6q-4 14 -4 27.5zM449 1245q2 -6 10 -6q4 0 8 1t8 1q0 12 -2 12t-2 -6q0 -4 -2 -6q-6 4 -20 4zM467 94q0 -14 10 -28h15q12 0 21 11t9 19v4 q-10 18 -28 19q-17 -1 -25 -15q-2 -4 -2 -10z" />
<glyph unicode="&#xcc;" horiz-adv-x="389" d="M61 1671q0 2 1 2t1 2q14 29 41 44.5t52 27.5q4 4 6 4q10 0 19 -14.5t20 -26.5q8 -6 24.5 -32.5t35 -58.5t34.5 -59.5t20 -35.5q12 -12 13 -27q0 -8 -4 -10l-12.5 -12.5t-17.5 -16.5t-18.5 -15t-11.5 -9t-31.5 29.5t-64.5 70.5t-64.5 73.5t-29.5 41.5q-2 8 -7.5 13t-5.5 9 zM86 879q6 74 7 149q0 76 -3.5 150.5t-3.5 150.5q0 16 5.5 30.5t19.5 14.5q23 2 45.5 5t44.5 3q18 0 35.5 -4t34.5 -14q18 -10 22 -26.5t4 -37.5v-28q-10 -16 -10 -25q8 -80 7 -157.5t3 -157.5q0 -70 1 -138.5t1 -138.5v-70.5t-2 -70.5q0 -14 -1 -28.5t-1 -28.5 q0 -59 4.5 -106.5t4.5 -106.5q0 -35 -1.5 -70t-1.5 -70v-34.5t3 -34.5q0 -6 -9.5 -16.5t-17.5 -14.5q-8 -2 -25 -2q-23 0 -46 3t-46 3q-10 0 -21.5 -1t-21.5 -3q0 10 -6 9t-6 7q-6 41 -8 83t-2 83q0 55 2 100.5t2 98.5v47q2 10 2 19.5v19.5q0 41 -3 80t-3 78q0 18 1 35.5 t3 33.5q0 16 2 31.5t2 32.5q0 11 -4 31q-4 23 -8.5 43t-4.5 43zM187 672q8 0 16 8v9t-4 5q-8 0 -9 -5t-1 -9t-1 -4t-1 -4z" />
<glyph unicode="&#xcd;" horiz-adv-x="407" d="M63 1485q-2 2 22 40t53.5 81t56 78.5t32.5 37.5q8 4 11.5 10.5t7.5 6.5h4q33 -6 53.5 -27.5t38.5 -44.5q4 -2 4 -8q0 -8 -10 -20.5t-19 -24.5q-4 -8 -26.5 -31.5t-49 -49.5t-49 -47.5t-28.5 -27.5q-4 -6 -11.5 -12t-15.5 -6q-6 0 -8 2q-4 2 -14.5 8t-20.5 13.5t-19 13.5z M98 879q6 74 7 149q0 76 -3.5 150.5t-3.5 150.5q0 16 5.5 30.5t19.5 14.5q23 2 45.5 5t44.5 3q18 0 35.5 -4t34.5 -14q18 -10 22 -26.5t4 -37.5v-28q-10 -16 -10 -25q8 -80 7 -157.5t3 -157.5q0 -70 1 -138.5t1 -138.5v-70.5t-2 -70.5q0 -14 -1 -28.5t-1 -28.5 q0 -59 4.5 -106.5t4.5 -106.5q0 -35 -1.5 -70t-1.5 -70v-34.5t3 -34.5q0 -6 -9.5 -16.5t-17.5 -14.5q-8 -2 -25 -2q-23 0 -46 3t-46 3q-10 0 -21.5 -1t-21.5 -3q0 10 -6 9t-6 7q-6 41 -8 83t-2 83q0 55 2 100.5t2 98.5v47q2 10 2 19.5v19.5q0 41 -3 80t-3 78q0 18 1 35.5 t3 33.5q0 16 2 31.5t2 32.5q0 11 -4 31q-4 23 -8.5 43t-4.5 43zM199 672q8 0 16 8v9t-4 5q-8 0 -9 -5t-1 -9t-1 -4t-1 -4z" />
<glyph unicode="&#xce;" horiz-adv-x="561" d="M61 1520q0 6 7 12q6 8 29.5 33t54 54.5t61.5 57t51 42.5q8 8 19 8q10 0 20 -8l-2 2q10 -4 39 -32t61.5 -60.5t59 -62.5t33.5 -36v2q6 -6 6 -14q0 -10 -9.5 -15.5t-13.5 -9.5q-6 -10 -10 -11t-8 -3h4q-2 -2 -4 -2t-6 -4v2q-8 -12 -23 -12q-6 0 -14 4l2 -2q-6 2 -19.5 13 t-33 26.5t-42 34t-44.5 36.5q-31 -29 -67 -53.5t-62 -50.5q-10 -6 -19 -6q-12 0 -22 10h4q-4 2 -11 8q-2 2 -10 2l-9 6t-13 13v-2q-8 12 -9 18zM153 879q6 74 7 149q0 76 -3.5 150.5t-3.5 150.5q0 16 5.5 30.5t19.5 14.5q23 2 45.5 5t44.5 3q18 0 35.5 -4t34.5 -14 q18 -10 22 -26.5t4 -37.5v-28q-10 -16 -10 -25q8 -80 7 -157.5t3 -157.5q0 -70 1 -138.5t1 -138.5v-70.5t-2 -70.5q0 -14 -1 -28.5t-1 -28.5q0 -59 4.5 -106.5t4.5 -106.5q0 -35 -1.5 -70t-1.5 -70v-34.5t3 -34.5q0 -6 -9.5 -16.5t-17.5 -14.5q-8 -2 -25 -2q-23 0 -46 3 t-46 3q-10 0 -21.5 -1t-21.5 -3q0 10 -6 9t-6 7q-6 41 -8 83t-2 83q0 55 2 100.5t2 98.5v47q2 10 2 19.5v19.5q0 41 -3 80t-3 78q0 18 1 35.5t3 33.5q0 16 2 31.5t2 32.5q0 11 -4 31q-4 23 -8.5 43t-4.5 43zM254 672q8 0 16 8v9t-4 5q-8 0 -9 -5t-1 -9t-1 -4t-1 -4z" />
<glyph unicode="&#xcf;" horiz-adv-x="509" d="M63 1602q4 8 9.5 14t13.5 10q18 8 45 8q18 0 37 -3t37 -5q14 0 12 -16.5t2 -30.5q6 -23 6 -43q0 -4 -2 -23.5t-18 -19.5q-12 -4 -23.5 -4h-23.5q-23 0 -43.5 3t-42.5 7q-4 0 -4 4v4q0 2 2 4q-6 23 -6.5 45.5t-0.5 45.5zM145 879q6 74 7 149q0 76 -3.5 150.5t-3.5 150.5 q0 16 5.5 30.5t19.5 14.5q23 2 45.5 5t44.5 3q18 0 35.5 -4t34.5 -14q18 -10 22 -26.5t4 -37.5v-28q-10 -16 -10 -25q8 -80 7 -157.5t3 -157.5q0 -70 1 -138.5t1 -138.5v-70.5t-2 -70.5q0 -14 -1 -28.5t-1 -28.5q0 -59 4.5 -106.5t4.5 -106.5q0 -35 -1.5 -70t-1.5 -70v-34.5 t3 -34.5q0 -6 -9.5 -16.5t-17.5 -14.5q-8 -2 -25 -2q-23 0 -46 3t-46 3q-10 0 -21.5 -1t-21.5 -3q0 10 -6 9t-6 7q-6 41 -8 83t-2 83q0 55 2 100.5t2 98.5v47q2 10 2 19.5v19.5q0 41 -3 80t-3 78q0 18 1 35.5t3 33.5q0 16 2 31.5t2 32.5q0 11 -4 31q-4 23 -8.5 43t-4.5 43z M246 672q8 0 16 8v9t-4 5q-8 0 -9 -5t-1 -9t-1 -4t-1 -4zM287 1538.5v28.5v35q8 18 22 24q18 8 45 8q18 0 37 -3t37 -5q12 0 12 -20v-19v-8q4 -10 6.5 -21.5t2.5 -21.5q0 -4 -3.5 -23.5t-17.5 -19.5q-12 -4 -24.5 -4h-24.5q-20 0 -41 3t-43 7q-4 0 -4 6v6q-4 14 -4 27.5z " />
<glyph unicode="&#xd0;" horiz-adv-x="946" d="M61 639q0 25 20.5 22.5t37.5 6.5l24 10q10 4 20.5 9t20.5 9v33q0 41 1 82t1 82v33q0 14 2 28.5t2 28.5q-2 12 -2 24.5v24.5q0 33 2.5 63.5t2.5 63.5q0 47 -11.5 81t-11.5 73q0 29 19.5 50t48.5 21q8 0 20 -4q41 -14 87 -18t93 -4h103q78 0 139 -27.5t103 -75t63.5 -110 t21.5 -133.5q4 -47 10.5 -93.5t6.5 -93.5q0 -29 -5.5 -54.5t-5.5 -51.5q0 -10 1.5 -18.5t3.5 -18.5v-23q0 -23 1 -45t1 -45v-21t-2 -22q-8 -55 -10.5 -115.5t-8.5 -119t-20.5 -113.5t-46.5 -100q-31 -49 -83.5 -69.5t-107.5 -20.5q-78 -4 -150.5 -4h-148.5h-20h-31 q-18 0 -45 7t-27 36q0 74 4 145.5t4 142.5q0 29 -2 60t-2 59q0 31 1 61.5t1 61.5q-20 -10 -38.5 -17.5t-34.5 -13.5q-2 0 -10.5 13.5t-17.5 32t-16.5 37t-7.5 30.5zM262 350q4 2 8 2t7.5 -2t9.5 -2q14 0 22 9.5t8 21.5q0 10 -6 16h-8q-6 -29 -31 -28q-4 0 -5 1t-5 1v-19z M375 965q0 -10 2 -23.5t2 -26.5v-28q0 -29 2 -54.5t2 -54.5q20 10 27.5 13.5t31.5 13.5q8 -6 17.5 -20.5t17.5 -32t13.5 -34t5.5 -24.5q0 -12 -12.5 -12t-18.5 -4q-27 -10 -47.5 -17.5t-38.5 -17.5q0 -111 5 -219.5t13 -218.5q0 -6 9.5 -13.5t19.5 -7.5h61.5t59.5 4h16 q37 6 57.5 19.5t32 32t15.5 39t8 43.5q8 45 9 95t1 101v102.5t4 100.5q0 16 -15.5 27.5t-15.5 29.5q0 12 10.5 11t14.5 4q4 10 10 23t13 13q4 0 7 -4t7 -4q2 0 4 12.5t2 14.5q-8 -4 -14 -4q-14 0 -25.5 9t-11.5 24q-6 51 -6 103t-17.5 95t-67.5 69.5t-157 26.5 q-10 0 -21.5 -1t-21.5 -3q-8 -35 -8 -77q0 -16 1 -34t1 -34v-28.5t-4 -28.5z" />
<glyph unicode="&#xd1;" horiz-adv-x="759" d="M61 12q6 33 7 70q0 18 -1 35.5t-1 34.5q0 6 1 13t1 15q0 16 -7 29q6 2 7 10q0 4 -1 6t-1 4q4 76 4 150v151q0 49 9 97.5t9 97.5v18q0 6 -6 15.5t-6 19.5t-1 19.5t-1 19.5q0 41 5 82t9 82q0 18 -3 35.5t-3 38.5q-2 23 -3 43t-1 43t1 44t3 44q0 4 1 11t1 13q0 16 -14 27 q6 0 8 2l4 4q-10 16 -10 35q0 29 20 39q25 8 60 8q29 0 59.5 -4t58.5 -4q49 -123 89 -248t81 -252q10 -25 20.5 -52.5t28.5 -49.5q2 0 5.5 -1t7.5 -1q6 0 6 6q4 23 8 45t4 45q0 20 -6 43q8 0 8 8q0 2 -2 4q2 37 3 74t1 72q0 72 -2 143.5t-2 142.5q0 8 17 21q27 4 52 4h52 q6 -4 17.5 -7t11.5 -7q8 -43 10 -87t2 -89q0 -39 -1 -78t-1 -80q4 -80 3 -161t3 -161v-59q0 -68 -1 -134.5t-1 -133.5q0 -43 1 -87t3 -90q0 -4 1 -9t1 -11q0 -16 -2 -33.5t-2 -34.5q0 -25 6 -49v-8q0 -8 6 -10q-8 -12 -11 -26.5t-17 -18.5q-20 -4 -42 -6t-42 -2 q-23 0 -44.5 6t-39.5 24q0 39 -15.5 74t-25.5 76q0 6 1 12t1 12q0 8 -2 15q-27 80 -49.5 159.5t-49.5 157.5q-20 68 -39.5 128.5t-35.5 125.5q-4 16 -9.5 22.5t-17.5 16.5h-2q-4 0 -8 -6t-8 -10q-10 -78 -13.5 -154t-3.5 -152q0 -72 2 -142.5t2 -139.5v-51.5t-2 -49.5 q0 -10 1 -24t1 -31v-13t-2 -13q-4 -23 -20.5 -32t-38.5 -9q-23 0 -47.5 4t-44.5 8v6q0 4 -2 5t-4 5h-9zM204 1485v6q0 2 2 4v29v29.5t3 34.5q4 8 8 18t8 10t4 -2q23 -16 46.5 -22t47.5 -6q45 0 90 11t84 11q41 1 64 -22q8 0 8 -17q0 -8 -1 -16t-1 -19v-6q2 -10 3 -17t1 -16 q0 -12 -2 -22q0 -6 -4 -19.5t-12 -13.5q-20 16 -44 21.5t-51 5.5q-39 0 -77.5 -6t-77.5 -6q-25 0 -48.5 5t-45.5 19q-4 0 -5 6zM295 879h14q8 0 8 8q0 4 -9 3t-13 -1v-10zM453 641q2 0 3 1t3 1q12 0 22.5 -13.5t20.5 -17.5q12 -8 12 -16v-2q-4 -12 -15.5 -19.5t-11.5 -17.5 t15.5 -23.5t25.5 -23.5q4 16 18.5 16t24.5 9v20q-23 16 -33 41t-10 51q0 6 -7 4t-7 4q-4 0 -6 -1t-6 -1t-10.5 1t-12.5 1q-20 0 -26 -14zM532 350q6 -27 31 -35q0 8 -5 11.5t-5 7.5q0 2 1 3t1 3q0 4 -4 7t-4 7h-4h-8h-3v-4zM590 655q0 -4 1 -12t5 -8q6 4 16 4t15.5 -10.5 t9.5 -20.5q0 12 1 24.5t5 22.5q2 0 2 7q0 -8 -6 -9l-2 2q-6 4 -16 4q-8 0 -15.5 -2t-15.5 -2z" />
<glyph unicode="&#xd2;" horiz-adv-x="813" d="M61 592v78h2q20 0 27 6q0 2 1 3t1 3q0 10 -8 16.5t-18 6.5h-5v43q4 29 3 56t-1 56q6 -20 25 -20h4q10 0 10 8q0 6 -5 15t-9 16q-6 10 -10 22t-15 17q2 6 2.5 13t2.5 15q4 33 6 62.5t6 64.5q16 70 44 128.5t81 105.5q31 25 60.5 42t62.5 21q23 4 43 4h43q43 0 88 -8 t86 -37q37 -25 60.5 -56.5t38.5 -68.5t24.5 -77t19.5 -78q10 -59 14.5 -113.5t4.5 -114.5q0 -53 1 -104t1 -105q0 -104 -7 -211v-50t-4 -50q-12 -43 -21 -81t-28 -79q-18 -31 -38.5 -56.5t-49.5 -39.5q-29 -20 -58.5 -34.5t-62.5 -14.5q-55 0 -111.5 8t-111.5 27 q-47 16 -80 47t-54.5 71.5t-33.5 87t-16 93.5q-10 66 -12.5 131t-2.5 131zM100 930q0 -4 5.5 -11.5t9.5 -7.5q6 0 14 8.5t16 8.5q10 0 16.5 -13.5t12.5 -21.5q16 16 16 49q0 20 -4 29q-16 27 -16 57q0 4 -7 5t-11 1q2 -6 2 -18q0 -14 -2 -27.5t-7 -27.5q-2 -8 -9 -10.5 t-15 -4.5t-14.5 -5t-6.5 -11zM104 995q6 0 5.5 -5t3.5 -5h2q4 4 9 8t5 13q0 10 -2 16t-12 6q-10 -2 -11 -16v-17zM254 770q0 -27 1 -52.5t1 -51.5q4 -102 3 -205t22 -209q6 -55 53 -86q10 -8 20.5 -13.5t20.5 -5.5q4 0 6 1.5t6 1.5q16 0 29.5 -4.5t27.5 -4.5q16 4 29.5 8.5 t30.5 12.5q23 14 37 36.5t14 47.5q10 92 14 181t4 179v80t-2 80q0 33 1 65.5t1 65.5q0 121 -34 244q-10 23 -30 40t-44 21q-14 4 -27.5 6t-29.5 2q-47 0 -87 -22.5t-47 -71.5q-10 -86 -15 -173t-5 -173zM276 1673q0 2 1 2t1 2q14 29 41 44.5t52 27.5q4 4 6 4q10 0 19 -14.5 t20 -26.5q8 -6 24.5 -32.5t35 -58.5t34.5 -59.5t20 -35.5q12 -12 13 -27q0 -8 -4 -10l-12.5 -12.5t-17.5 -16.5t-18.5 -15t-11.5 -9t-31.5 29.5t-64.5 70.5t-64.5 73.5t-29.5 41.5q-2 8 -7.5 13t-5.5 9z" />
<glyph unicode="&#xd3;" horiz-adv-x="813" d="M61 592v78h2q20 0 27 6q0 2 1 3t1 3q0 10 -8 16.5t-18 6.5h-5v43q4 29 3 56t-1 56q6 -20 25 -20h4q10 0 10 8q0 6 -5 15t-9 16q-6 10 -10 22t-15 17q2 6 2.5 13t2.5 15q4 33 6 62.5t6 64.5q16 70 44 128.5t81 105.5q31 25 60.5 42t62.5 21q23 4 43 4h43q43 0 88 -8 t86 -37q37 -25 60.5 -56.5t38.5 -68.5t24.5 -77t19.5 -78q10 -59 14.5 -113.5t4.5 -114.5q0 -53 1 -104t1 -105q0 -104 -7 -211v-50t-4 -50q-12 -43 -21 -81t-28 -79q-18 -31 -38.5 -56.5t-49.5 -39.5q-29 -20 -58.5 -34.5t-62.5 -14.5q-55 0 -111.5 8t-111.5 27 q-47 16 -80 47t-54.5 71.5t-33.5 87t-16 93.5q-10 66 -12.5 131t-2.5 131zM100 930q0 -4 5.5 -11.5t9.5 -7.5q6 0 14 8.5t16 8.5q10 0 16.5 -13.5t12.5 -21.5q16 16 16 49q0 20 -4 29q-16 27 -16 57q0 4 -7 5t-11 1q2 -6 2 -18q0 -14 -2 -27.5t-7 -27.5q-2 -8 -9 -10.5 t-15 -4.5t-14.5 -5t-6.5 -11zM104 995q6 0 5.5 -5t3.5 -5h2q4 4 9 8t5 13q0 10 -2 16t-12 6q-10 -2 -11 -16v-17zM254 770q0 -27 1 -52.5t1 -51.5q4 -102 3 -205t22 -209q6 -55 53 -86q10 -8 20.5 -13.5t20.5 -5.5q4 0 6 1.5t6 1.5q16 0 29.5 -4.5t27.5 -4.5q16 4 29.5 8.5 t30.5 12.5q23 14 37 36.5t14 47.5q10 92 14 181t4 179v80t-2 80q0 33 1 65.5t1 65.5q0 121 -34 244q-10 23 -30 40t-44 21q-14 4 -27.5 6t-29.5 2q-47 0 -87 -22.5t-47 -71.5q-10 -86 -15 -173t-5 -173zM268 1487q-2 2 22 40t53.5 81t56 78.5t32.5 37.5q8 4 11.5 10.5 t7.5 6.5h4q33 -6 53.5 -27.5t38.5 -44.5q4 -2 4 -8q0 -8 -10 -20.5t-19 -24.5q-4 -8 -26.5 -31.5t-49 -49.5t-49 -47.5t-28.5 -27.5q-4 -6 -11.5 -12t-15.5 -6q-6 0 -8 2q-4 2 -14.5 8t-20.5 13.5t-19 13.5z" />
<glyph unicode="&#xd4;" horiz-adv-x="813" d="M61 592v78h2q20 0 27 6q0 2 1 3t1 3q0 10 -8 16.5t-18 6.5h-5v43q4 29 3 56t-1 56q6 -20 25 -20h4q10 0 10 8q0 6 -5 15t-9 16q-6 10 -10 22t-15 17q2 6 2.5 13t2.5 15q4 33 6 62.5t6 64.5q16 70 44 128.5t81 105.5q31 25 60.5 42t62.5 21q23 4 43 4h43q43 0 88 -8 t86 -37q37 -25 60.5 -56.5t38.5 -68.5t24.5 -77t19.5 -78q10 -59 14.5 -113.5t4.5 -114.5q0 -53 1 -104t1 -105q0 -104 -7 -211v-50t-4 -50q-12 -43 -21 -81t-28 -79q-18 -31 -38.5 -56.5t-49.5 -39.5q-29 -20 -58.5 -34.5t-62.5 -14.5q-55 0 -111.5 8t-111.5 27 q-47 16 -80 47t-54.5 71.5t-33.5 87t-16 93.5q-10 66 -12.5 131t-2.5 131zM100 930q0 -4 5.5 -11.5t9.5 -7.5q6 0 14 8.5t16 8.5q10 0 16.5 -13.5t12.5 -21.5q16 16 16 49q0 20 -4 29q-16 27 -16 57q0 4 -7 5t-11 1q2 -6 2 -18q0 -14 -2 -27.5t-7 -27.5q-2 -8 -9 -10.5 t-15 -4.5t-14.5 -5t-6.5 -11zM104 995q6 0 5.5 -5t3.5 -5h2q4 4 9 8t5 13q0 10 -2 16t-12 6q-10 -2 -11 -16v-17zM190 1511q0 6 7 12q6 8 29.5 33t54 54.5t61.5 57t51 42.5q8 8 19 8q10 0 20 -8l-2 2q10 -4 39 -32t61.5 -60.5t59 -62.5t33.5 -36v2q6 -6 6 -14 q0 -10 -9.5 -15.5t-13.5 -9.5q-6 -10 -10 -11t-8 -3h4q-2 -2 -4 -2t-6 -4v2q-8 -12 -23 -12q-6 0 -14 4l2 -2q-6 2 -19.5 13t-33 26.5t-42 34t-44.5 36.5q-31 -29 -67 -53.5t-62 -50.5q-10 -6 -19 -6q-12 0 -22 10h4q-4 2 -11 8q-2 2 -10 2l-9 6t-13 13v-2q-8 12 -9 18z M254 770q0 -27 1 -52.5t1 -51.5q4 -102 3 -205t22 -209q6 -55 53 -86q10 -8 20.5 -13.5t20.5 -5.5q4 0 6 1.5t6 1.5q16 0 29.5 -4.5t27.5 -4.5q16 4 29.5 8.5t30.5 12.5q23 14 37 36.5t14 47.5q10 92 14 181t4 179v80t-2 80q0 33 1 65.5t1 65.5q0 121 -34 244q-10 23 -30 40 t-44 21q-14 4 -27.5 6t-29.5 2q-47 0 -87 -22.5t-47 -71.5q-10 -86 -15 -173t-5 -173z" />
<glyph unicode="&#xd5;" horiz-adv-x="813" d="M61 592v78h2q20 0 27 6q0 2 1 3t1 3q0 10 -8 16.5t-18 6.5h-5v43q4 29 3 56t-1 56q6 -20 25 -20h4q10 0 10 8q0 6 -5 15t-9 16q-6 10 -10 22t-15 17q2 6 2.5 13t2.5 15q4 33 6 62.5t6 64.5q16 70 44 128.5t81 105.5q31 25 60.5 42t62.5 21q23 4 43 4h43q43 0 88 -8 t86 -37q37 -25 60.5 -56.5t38.5 -68.5t24.5 -77t19.5 -78q10 -59 14.5 -113.5t4.5 -114.5q0 -53 1 -104t1 -105q0 -104 -7 -211v-50t-4 -50q-12 -43 -21 -81t-28 -79q-18 -31 -38.5 -56.5t-49.5 -39.5q-29 -20 -58.5 -34.5t-62.5 -14.5q-55 0 -111.5 8t-111.5 27 q-47 16 -80 47t-54.5 71.5t-33.5 87t-16 93.5q-10 66 -12.5 131t-2.5 131zM100 930q0 -4 5.5 -11.5t9.5 -7.5q6 0 14 8.5t16 8.5q10 0 16.5 -13.5t12.5 -21.5q16 16 16 49q0 20 -4 29q-16 27 -16 57q0 4 -7 5t-11 1q2 -6 2 -18q0 -14 -2 -27.5t-7 -27.5q-2 -8 -9 -10.5 t-15 -4.5t-14.5 -5t-6.5 -11zM104 995q6 0 5.5 -5t3.5 -5h2q4 4 9 8t5 13q0 10 -2 16t-12 6q-10 -2 -11 -16v-17zM227 1505v6q0 2 2 4v29v29.5t3 34.5q4 8 8 18t8 10t4 -2q23 -16 46.5 -22t47.5 -6q45 0 90 11t84 11q41 1 64 -22q8 0 8 -17q0 -8 -1 -16t-1 -19v-6 q2 -10 3 -17t1 -16q0 -12 -2 -22q0 -6 -4 -19.5t-12 -13.5q-20 16 -44 21.5t-51 5.5q-39 0 -77.5 -6t-77.5 -6q-25 0 -48.5 5t-45.5 19q-4 0 -5 6zM254 770q0 -27 1 -52.5t1 -51.5q4 -102 3 -205t22 -209q6 -55 53 -86q10 -8 20.5 -13.5t20.5 -5.5q4 0 6 1.5t6 1.5 q16 0 29.5 -4.5t27.5 -4.5q16 4 29.5 8.5t30.5 12.5q23 14 37 36.5t14 47.5q10 92 14 181t4 179v80t-2 80q0 33 1 65.5t1 65.5q0 121 -34 244q-10 23 -30 40t-44 21q-14 4 -27.5 6t-29.5 2q-47 0 -87 -22.5t-47 -71.5q-10 -86 -15 -173t-5 -173z" />
<glyph unicode="&#xd6;" horiz-adv-x="813" d="M61 592v78h2q20 0 27 6q0 2 1 3t1 3q0 10 -8 16.5t-18 6.5h-5v43q4 29 3 56t-1 56q6 -20 25 -20h4q10 0 10 8q0 6 -5 15t-9 16q-6 10 -10 22t-15 17q2 6 2.5 13t2.5 15q4 33 6 62.5t6 64.5q16 70 44 128.5t81 105.5q31 25 60.5 42t62.5 21q23 4 43 4h43q43 0 88 -8 t86 -37q37 -25 60.5 -56.5t38.5 -68.5t24.5 -77t19.5 -78q10 -59 14.5 -113.5t4.5 -114.5q0 -53 1 -104t1 -105q0 -104 -7 -211v-50t-4 -50q-12 -43 -21 -81t-28 -79q-18 -31 -38.5 -56.5t-49.5 -39.5q-29 -20 -58.5 -34.5t-62.5 -14.5q-55 0 -111.5 8t-111.5 27 q-47 16 -80 47t-54.5 71.5t-33.5 87t-16 93.5q-10 66 -12.5 131t-2.5 131zM100 930q0 -4 5.5 -11.5t9.5 -7.5q6 0 14 8.5t16 8.5q10 0 16.5 -13.5t12.5 -21.5q16 16 16 49q0 20 -4 29q-16 27 -16 57q0 4 -7 5t-11 1q2 -6 2 -18q0 -14 -2 -27.5t-7 -27.5q-2 -8 -9 -10.5 t-15 -4.5t-14.5 -5t-6.5 -11zM104 995q6 0 5.5 -5t3.5 -5h2q4 4 9 8t5 13q0 10 -2 16t-12 6q-10 -2 -11 -16v-17zM215 1602q4 8 9.5 14t13.5 10q18 8 45 8q18 0 37 -3t37 -5q14 0 12 -16.5t2 -30.5q6 -23 6 -43q0 -4 -2 -23.5t-18 -19.5q-12 -4 -23.5 -4h-23.5 q-23 0 -43.5 3t-42.5 7q-4 0 -4 4v4q0 2 2 4q-6 23 -6.5 45.5t-0.5 45.5zM254 770q0 -27 1 -52.5t1 -51.5q4 -102 3 -205t22 -209q6 -55 53 -86q10 -8 20.5 -13.5t20.5 -5.5q4 0 6 1.5t6 1.5q16 0 29.5 -4.5t27.5 -4.5q16 4 29.5 8.5t30.5 12.5q23 14 37 36.5t14 47.5 q10 92 14 181t4 179v80t-2 80q0 33 1 65.5t1 65.5q0 121 -34 244q-10 23 -30 40t-44 21q-14 4 -27.5 6t-29.5 2q-47 0 -87 -22.5t-47 -71.5q-10 -86 -15 -173t-5 -173zM439 1538.5v28.5v35q8 18 22 24q18 8 45 8q18 0 37 -3t37 -5q12 0 12 -20v-19v-8q4 -10 6.5 -21.5 t2.5 -21.5q0 -4 -3.5 -23.5t-17.5 -19.5q-12 -4 -24.5 -4h-24.5q-20 0 -41 3t-43 7q-4 0 -4 6v6q-4 14 -4 27.5z" />
<glyph unicode="&#xd7;" horiz-adv-x="733" d="M105.5 501.5q-1.5 12.5 5.5 22.5q6 16 44 56.5t89 93.5q-49 53 -87 96t-48 59q-8 4 0 9q2 4 4 4t4 2q16 29 37 45l32 33q10 4 22.5 6t22.5 -4q16 -6 54.5 -42t87.5 -83q45 43 81 74.5t46 41.5q14 12 28.5 -5t30.5 -27q12 -8 19.5 -12.5t15.5 -12.5q8 -4 10 -12 q8 -8 15.5 -22.5t-3.5 -24.5q-10 -14 -42.5 -49t-77.5 -80q47 -49 81.5 -87t45.5 -51q12 -12 -5.5 -26t-27.5 -31q-8 -14 -12.5 -21.5t-10.5 -13.5q-8 -8 -14 -12q-8 -8 -22.5 -14t-24.5 4q-16 10 -54 45t-85 82q-55 -51 -100.5 -92t-61.5 -52q-6 -6 -10 0q0 2 -2 5 q-4 4 -5 4q-14 8 -23 17t-20 19q-8 8 -16 15.5t-18 17.5q-4 10 -5.5 22.5z" />
<glyph unicode="&#xd8;" horiz-adv-x="942" d="M61 37q10 16 18.5 29.5t18.5 29.5q31 57 62 123q-8 27 -12.5 54.5t-8.5 56.5q-10 68 -12 132t-2 130v156q6 51 3 99t3 99q4 33 6 62.5t6 64.5q16 70 44 128.5t81 105.5q31 25 60.5 42t62.5 21q23 4 43.5 4h42.5q45 0 88 -8t86 -37q10 -6 17.5 -13t15.5 -13q8 12 15.5 25 t15.5 28q0 2 7 6t11 4q23 0 45.5 3t44.5 3q33 0 47 -14q10 -10 11 -21q0 -14 -9.5 -30.5t-21.5 -34t-25.5 -34.5t-21.5 -32q-12 -25 -18.5 -39t-12.5 -26q6 -23 11 -46.5t12 -45.5q10 -59 14 -113.5t4 -114.5q0 -53 1 -104t1 -105q0 -104 -6 -211v-50t-4 -50 q-12 -43 -21.5 -81t-27.5 -79q-18 -31 -39 -56.5t-49 -39.5q-29 -20 -58.5 -34.5t-62.5 -14.5q-55 0 -111.5 8t-111.5 27q-43 14 -78 43l-25 -49q-16 -12 -31.5 -16.5t-31.5 -4.5q-20 0 -40 4t-40 4h-8q-6 0 -5 9.5t-4 15.5zM184 635q2 -10 3 -23.5t4.5 -26t8.5 -21.5t17 -9 h4q10 0 10 8q0 6 -5 15.5t-9 15.5q-8 10 -12 25.5t-21 15.5zM207 995q6 0 5 -5t3 -5h2q4 4 9 8t5 13q0 10 -2 16t-12 6q-10 -2 -10 -16v-17zM317 770q0 -27 1 -52.5t1 -51.5v-115q31 63 61 122.5t58 112.5q4 8 6 16.5t7 12.5q35 72 75.5 154t77.5 159q0 4 -1 6.5t-1 6.5 q-10 23 -29.5 40t-44.5 21q-14 4 -27.5 6t-29.5 2q-47 0 -87 -22.5t-46 -71.5q-10 -86 -15.5 -173t-5.5 -173zM338 276l6 -24q6 -55 53 -86q10 -8 20.5 -13.5t20.5 -5.5q4 0 6 1.5t7 1.5q16 0 29.5 -4.5t27.5 -4.5q16 4 29.5 8.5t29.5 12.5q23 14 37 36.5t14 47.5 q10 92 14.5 181t4.5 179v80t-2 80q0 27 1 53.5t1 54.5q-18 -37 -34.5 -67.5t-27.5 -50.5q-4 -16 -13 -28.5t-15 -27.5q-4 -18 -11.5 -36.5t-19.5 -36.5q-10 -12 -13 -22.5t-9 -22.5q-14 -27 -33 -64t-37 -76t-36.5 -74.5t-33.5 -60.5q-4 -8 -8 -15t-8 -16zM385 96 q6 -6 27 -6q20 0 26 6q0 2 1 3t1 3q0 10 -8 16.5t-18 6.5q-6 0 -8 -2q-10 -4 -9.5 -15.5t-11.5 -11.5zM682 600q0 -4 5 -11t9 -7q6 0 14.5 8t16.5 8q10 0 16.5 -13.5t12.5 -21.5q16 16 16 49q0 20 -4 29q-16 27 -16 57q0 4 -7.5 5.5t-11.5 1.5q2 -6 2 -19q0 -14 -2 -27.5 t-6 -27.5q-2 -8 -9 -10.5t-15.5 -4.5t-14.5 -5t-6 -11z" />
<glyph unicode="&#xd9;" horiz-adv-x="794" d="M61 715q0 10 1 18t4 19q0 53 1 87.5t1 75.5q0 111 -3.5 219.5t-3.5 219.5q0 4 7.5 8t11.5 8q4 0 6 1t6 1q16 0 30.5 -4t27.5 -4q16 -4 26 -4q16 0 32.5 3t33.5 3q12 0 18 -2q4 0 8 -7t4 -11q-4 -53 -5 -106.5t-1 -102.5v-326q0 -6 13 -6q0 -8 -4.5 -13.5t-8.5 -5.5 q-2 0 -2 1t-2 1q-8 16 -22 17q-8 0 -17.5 -3t-19.5 -3h-6q-8 4 -15.5 9t-13.5 5q-2 0 -3 -1t-3 -1q-23 -12 -21 -33.5t-2 -40.5q-8 -12 -8 -26q0 -4 1 -6.5t1 -6.5q8 -12 21.5 -15t29.5 -3h21q12 0 19 7t16 18v-7q0 -10 11 -15t15 -11q4 -29 6 -53.5t2 -51.5q0 -31 -3 -61.5 t-3 -63.5v-20t4 -21q2 -6 2 -22q0 -12 -1 -26.5t-1 -26.5q4 -23 7.5 -41.5t3.5 -40.5q0 -4 -1 -6t-1 -7q0 -18 8 -34q14 -23 32.5 -45.5t45.5 -22.5q8 0 15 -1t13 -1q29 0 54.5 10t46.5 37q14 20 20 37.5t14 34.5q8 16 10.5 33.5t2.5 33.5q0 12 -1 24.5t-1 24.5q16 -4 28 -4 q27 0 27 23q0 18 -16.5 17t-26.5 10v16q8 0 12 5t8 9q-8 6 -11 22.5t-15 16.5q2 8 2 23q0 12 -1 24.5t-1 24.5q0 14 -1 29.5t-1 31.5q0 20 2 31q0 35 -2 69.5t-2 71.5q0 23 2 47.5t6 49.5v59q0 86 -3 167t-3 163q0 23 1 43t1 43q0 4 4 10t8 6q16 4 31.5 4h32.5q23 0 42.5 -1 t39.5 -3q16 -4 22 -16.5t6 -28.5q-6 -18 -6 -45q2 -10 3 -21.5t1 -21.5q0 -14 -1 -28.5t-1 -28.5v-84q-2 -223 -2 -444.5t-16 -446.5q0 -29 -12.5 -56.5t-28.5 -52.5q-29 -61 -85.5 -94t-121.5 -45q-31 -6 -64 -6q-88 4 -166 33q-37 14 -64.5 42.5t-47 64.5t-30.5 76t-17 79 q-6 51 -7 100t-1 96q0 16 2 39t2 43q0 18 -2 36t-2 34v37q0 23 -2.5 42t-2.5 42zM229 627q2 -2 4 -2q6 0 7 6q0 4 -2 4h-7h-2v-8zM244 709q4 4 6 9t6 11q0 2 2 6q4 8 8 8q8 0 8 -6q0 -16 -12 -18t-18 -10zM280 1673q0 2 1 2t1 2q14 29 41 44.5t52 27.5q4 4 6 4 q10 0 19 -14.5t20 -26.5q8 -6 24.5 -32.5t35 -58.5t34.5 -59.5t20 -35.5q12 -12 13 -27q0 -8 -4 -10l-12.5 -12.5t-17.5 -16.5t-18.5 -15t-11.5 -9t-31.5 29.5t-64.5 70.5t-64.5 73.5t-29.5 41.5q-2 8 -7.5 13t-5.5 9zM610 879q0 -23 2 -42.5t11 -41.5q8 4 20 4q14 0 14 -11 q0 4 1 8.5t1 8.5t-2 6q-10 4 -18 9t-8 20q0 18 14 21t19 18q-2 0 -5 2q-2 2 -2 8h-6q-14 0 -24.5 11t-14.5 22q0 23 27 22h4q-4 4 -10 6t-6 13q0 14 12.5 16t24.5 2q0 14 -1 31.5t-16 25.5q-4 -2 -6 -4q-4 -4 -4 -6q4 -8 8 -12t4 -12q0 -6 -5 -17.5t-15 -11.5q-2 0 -3 1 t-3 1q0 -10 -5.5 -19.5t-5.5 -13.5q0 -16 -1 -32.5t-1 -32.5zM623 655h8q4 0 6 -1t6 -1q8 0 8 9q-8 16 -22 16q-2 0 -3 -1t-3 -1v-21zM627 741q0 -4 4 -4q6 0 16 6q12 4 12 17q0 4 -1 6t-1 6q-8 -18 -30 -24v-7zM629 1208q0 -6 9 -10t19 -8q-2 2 -2 8q0 4 1 6t1 4q0 4 -8 4 h-18q-2 -2 -2 -4z" />
<glyph unicode="&#xda;" horiz-adv-x="794" d="M61 715q0 10 1 18t4 19q0 53 1 87.5t1 75.5q0 111 -3.5 219.5t-3.5 219.5q0 4 7.5 8t11.5 8q4 0 6 1t6 1q16 0 30.5 -4t27.5 -4q16 -4 26 -4q16 0 32.5 3t33.5 3q12 0 18 -2q4 0 8 -7t4 -11q-4 -53 -5 -106.5t-1 -102.5v-326q0 -6 13 -6q0 -8 -4.5 -13.5t-8.5 -5.5 q-2 0 -2 1t-2 1q-8 16 -22 17q-8 0 -17.5 -3t-19.5 -3h-6q-8 4 -15.5 9t-13.5 5q-2 0 -3 -1t-3 -1q-23 -12 -21 -33.5t-2 -40.5q-8 -12 -8 -26q0 -4 1 -6.5t1 -6.5q8 -12 21.5 -15t29.5 -3h21q12 0 19 7t16 18v-7q0 -10 11 -15t15 -11q4 -29 6 -53.5t2 -51.5q0 -31 -3 -61.5 t-3 -63.5v-20t4 -21q2 -6 2 -22q0 -12 -1 -26.5t-1 -26.5q4 -23 7.5 -41.5t3.5 -40.5q0 -4 -1 -6t-1 -7q0 -18 8 -34q14 -23 32.5 -45.5t45.5 -22.5q8 0 15 -1t13 -1q29 0 54.5 10t46.5 37q14 20 20 37.5t14 34.5q8 16 10.5 33.5t2.5 33.5q0 12 -1 24.5t-1 24.5q16 -4 28 -4 q27 0 27 23q0 18 -16.5 17t-26.5 10v16q8 0 12 5t8 9q-8 6 -11 22.5t-15 16.5q2 8 2 23q0 12 -1 24.5t-1 24.5q0 14 -1 29.5t-1 31.5q0 20 2 31q0 35 -2 69.5t-2 71.5q0 23 2 47.5t6 49.5v59q0 86 -3 167t-3 163q0 23 1 43t1 43q0 4 4 10t8 6q16 4 31.5 4h32.5q23 0 42.5 -1 t39.5 -3q16 -4 22 -16.5t6 -28.5q-6 -18 -6 -45q2 -10 3 -21.5t1 -21.5q0 -14 -1 -28.5t-1 -28.5v-84q-2 -223 -2 -444.5t-16 -446.5q0 -29 -12.5 -56.5t-28.5 -52.5q-29 -61 -85.5 -94t-121.5 -45q-31 -6 -64 -6q-88 4 -166 33q-37 14 -64.5 42.5t-47 64.5t-30.5 76t-17 79 q-6 51 -7 100t-1 96q0 16 2 39t2 43q0 18 -2 36t-2 34v37q0 23 -2.5 42t-2.5 42zM229 627q2 -2 4 -2q6 0 7 6q0 4 -2 4h-7h-2v-8zM244 709q4 4 6 9t6 11q0 2 2 6q4 8 8 8q8 0 8 -6q0 -16 -12 -18t-18 -10zM278 1489q-2 2 22 40t53.5 81t56 78.5t32.5 37.5q8 4 11.5 10.5 t7.5 6.5h4q33 -6 53.5 -27.5t38.5 -44.5q4 -2 4 -8q0 -8 -10 -20.5t-19 -24.5q-4 -8 -26.5 -31.5t-49 -49.5t-49 -47.5t-28.5 -27.5q-4 -6 -11.5 -12t-15.5 -6q-6 0 -8 2q-4 2 -14.5 8t-20.5 13.5t-19 13.5zM610 879q0 -23 2 -42.5t11 -41.5q8 4 20 4q14 0 14 -11q0 4 1 8.5 t1 8.5t-2 6q-10 4 -18 9t-8 20q0 18 14 21t19 18q-2 0 -5 2q-2 2 -2 8h-6q-14 0 -24.5 11t-14.5 22q0 23 27 22h4q-4 4 -10 6t-6 13q0 14 12.5 16t24.5 2q0 14 -1 31.5t-16 25.5q-4 -2 -6 -4q-4 -4 -4 -6q4 -8 8 -12t4 -12q0 -6 -5 -17.5t-15 -11.5q-2 0 -3 1t-3 1 q0 -10 -5.5 -19.5t-5.5 -13.5q0 -16 -1 -32.5t-1 -32.5zM623 655h8q4 0 6 -1t6 -1q8 0 8 9q-8 16 -22 16q-2 0 -3 -1t-3 -1v-21zM627 741q0 -4 4 -4q6 0 16 6q12 4 12 17q0 4 -1 6t-1 6q-8 -18 -30 -24v-7zM629 1208q0 -6 9 -10t19 -8q-2 2 -2 8q0 4 1 6t1 4q0 4 -8 4h-18 q-2 -2 -2 -4z" />
<glyph unicode="&#xdb;" horiz-adv-x="794" d="M61 715q0 10 1 18t4 19q0 53 1 87.5t1 75.5q0 111 -3.5 219.5t-3.5 219.5q0 4 7.5 8t11.5 8q4 0 6 1t6 1q16 0 30.5 -4t27.5 -4q16 -4 26 -4q16 0 32.5 3t33.5 3q12 0 18 -2q4 0 8 -7t4 -11q-4 -53 -5 -106.5t-1 -102.5v-326q0 -6 13 -6q0 -8 -4.5 -13.5t-8.5 -5.5 q-2 0 -2 1t-2 1q-8 16 -22 17q-8 0 -17.5 -3t-19.5 -3h-6q-8 4 -15.5 9t-13.5 5q-2 0 -3 -1t-3 -1q-23 -12 -21 -33.5t-2 -40.5q-8 -12 -8 -26q0 -4 1 -6.5t1 -6.5q8 -12 21.5 -15t29.5 -3h21q12 0 19 7t16 18v-7q0 -10 11 -15t15 -11q4 -29 6 -53.5t2 -51.5q0 -31 -3 -61.5 t-3 -63.5v-20t4 -21q2 -6 2 -22q0 -12 -1 -26.5t-1 -26.5q4 -23 7.5 -41.5t3.5 -40.5q0 -4 -1 -6t-1 -7q0 -18 8 -34q14 -23 32.5 -45.5t45.5 -22.5q8 0 15 -1t13 -1q29 0 54.5 10t46.5 37q14 20 20 37.5t14 34.5q8 16 10.5 33.5t2.5 33.5q0 12 -1 24.5t-1 24.5q16 -4 28 -4 q27 0 27 23q0 18 -16.5 17t-26.5 10v16q8 0 12 5t8 9q-8 6 -11 22.5t-15 16.5q2 8 2 23q0 12 -1 24.5t-1 24.5q0 14 -1 29.5t-1 31.5q0 20 2 31q0 35 -2 69.5t-2 71.5q0 23 2 47.5t6 49.5v59q0 86 -3 167t-3 163q0 23 1 43t1 43q0 4 4 10t8 6q16 4 31.5 4h32.5q23 0 42.5 -1 t39.5 -3q16 -4 22 -16.5t6 -28.5q-6 -18 -6 -45q2 -10 3 -21.5t1 -21.5q0 -14 -1 -28.5t-1 -28.5v-84q-2 -223 -2 -444.5t-16 -446.5q0 -29 -12.5 -56.5t-28.5 -52.5q-29 -61 -85.5 -94t-121.5 -45q-31 -6 -64 -6q-88 4 -166 33q-37 14 -64.5 42.5t-47 64.5t-30.5 76t-17 79 q-6 51 -7 100t-1 96q0 16 2 39t2 43q0 18 -2 36t-2 34v37q0 23 -2.5 42t-2.5 42zM194 1513q0 6 7 12q6 8 29.5 33t54 54.5t61.5 57t51 42.5q8 8 19 8q10 0 20 -8l-2 2q10 -4 39 -32t61.5 -60.5t59 -62.5t33.5 -36v2q6 -6 6 -14q0 -10 -9.5 -15.5t-13.5 -9.5q-6 -10 -10 -11 t-8 -3h4q-2 -2 -4 -2t-6 -4v2q-8 -12 -23 -12q-6 0 -14 4l2 -2q-6 2 -19.5 13t-33 26.5t-42 34t-44.5 36.5q-31 -29 -67 -53.5t-62 -50.5q-10 -6 -19 -6q-12 0 -22 10h4q-4 2 -11 8q-2 2 -10 2l-9 6t-13 13v-2q-8 12 -9 18zM229 627q2 -2 4 -2q6 0 7 6q0 4 -2 4h-7h-2v-8z M244 709q4 4 6 9t6 11q0 2 2 6q4 8 8 8q8 0 8 -6q0 -16 -12 -18t-18 -10zM610 879q0 -23 2 -42.5t11 -41.5q8 4 20 4q14 0 14 -11q0 4 1 8.5t1 8.5t-2 6q-10 4 -18 9t-8 20q0 18 14 21t19 18q-2 0 -5 2q-2 2 -2 8h-6q-14 0 -24.5 11t-14.5 22q0 23 27 22h4q-4 4 -10 6t-6 13 q0 14 12.5 16t24.5 2q0 14 -1 31.5t-16 25.5q-4 -2 -6 -4q-4 -4 -4 -6q4 -8 8 -12t4 -12q0 -6 -5 -17.5t-15 -11.5q-2 0 -3 1t-3 1q0 -10 -5.5 -19.5t-5.5 -13.5q0 -16 -1 -32.5t-1 -32.5zM623 655h8q4 0 6 -1t6 -1q8 0 8 9q-8 16 -22 16q-2 0 -3 -1t-3 -1v-21zM627 741 q0 -4 4 -4q6 0 16 6q12 4 12 17q0 4 -1 6t-1 6q-8 -18 -30 -24v-7zM629 1208q0 -6 9 -10t19 -8q-2 2 -2 8q0 4 1 6t1 4q0 4 -8 4h-18q-2 -2 -2 -4z" />
<glyph unicode="&#xdc;" horiz-adv-x="794" d="M61 715q0 10 1 18t4 19q0 53 1 87.5t1 75.5q0 111 -3.5 219.5t-3.5 219.5q0 4 7.5 8t11.5 8q4 0 6 1t6 1q16 0 30.5 -4t27.5 -4q16 -4 26 -4q16 0 32.5 3t33.5 3q12 0 18 -2q4 0 8 -7t4 -11q-4 -53 -5 -106.5t-1 -102.5v-326q0 -6 13 -6q0 -8 -4.5 -13.5t-8.5 -5.5 q-2 0 -2 1t-2 1q-8 16 -22 17q-8 0 -17.5 -3t-19.5 -3h-6q-8 4 -15.5 9t-13.5 5q-2 0 -3 -1t-3 -1q-23 -12 -21 -33.5t-2 -40.5q-8 -12 -8 -26q0 -4 1 -6.5t1 -6.5q8 -12 21.5 -15t29.5 -3h21q12 0 19 7t16 18v-7q0 -10 11 -15t15 -11q4 -29 6 -53.5t2 -51.5q0 -31 -3 -61.5 t-3 -63.5v-20t4 -21q2 -6 2 -22q0 -12 -1 -26.5t-1 -26.5q4 -23 7.5 -41.5t3.5 -40.5q0 -4 -1 -6t-1 -7q0 -18 8 -34q14 -23 32.5 -45.5t45.5 -22.5q8 0 15 -1t13 -1q29 0 54.5 10t46.5 37q14 20 20 37.5t14 34.5q8 16 10.5 33.5t2.5 33.5q0 12 -1 24.5t-1 24.5q16 -4 28 -4 q27 0 27 23q0 18 -16.5 17t-26.5 10v16q8 0 12 5t8 9q-8 6 -11 22.5t-15 16.5q2 8 2 23q0 12 -1 24.5t-1 24.5q0 14 -1 29.5t-1 31.5q0 20 2 31q0 35 -2 69.5t-2 71.5q0 23 2 47.5t6 49.5v59q0 86 -3 167t-3 163q0 23 1 43t1 43q0 4 4 10t8 6q16 4 31.5 4h32.5q23 0 42.5 -1 t39.5 -3q16 -4 22 -16.5t6 -28.5q-6 -18 -6 -45q2 -10 3 -21.5t1 -21.5q0 -14 -1 -28.5t-1 -28.5v-84q-2 -223 -2 -444.5t-16 -446.5q0 -29 -12.5 -56.5t-28.5 -52.5q-29 -61 -85.5 -94t-121.5 -45q-31 -6 -64 -6q-88 4 -166 33q-37 14 -64.5 42.5t-47 64.5t-30.5 76t-17 79 q-6 51 -7 100t-1 96q0 16 2 39t2 43q0 18 -2 36t-2 34v37q0 23 -2.5 42t-2.5 42zM219 1600q4 8 9.5 14t13.5 10q18 8 45 8q18 0 37 -3t37 -5q14 0 12 -16.5t2 -30.5q6 -23 6 -43q0 -4 -2 -23.5t-18 -19.5q-12 -4 -23.5 -4h-23.5q-23 0 -43.5 3t-42.5 7q-4 0 -4 4v4q0 2 2 4 q-6 23 -6.5 45.5t-0.5 45.5zM229 627q2 -2 4 -2q6 0 7 6q0 4 -2 4h-7h-2v-8zM244 709q4 4 6 9t6 11q0 2 2 6q4 8 8 8q8 0 8 -6q0 -16 -12 -18t-18 -10zM443 1536.5v28.5v35q8 18 22 24q18 8 45 8q18 0 37 -3t37 -5q12 0 12 -20v-19v-8q4 -10 6.5 -21.5t2.5 -21.5 q0 -4 -3.5 -23.5t-17.5 -19.5q-12 -4 -24.5 -4h-24.5q-20 0 -41 3t-43 7q-4 0 -4 6v6q-4 14 -4 27.5zM610 879q0 -23 2 -42.5t11 -41.5q8 4 20 4q14 0 14 -11q0 4 1 8.5t1 8.5t-2 6q-10 4 -18 9t-8 20q0 18 14 21t19 18q-2 0 -5 2q-2 2 -2 8h-6q-14 0 -24.5 11t-14.5 22 q0 23 27 22h4q-4 4 -10 6t-6 13q0 14 12.5 16t24.5 2q0 14 -1 31.5t-16 25.5q-4 -2 -6 -4q-4 -4 -4 -6q4 -8 8 -12t4 -12q0 -6 -5 -17.5t-15 -11.5q-2 0 -3 1t-3 1q0 -10 -5.5 -19.5t-5.5 -13.5q0 -16 -1 -32.5t-1 -32.5zM623 655h8q4 0 6 -1t6 -1q8 0 8 9q-8 16 -22 16 q-2 0 -3 -1t-3 -1v-21zM627 741q0 -4 4 -4q6 0 16 6q12 4 12 17q0 4 -1 6t-1 6q-8 -18 -30 -24v-7zM629 1208q0 -6 9 -10t19 -8q-2 2 -2 8q0 4 1 6t1 4q0 4 -8 4h-18q-2 -2 -2 -4z" />
<glyph unicode="&#xdd;" horiz-adv-x="749" d="M61 1348q0 14 11 14q18 6 37.5 8t40.5 2q20 0 39.5 -1t39.5 -3q4 -4 10.5 -8t10.5 -12q37 -76 54.5 -157t45.5 -163q8 -18 9 -41.5t16 -34.5q4 -4 12 -4t11 11.5t5 19.5q39 92 62.5 182t50.5 187q4 8 10.5 12t14.5 8q14 2 27.5 3t27.5 1q23 0 45.5 -5t40.5 -19 q6 -10 6 -21q0 -14 -6 -27q-27 -41 -39 -83.5t-22 -86.5q-23 -78 -42.5 -146.5t-37.5 -145.5q-2 -10 -9.5 -21.5t-7.5 -19.5q-10 -57 -26.5 -106.5t-20.5 -100.5q-2 -14 -2 -28.5v-29.5q0 -49 3 -98t3 -100v-41q0 -53 3 -107.5t8 -109.5q0 -23 6 -44.5t6 -43.5v-6 q-6 -8 -17 -9q-4 0 -6 1t-4 1q-14 12 -29.5 16.5t-31.5 4.5q-23 0 -44.5 -4t-43.5 -4q-10 0 -31 4q-4 0 -9 6t-9 10q0 4 -1.5 8t-1.5 9q0 20 6.5 39.5t6.5 39.5q6 98 6 199v69t-2 68q0 45 -1 91.5t-7 89.5q-10 92 -39 174t-51 170l-8.5 17t-4.5 15q-4 20 -10 35t-10 31 q-14 47 -26.5 96t-29.5 96q-12 25 -28.5 47.5t-16.5 45.5zM253 1495q-2 2 22 40t53.5 81t56 78.5t32.5 37.5q8 4 11.5 10.5t7.5 6.5h4q33 -6 53.5 -27.5t38.5 -44.5q4 -2 4 -8q0 -8 -10 -20.5t-19 -24.5q-4 -8 -26.5 -31.5t-49 -49.5t-49 -47.5t-28.5 -27.5q-4 -6 -11.5 -12 t-15.5 -6q-6 0 -8 2q-4 2 -14.5 8t-20.5 13.5t-19 13.5zM360 616q0 -23 6.5 -44t6.5 -44q0 -10 -2 -16q-4 -10 -4 -19.5v-19.5q0 -12 1 -25.5t1 -27.5q0 -6 -1 -11.5t-1 -11.5q2 -4 4 -6q4 -4 6 -4t4 2q16 10 30.5 12.5t22.5 20.5q10 35 10 59q0 16 -2 32.5t-4 33.5 q-4 10 -6 10q-4 0 -11 -5t-13 -5q-4 4 -9.5 11t-5.5 15q0 12 15 13q6 0 11 -5.5t9 -5.5q12 6 12 23q0 4 -2 6q-14 18 -12 34.5t-2 35.5q-4 8 -5 15t-11 7q-12 -8 -33 -8q-2 0 -6 -4t-4 -8t3 -8t3 -9v-2q-10 -16 -11 -41zM383 313q0 -10 2 -23.5t2 -23.5v-18.5t2 -16.5 q4 -8 12.5 -9t18.5 -1v25v16q0 23 -10.5 39t-20.5 33q-6 -6 -6 -21zM393 760l2 -4q0 -14 17 -15h8q-2 2 -2 7v8q0 4 -4 4t-8.5 1t-8.5 1t-4 -2zM395 104q6 -4 17.5 -4t21.5 -2q2 6 2 19q0 10 -1 19t-1 20q-4 -10 -6 -18.5t-8 -16.5q-4 -4 -14.5 -4t-10.5 -13zM414 39h10l7 7 t3 11q-20 -8 -20 -18z" />
<glyph unicode="&#xde;" horiz-adv-x="741" d="M61 96q0 12 1 21.5t1 17.5q0 20 -1 30.5t-1 24.5v24.5t5 37.5v74q2 4 2 10q0 10 -3.5 20.5t-3.5 18.5q4 12 4.5 23.5t0.5 23.5v53v31q2 18 3 36.5t1 37.5q0 41 -2 80.5t-2 80.5v35v206t1 174t5 166t10 183q-2 25 -2 47.5v44.5v44.5t2 44.5q0 2 6 6t10 4h8q23 0 42.5 3 t37.5 3q14 0 27 -2t25 -12q20 -12 26 -31t6 -41q0 -25 -4 -50.5t-4 -47.5v-256h41q8 -2 16.5 -2h18.5q18 0 37.5 1t40.5 1q8 2 22 2q35 0 64 -21q16 -8 32.5 -15t26.5 -18q66 -53 92.5 -126.5t26.5 -153.5q0 -68 -13.5 -136.5t-31.5 -129.5q-8 -23 -24.5 -40.5t-37 -31.5 t-44 -24.5t-44.5 -20.5q-10 -2 -14 -10.5t-14 -12.5q-20 0 -35.5 -10t-36.5 -14q-12 0 -24.5 1t-26.5 1q-16 0 -31.5 -4t-32.5 -15q-10 -8 -16 -20v-76q-4 -4 -6 -5t-6 -5q0 -27 5 -54.5t5 -56.5v-14q0 -10 -2 -11l-4 -2t-4 -6.5t-2 -23.5q0 -29 1 -55.5t1 -55.5 q0 -47 -6 -92q-16 -10 -39 -10t-44.5 6t-43.5 6q-4 0 -7.5 -1t-7.5 -1h-2q-6 0 -12 8.5t-10 16.5q0 16 -4.5 32.5t-4.5 32.5zM162 1343q0 -14 10 -22q6 -2 11 -5t12 -3q6 0 8 2q6 6 6 18q0 10 -6 22.5t-13 24.5h-12q-8 -6 -12 -16t-4 -21zM256 705q27 -18 66 -19 q35 0 67.5 12.5t61.5 28.5q27 18 34 50t7 65q0 10 -1.5 17t-1.5 15q-2 25 -2 52.5t-4 54.5t-15 50.5t-32 41.5q-12 6 -25.5 8t-25.5 6h-119q-6 0 -10 -14v-12q6 -29 6 -57v-13.5t-2 -13.5t-2 -16q0 -8 1 -15.5t1 -17.5q-4 -55 -2 -112.5t-2 -110.5z" />
<glyph unicode="&#xe0;" d="M70 29q2 53 13 109.5t21 109.5q0 35 5.5 63.5t9.5 63.5q2 92 15 185t28 188q16 129 35.5 249.5t31.5 247.5q4 25 11.5 50.5t17.5 47.5q4 6 12.5 15.5t18.5 13.5q4 2 10 2q18 0 34.5 -4t33.5 -8q10 -2 30 -2q18 0 38 3t38 3q6 0 11 -1t12 1q18 -4 24 -16.5t6 -28.5 q0 -14 -2 -27.5t0 -25.5q10 -43 19.5 -83t11.5 -81v-24.5t-2 -24.5q-2 -4 -11.5 -9.5t-13.5 -13.5q2 -12 11.5 -28.5t25.5 -20.5q-2 0 6 8q16 -102 24.5 -201.5t29.5 -203.5q10 -51 15 -99.5t22 -97.5q6 -35 6 -67.5t4 -67.5q10 -53 22.5 -105.5t14.5 -105.5v-18 q-4 -12 -12.5 -20.5t-16.5 -12.5q-6 -2 -21 -2q-20 0 -42.5 3t-43.5 3q-16 -2 -35.5 2t-19.5 27q-4 35 -5 69.5t-11 67.5q-4 12 -15.5 25.5t-25.5 13.5q-23 2 -44.5 4t-43.5 2q-25 -2 -47.5 -6t-42.5 -19q-23 -12 -25 -36.5t-6 -47.5q-8 -14 -4 -34.5t-8 -30.5 q-35 -29 -82 -29q-47 -4 -88 25zM156 129q0 -4 15 -4h22q10 10 14 26.5t12 30.5q6 8 2 19q0 25 -24 37q-4 -2 -10.5 -3.5t-6.5 -5.5q-2 -8 1 -14t3 -10v-6q2 -16 -7 -32.5t-19 -35.5q-2 0 -2 -2zM188 86q8 0 9 4l-4 2v4q-2 -2 0 -4q0 -2 -3 -4zM199 373q0 -6 12 -6 q12 18 35 22q4 2 3 10.5t1 12.5q-2 -10 -9.5 -14.5t-15.5 -7.5l-16 -6t-10 -11zM242 793q0 -4 3 -5.5t3 -5.5q0 4 1 4t1 2q0 4 -8 5zM243 1671q0 2 1 2t1 2q14 29 41 44.5t52 27.5q4 4 6 4q10 0 19 -14.5t20 -26.5q8 -6 24.5 -32.5t35 -58.5t34.5 -59.5t20 -35.5 q12 -12 13 -27q0 -8 -4 -10l-12.5 -12.5t-17.5 -16.5t-18.5 -15t-11.5 -9t-31.5 29.5t-64.5 70.5t-64.5 73.5t-29.5 41.5q-2 8 -7.5 13t-5.5 9zM260 682l4 2q2 2 5 3t3 5l-2 2q-2 0 -4 2v-10l-2 -2q-2 0 -4 -2zM299 1149q0 -10 4 -19.5t14 -13.5q6 0 13.5 -2t13.5 0 q10 0 16.5 10.5t14.5 14.5q16 4 34.5 9t16.5 26v4q-4 -4 -12 -4q-10 0 -19.5 6t-19.5 6q-4 2 -17 2q-10 0 -24.5 -4t-24.5 -8q-10 -6 -10 -27zM305 416q0 -8 10 -19q18 -4 38 -6t38 -4q16 2 32.5 7t27.5 18v16q-4 66 -15.5 132.5t-13.5 135.5q-2 41 -5 80t-14 80 q-6 35 -7 68.5t-21 66.5q-10 -88 -21.5 -174t-23.5 -176q-4 -45 -9.5 -88t-9.5 -88q2 -10 -1 -20.5t-3 -20.5q-2 -2 -2 -8zM361 1255.5q-1 -6.5 4 -6.5q8 0 8 11l-2 2q-2 0 -4.5 1t-4.5 1q0 -2 -1 -8.5zM514 412q2 -6 6 -16.5t10 -12.5q14 0 11 18v27q0 4 -11 4 q-16 -2 -16 -20zM578 207q0 -2 3 -9.5t7 -7.5t7 8.5t9 10.5h17q4 4 5 7t3 7q0 20 -17 21q-10 -2 -21 -13.5t-13 -23.5z" />
<glyph unicode="&#xe1;" d="M70 29q2 53 13 109.5t21 109.5q0 35 5.5 63.5t9.5 63.5q2 92 15 185t28 188q16 129 35.5 249.5t31.5 247.5q4 25 11.5 50.5t17.5 47.5q4 6 12.5 15.5t18.5 13.5q4 2 10 2q18 0 34.5 -4t33.5 -8q10 -2 30 -2q18 0 38 3t38 3q6 0 11 -1t12 1q18 -4 24 -16.5t6 -28.5 q0 -14 -2 -27.5t0 -25.5q10 -43 19.5 -83t11.5 -81v-24.5t-2 -24.5q-2 -4 -11.5 -9.5t-13.5 -13.5q2 -12 11.5 -28.5t25.5 -20.5q-2 0 6 8q16 -102 24.5 -201.5t29.5 -203.5q10 -51 15 -99.5t22 -97.5q6 -35 6 -67.5t4 -67.5q10 -53 22.5 -105.5t14.5 -105.5v-18 q-4 -12 -12.5 -20.5t-16.5 -12.5q-6 -2 -21 -2q-20 0 -42.5 3t-43.5 3q-16 -2 -35.5 2t-19.5 27q-4 35 -5 69.5t-11 67.5q-4 12 -15.5 25.5t-25.5 13.5q-23 2 -44.5 4t-43.5 2q-25 -2 -47.5 -6t-42.5 -19q-23 -12 -25 -36.5t-6 -47.5q-8 -14 -4 -34.5t-8 -30.5 q-35 -29 -82 -29q-47 -4 -88 25zM156 129q0 -4 15 -4h22q10 10 14 26.5t12 30.5q6 8 2 19q0 25 -24 37q-4 -2 -10.5 -3.5t-6.5 -5.5q-2 -8 1 -14t3 -10v-6q2 -16 -7 -32.5t-19 -35.5q-2 0 -2 -2zM188 86q8 0 9 4l-4 2v4q-2 -2 0 -4q0 -2 -3 -4zM199 373q0 -6 12 -6 q12 18 35 22q4 2 3 10.5t1 12.5q-2 -10 -9.5 -14.5t-15.5 -7.5l-16 -6t-10 -11zM242 793q0 -4 3 -5.5t3 -5.5q0 4 1 4t1 2q0 4 -8 5zM260 682l4 2q2 2 5 3t3 5l-2 2q-2 0 -4 2v-10l-2 -2q-2 0 -4 -2zM262 1491q-2 2 22 40t53.5 81t56 78.5t32.5 37.5q8 4 11.5 10.5t7.5 6.5 h4q33 -6 53.5 -27.5t38.5 -44.5q4 -2 4 -8q0 -8 -10 -20.5t-19 -24.5q-4 -8 -26.5 -31.5t-49 -49.5t-49 -47.5t-28.5 -27.5q-4 -6 -11.5 -12t-15.5 -6q-6 0 -8 2q-4 2 -14.5 8t-20.5 13.5t-19 13.5zM299 1149q0 -10 4 -19.5t14 -13.5q6 0 13.5 -2t13.5 0q10 0 16.5 10.5 t14.5 14.5q16 4 34.5 9t16.5 26v4q-4 -4 -12 -4q-10 0 -19.5 6t-19.5 6q-4 2 -17 2q-10 0 -24.5 -4t-24.5 -8q-10 -6 -10 -27zM305 416q0 -8 10 -19q18 -4 38 -6t38 -4q16 2 32.5 7t27.5 18v16q-4 66 -15.5 132.5t-13.5 135.5q-2 41 -5 80t-14 80q-6 35 -7 68.5t-21 66.5 q-10 -88 -21.5 -174t-23.5 -176q-4 -45 -9.5 -88t-9.5 -88q2 -10 -1 -20.5t-3 -20.5q-2 -2 -2 -8zM361 1255.5q-1 -6.5 4 -6.5q8 0 8 11l-2 2q-2 0 -4.5 1t-4.5 1q0 -2 -1 -8.5zM514 412q2 -6 6 -16.5t10 -12.5q14 0 11 18v27q0 4 -11 4q-16 -2 -16 -20zM578 207 q0 -2 3 -9.5t7 -7.5t7 8.5t9 10.5h17q4 4 5 7t3 7q0 20 -17 21q-10 -2 -21 -13.5t-13 -23.5z" />
<glyph unicode="&#xe2;" d="M70 29q2 53 13 109.5t21 109.5q0 35 5.5 63.5t9.5 63.5q2 92 15 185t28 188q16 129 35.5 249.5t31.5 247.5q4 25 11.5 50.5t17.5 47.5q4 6 12.5 15.5t18.5 13.5q4 2 10 2q18 0 34.5 -4t33.5 -8q10 -2 30 -2q18 0 38 3t38 3q6 0 11 -1t12 1q18 -4 24 -16.5t6 -28.5 q0 -14 -2 -27.5t0 -25.5q10 -43 19.5 -83t11.5 -81v-24.5t-2 -24.5q-2 -4 -11.5 -9.5t-13.5 -13.5q2 -12 11.5 -28.5t25.5 -20.5q-2 0 6 8q16 -102 24.5 -201.5t29.5 -203.5q10 -51 15 -99.5t22 -97.5q6 -35 6 -67.5t4 -67.5q10 -53 22.5 -105.5t14.5 -105.5v-18 q-4 -12 -12.5 -20.5t-16.5 -12.5q-6 -2 -21 -2q-20 0 -42.5 3t-43.5 3q-16 -2 -35.5 2t-19.5 27q-4 35 -5 69.5t-11 67.5q-4 12 -15.5 25.5t-25.5 13.5q-23 2 -44.5 4t-43.5 2q-25 -2 -47.5 -6t-42.5 -19q-23 -12 -25 -36.5t-6 -47.5q-8 -14 -4 -34.5t-8 -30.5 q-35 -29 -82 -29q-47 -4 -88 25zM156 129q0 -4 15 -4h22q10 10 14 26.5t12 30.5q6 8 2 19q0 25 -24 37q-4 -2 -10.5 -3.5t-6.5 -5.5q-2 -8 1 -14t3 -10v-6q2 -16 -7 -32.5t-19 -35.5q-2 0 -2 -2zM182 1522q0 6 7 12q6 8 29.5 33t54 54.5t61.5 57t51 42.5q8 8 19 8 q10 0 20 -8l-2 2q10 -4 39 -32t61.5 -60.5t59 -62.5t33.5 -36v2q6 -6 6 -14q0 -10 -9.5 -15.5t-13.5 -9.5q-6 -10 -10 -11t-8 -3h4q-2 -2 -4 -2t-6 -4v2q-8 -12 -23 -12q-6 0 -14 4l2 -2q-6 2 -19.5 13t-33 26.5t-42 34t-44.5 36.5q-31 -29 -67 -53.5t-62 -50.5 q-10 -6 -19 -6q-12 0 -22 10h4q-4 2 -11 8q-2 2 -10 2l-9 6t-13 13v-2q-8 12 -9 18zM188 86q8 0 9 4l-4 2v4q-2 -2 0 -4q0 -2 -3 -4zM199 373q0 -6 12 -6q12 18 35 22q4 2 3 10.5t1 12.5q-2 -10 -9.5 -14.5t-15.5 -7.5l-16 -6t-10 -11zM242 793q0 -4 3 -5.5t3 -5.5q0 4 1 4 t1 2q0 4 -8 5zM260 682l4 2q2 2 5 3t3 5l-2 2q-2 0 -4 2v-10l-2 -2q-2 0 -4 -2zM299 1149q0 -10 4 -19.5t14 -13.5q6 0 13.5 -2t13.5 0q10 0 16.5 10.5t14.5 14.5q16 4 34.5 9t16.5 26v4q-4 -4 -12 -4q-10 0 -19.5 6t-19.5 6q-4 2 -17 2q-10 0 -24.5 -4t-24.5 -8 q-10 -6 -10 -27zM305 416q0 -8 10 -19q18 -4 38 -6t38 -4q16 2 32.5 7t27.5 18v16q-4 66 -15.5 132.5t-13.5 135.5q-2 41 -5 80t-14 80q-6 35 -7 68.5t-21 66.5q-10 -88 -21.5 -174t-23.5 -176q-4 -45 -9.5 -88t-9.5 -88q2 -10 -1 -20.5t-3 -20.5q-2 -2 -2 -8zM361 1255.5 q-1 -6.5 4 -6.5q8 0 8 11l-2 2q-2 0 -4.5 1t-4.5 1q0 -2 -1 -8.5zM514 412q2 -6 6 -16.5t10 -12.5q14 0 11 18v27q0 4 -11 4q-16 -2 -16 -20zM578 207q0 -2 3 -9.5t7 -7.5t7 8.5t9 10.5h17q4 4 5 7t3 7q0 20 -17 21q-10 -2 -21 -13.5t-13 -23.5z" />
<glyph unicode="&#xe3;" d="M70 29q2 53 13 109.5t21 109.5q0 35 5.5 63.5t9.5 63.5q2 92 15 185t28 188q16 129 35.5 249.5t31.5 247.5q4 25 11.5 50.5t17.5 47.5q4 6 12.5 15.5t18.5 13.5q4 2 10 2q18 0 34.5 -4t33.5 -8q10 -2 30 -2q18 0 38 3t38 3q6 0 11 -1t12 1q18 -4 24 -16.5t6 -28.5 q0 -14 -2 -27.5t0 -25.5q10 -43 19.5 -83t11.5 -81v-24.5t-2 -24.5q-2 -4 -11.5 -9.5t-13.5 -13.5q2 -12 11.5 -28.5t25.5 -20.5q-2 0 6 8q16 -102 24.5 -201.5t29.5 -203.5q10 -51 15 -99.5t22 -97.5q6 -35 6 -67.5t4 -67.5q10 -53 22.5 -105.5t14.5 -105.5v-18 q-4 -12 -12.5 -20.5t-16.5 -12.5q-6 -2 -21 -2q-20 0 -42.5 3t-43.5 3q-16 -2 -35.5 2t-19.5 27q-4 35 -5 69.5t-11 67.5q-4 12 -15.5 25.5t-25.5 13.5q-23 2 -44.5 4t-43.5 2q-25 -2 -47.5 -6t-42.5 -19q-23 -12 -25 -36.5t-6 -47.5q-8 -14 -4 -34.5t-8 -30.5 q-35 -29 -82 -29q-47 -4 -88 25zM156 129q0 -4 15 -4h22q10 10 14 26.5t12 30.5q6 8 2 19q0 25 -24 37q-4 -2 -10.5 -3.5t-6.5 -5.5q-2 -8 1 -14t3 -10v-6q2 -16 -7 -32.5t-19 -35.5q-2 0 -2 -2zM188 86q8 0 9 4l-4 2v4q-2 -2 0 -4q0 -2 -3 -4zM199 373q0 -6 12 -6 q12 18 35 22q4 2 3 10.5t1 12.5q-2 -10 -9.5 -14.5t-15.5 -7.5l-16 -6t-10 -11zM227 1503v6q0 2 2 4v29v29.5t3 34.5q4 8 8 18t8 10t4 -2q23 -16 46.5 -22t47.5 -6q45 0 90 11t84 11q41 1 64 -22q8 0 8 -17q0 -8 -1 -16t-1 -19v-6q2 -10 3 -17t1 -16q0 -12 -2 -22 q0 -6 -4 -19.5t-12 -13.5q-20 16 -44 21.5t-51 5.5q-39 0 -77.5 -6t-77.5 -6q-25 0 -48.5 5t-45.5 19q-4 0 -5 6zM242 793q0 -4 3 -5.5t3 -5.5q0 4 1 4t1 2q0 4 -8 5zM260 682l4 2q2 2 5 3t3 5l-2 2q-2 0 -4 2v-10l-2 -2q-2 0 -4 -2zM299 1149q0 -10 4 -19.5t14 -13.5 q6 0 13.5 -2t13.5 0q10 0 16.5 10.5t14.5 14.5q16 4 34.5 9t16.5 26v4q-4 -4 -12 -4q-10 0 -19.5 6t-19.5 6q-4 2 -17 2q-10 0 -24.5 -4t-24.5 -8q-10 -6 -10 -27zM305 416q0 -8 10 -19q18 -4 38 -6t38 -4q16 2 32.5 7t27.5 18v16q-4 66 -15.5 132.5t-13.5 135.5 q-2 41 -5 80t-14 80q-6 35 -7 68.5t-21 66.5q-10 -88 -21.5 -174t-23.5 -176q-4 -45 -9.5 -88t-9.5 -88q2 -10 -1 -20.5t-3 -20.5q-2 -2 -2 -8zM361 1255.5q-1 -6.5 4 -6.5q8 0 8 11l-2 2q-2 0 -4.5 1t-4.5 1q0 -2 -1 -8.5zM514 412q2 -6 6 -16.5t10 -12.5q14 0 11 18v27 q0 4 -11 4q-16 -2 -16 -20zM578 207q0 -2 3 -9.5t7 -7.5t7 8.5t9 10.5h17q4 4 5 7t3 7q0 20 -17 21q-10 -2 -21 -13.5t-13 -23.5z" />
<glyph unicode="&#xe4;" d="M70 29q2 53 13 109.5t21 109.5q0 35 5.5 63.5t9.5 63.5q2 92 15 185t28 188q16 129 35.5 249.5t31.5 247.5q4 25 11.5 50.5t17.5 47.5q4 6 12.5 15.5t18.5 13.5q4 2 10 2q18 0 34.5 -4t33.5 -8q10 -2 30 -2q18 0 38 3t38 3q6 0 11 -1t12 1q18 -4 24 -16.5t6 -28.5 q0 -14 -2 -27.5t0 -25.5q10 -43 19.5 -83t11.5 -81v-24.5t-2 -24.5q-2 -4 -11.5 -9.5t-13.5 -13.5q2 -12 11.5 -28.5t25.5 -20.5q-2 0 6 8q16 -102 24.5 -201.5t29.5 -203.5q10 -51 15 -99.5t22 -97.5q6 -35 6 -67.5t4 -67.5q10 -53 22.5 -105.5t14.5 -105.5v-18 q-4 -12 -12.5 -20.5t-16.5 -12.5q-6 -2 -21 -2q-20 0 -42.5 3t-43.5 3q-16 -2 -35.5 2t-19.5 27q-4 35 -5 69.5t-11 67.5q-4 12 -15.5 25.5t-25.5 13.5q-23 2 -44.5 4t-43.5 2q-25 -2 -47.5 -6t-42.5 -19q-23 -12 -25 -36.5t-6 -47.5q-8 -14 -4 -34.5t-8 -30.5 q-35 -29 -82 -29q-47 -4 -88 25zM156 129q0 -4 15 -4h22q10 10 14 26.5t12 30.5q6 8 2 19q0 25 -24 37q-4 -2 -10.5 -3.5t-6.5 -5.5q-2 -8 1 -14t3 -10v-6q2 -16 -7 -32.5t-19 -35.5q-2 0 -2 -2zM188 86q8 0 9 4l-4 2v4q-2 -2 0 -4q0 -2 -3 -4zM199 373q0 -6 12 -6 q12 18 35 22q4 2 3 10.5t1 12.5q-2 -10 -9.5 -14.5t-15.5 -7.5l-16 -6t-10 -11zM223 1604q4 8 9.5 14t13.5 10q18 8 45 8q18 0 37 -3t37 -5q14 0 12 -16.5t2 -30.5q6 -23 6 -43q0 -4 -2 -23.5t-18 -19.5q-12 -4 -23.5 -4h-23.5q-23 0 -43.5 3t-42.5 7q-4 0 -4 4v4q0 2 2 4 q-6 23 -6.5 45.5t-0.5 45.5zM242 793q0 -4 3 -5.5t3 -5.5q0 4 1 4t1 2q0 4 -8 5zM260 682l4 2q2 2 5 3t3 5l-2 2q-2 0 -4 2v-10l-2 -2q-2 0 -4 -2zM299 1149q0 -10 4 -19.5t14 -13.5q6 0 13.5 -2t13.5 0q10 0 16.5 10.5t14.5 14.5q16 4 34.5 9t16.5 26v4q-4 -4 -12 -4 q-10 0 -19.5 6t-19.5 6q-4 2 -17 2q-10 0 -24.5 -4t-24.5 -8q-10 -6 -10 -27zM305 416q0 -8 10 -19q18 -4 38 -6t38 -4q16 2 32.5 7t27.5 18v16q-4 66 -15.5 132.5t-13.5 135.5q-2 41 -5 80t-14 80q-6 35 -7 68.5t-21 66.5q-10 -88 -21.5 -174t-23.5 -176q-4 -45 -9.5 -88 t-9.5 -88q2 -10 -1 -20.5t-3 -20.5q-2 -2 -2 -8zM361 1255.5q-1 -6.5 4 -6.5q8 0 8 11l-2 2q-2 0 -4.5 1t-4.5 1q0 -2 -1 -8.5zM447 1540.5v28.5v35q8 18 22 24q18 8 45 8q18 0 37 -3t37 -5q12 0 12 -20v-19v-8q4 -10 6.5 -21.5t2.5 -21.5q0 -4 -3.5 -23.5t-17.5 -19.5 q-12 -4 -24.5 -4h-24.5q-20 0 -41 3t-43 7q-4 0 -4 6v6q-4 14 -4 27.5zM514 412q2 -6 6 -16.5t10 -12.5q14 0 11 18v27q0 4 -11 4q-16 -2 -16 -20zM578 207q0 -2 3 -9.5t7 -7.5t7 8.5t9 10.5h17q4 4 5 7t3 7q0 20 -17 21q-10 -2 -21 -13.5t-13 -23.5z" />
<glyph unicode="&#xe5;" d="M70 29q2 53 13 109.5t21 109.5q0 35 5.5 63.5t9.5 63.5q2 92 15 185t28 188q16 129 35.5 249.5t31.5 247.5q4 25 11.5 50.5t17.5 47.5q4 6 12.5 15.5t18.5 13.5q4 2 10 2q18 0 34.5 -4t33.5 -8q10 -2 30 -2q18 0 38 3t38 3q6 0 11 -1t12 1q18 -4 24 -16.5t6 -28.5 q0 -14 -2 -27.5t0 -25.5q10 -43 19.5 -83t11.5 -81v-24.5t-2 -24.5q-2 -4 -11.5 -9.5t-13.5 -13.5q2 -12 11.5 -28.5t25.5 -20.5q-2 0 6 8q16 -102 24.5 -201.5t29.5 -203.5q10 -51 15 -99.5t22 -97.5q6 -35 6 -67.5t4 -67.5q10 -53 22.5 -105.5t14.5 -105.5v-18 q-4 -12 -12.5 -20.5t-16.5 -12.5q-6 -2 -21 -2q-20 0 -42.5 3t-43.5 3q-16 -2 -35.5 2t-19.5 27q-4 35 -5 69.5t-11 67.5q-4 12 -15.5 25.5t-25.5 13.5q-23 2 -44.5 4t-43.5 2q-25 -2 -47.5 -6t-42.5 -19q-23 -12 -25 -36.5t-6 -47.5q-8 -14 -4 -34.5t-8 -30.5 q-35 -29 -82 -29q-47 -4 -88 25zM156 129q0 -4 15 -4h22q10 10 14 26.5t12 30.5q6 8 2 19q0 25 -24 37q-4 -2 -10.5 -3.5t-6.5 -5.5q-2 -8 1 -14t3 -10v-6q2 -16 -7 -32.5t-19 -35.5q-2 0 -2 -2zM188 86q8 0 9 4l-4 2v4q-2 -2 0 -4q0 -2 -3 -4zM199 373q0 -6 12 -6 q12 18 35 22q4 2 3 10.5t1 12.5q-2 -10 -9.5 -14.5t-15.5 -7.5l-16 -6t-10 -11zM242 793q0 -4 3 -5.5t3 -5.5q0 4 1 4t1 2q0 4 -8 5zM260 682l4 2q2 2 5 3t3 5l-2 2q-2 0 -4 2v-10l-2 -2q-2 0 -4 -2zM262 1575q0 39 25 69q51 57 109 87q20 10 41 10q51 0 83 -37 q16 -16 26.5 -35.5t12.5 -42.5q2 -8 2 -22q0 -27 -12 -46q-29 -51 -72 -79q-18 -14 -36.5 -25.5t-40.5 -11.5h-9q-49 0 -89 40t-40 93zM299 1149q0 -10 4 -19.5t14 -13.5q6 0 13.5 -2t13.5 0q10 0 16.5 10.5t14.5 14.5q16 4 34.5 9t16.5 26v4q-4 -4 -12 -4q-10 0 -19.5 6 t-19.5 6q-4 2 -17 2q-10 0 -24.5 -4t-24.5 -8q-10 -6 -10 -27zM305 416q0 -8 10 -19q18 -4 38 -6t38 -4q16 2 32.5 7t27.5 18v16q-4 66 -15.5 132.5t-13.5 135.5q-2 41 -5 80t-14 80q-6 35 -7 68.5t-21 66.5q-10 -88 -21.5 -174t-23.5 -176q-4 -45 -9.5 -88t-9.5 -88 q2 -10 -1 -20.5t-3 -20.5q-2 -2 -2 -8zM332 1632q0 -37 23 -69q18 -23 42.5 -40.5t53.5 -17.5q4 0 7 1t7 1q27 6 27 45q0 27 -8 41v11q-4 4 -6.5 10t-6.5 8q-10 8 -16 17.5t-16 19.5q-27 16 -56 16q-12 0 -20 -2q-16 -2 -23.5 -13t-7.5 -28zM361 1255.5q-1 -6.5 4 -6.5 q8 0 8 11l-2 2q-2 0 -4.5 1t-4.5 1q0 -2 -1 -8.5zM514 412q2 -6 6 -16.5t10 -12.5q14 0 11 18v27q0 4 -11 4q-16 -2 -16 -20zM578 207q0 -2 3 -9.5t7 -7.5t7 8.5t9 10.5h17q4 4 5 7t3 7q0 20 -17 21q-10 -2 -21 -13.5t-13 -23.5z" />
</font>
</defs>
</svg>
